<?xml version="1.0" encoding="UTF-8"?>
<svg width="35px" height="25px" viewBox="0 0 35 25" version="1.1" xmlns="http://www.w3.org/2000/svg" xmlns:xlink="http://www.w3.org/1999/xlink">
    <!-- Generator: Sketch 60.1 (88133) - https://sketch.com -->
    <title>Clip 349</title>
    <desc>Created with Sketch.</desc>
    <g id="Symbols" stroke="none" stroke-width="1" fill="none" fill-rule="evenodd">
        <g id="Icon/Slider/Card" transform="translate(0.000000, -5.000000)" fill="#FEFEFE">
            <path d="M31.9827123,5 C33.6120514,5 34.9047094,6.17160714 34.9949639,7.693722 L35,7.86424658 L35,26.1994521 C35,27.7464041 33.7655327,28.9732595 32.1623205,29.0589189 L31.9827123,29.0636986 L3.01728767,29.0636986 C1.38794863,29.0636986 0.0952906067,27.8920915 0.00503612926,26.3699766 L0,26.1994521 L0,7.86424658 C0,6.31729452 1.23446734,5.09043909 2.8376795,5.00477971 L3.01728767,5 L31.9827123,5 Z M33.7931233,15.3130137 L1.20687671,15.3130137 L1.20687671,26.1994521 C1.20687671,27.1240753 1.91486942,27.8427308 2.86527671,27.9122848 L3.01728767,27.9178082 L31.9827123,27.9178082 C32.9573473,27.9178082 33.7140717,27.2453839 33.7873076,26.343669 L33.7931233,26.1994521 L33.7931233,15.3130137 Z M5.67345205,23.2882192 C6.00916438,23.2882192 6.23287671,23.5778082 6.23287671,24.010274 C6.23287671,24.4042964 6.04799049,24.6786539 5.76214917,24.7252807 L5.67345205,24.7323288 L3.43613699,24.7323288 C3.10042466,24.7323288 2.87671233,24.4436986 2.87671233,24.010274 C2.87671233,23.6171233 3.06159855,23.3420525 3.34743987,23.2952888 L3.43613699,23.2882192 L5.67345205,23.2882192 Z M9.98852055,23.2882192 C10.3242329,23.2882192 10.5479452,23.5778082 10.5479452,24.010274 C10.5479452,24.4042964 10.363059,24.6786539 10.0772177,24.7252807 L9.98852055,24.7323288 L7.75120548,24.7323288 C7.41549315,24.7323288 7.19178082,24.4436986 7.19178082,24.010274 C7.19178082,23.6171233 7.37666704,23.3420525 7.66250836,23.2952888 L7.75120548,23.2882192 L9.98852055,23.2882192 Z M14.7830411,23.2882192 C15.1187534,23.2882192 15.3424658,23.5778082 15.3424658,24.010274 C15.3424658,24.4042964 15.1575795,24.6786539 14.8717382,24.7252807 L14.7830411,24.7323288 L12.545726,24.7323288 C12.2100137,24.7323288 11.9863014,24.4436986 11.9863014,24.010274 C11.9863014,23.6171233 12.1711876,23.3420525 12.4570289,23.2952888 L12.545726,23.2882192 L14.7830411,23.2882192 Z M19.0981096,23.2882192 C19.4338219,23.2882192 19.6575342,23.5778082 19.6575342,24.010274 C19.6575342,24.4042964 19.472648,24.6786539 19.1868067,24.7252807 L19.0981096,24.7323288 L16.8607945,24.7323288 C16.5250822,24.7323288 16.3013699,24.4436986 16.3013699,24.010274 C16.3013699,23.6171233 16.4862561,23.3420525 16.7720974,23.2952888 L16.8607945,23.2882192 L19.0981096,23.2882192 Z M29.4863014,18.4754795 C31.2315068,18.4754795 32.6027397,19.7460274 32.6027397,21.3636986 C32.6027397,22.980411 31.2315068,24.2509589 29.4863014,24.2509589 C27.741,24.2509589 26.369863,22.980411 26.369863,21.3636986 C26.369863,19.7460274 27.7410959,18.4754795 29.4863014,18.4754795 Z M29.4863014,19.6309589 C28.4267123,19.6309589 27.6164384,20.3817808 27.6164384,21.3636986 C27.6164384,22.3456164 28.4267123,23.0964384 29.4863014,23.0964384 C30.5458904,23.0964384 31.3561644,22.3456164 31.3561644,21.3636986 C31.3561644,20.3817808 30.5458904,19.6309589 29.4863014,19.6309589 Z M12.8386712,21.3636986 C13.1903014,21.3636986 13.4246575,21.6523288 13.4246575,22.0857534 C13.4246575,22.4789041 13.2309748,22.7531824 12.9315748,22.799802 L12.8386712,22.8068493 L3.46269863,22.8068493 C3.11106849,22.8068493 2.87671233,22.5182192 2.87671233,22.0857534 C2.87671233,21.691731 3.07039511,21.4173735 3.36979509,21.3707467 L3.46269863,21.3636986 L12.8386712,21.3636986 Z M33.7931233,10.7294521 L1.20687671,10.7294521 L1.20687671,14.1671233 L33.7931233,14.1671233 L33.7931233,10.7294521 Z M31.9827123,6.14589041 L3.01728767,6.14589041 C2.04265274,6.14589041 1.28592829,6.81831473 1.21269243,7.72002967 L1.20687671,7.86424658 L1.20687671,9.58356164 L33.7931233,9.58356164 L33.7931233,7.86424658 C33.7931233,6.8909589 33.0086438,6.14589041 31.9827123,6.14589041 Z" id="Clip-349"></path>
        </g>
    </g>
</svg>