<?xml version="1.0" encoding="UTF-8"?>
<svg width="35px" height="34px" viewBox="0 0 35 34" version="1.1" xmlns="http://www.w3.org/2000/svg" xmlns:xlink="http://www.w3.org/1999/xlink">
    <!-- Generator: Sketch 60.1 (88133) - https://sketch.com -->
    <title>Clip 337</title>
    <desc>Created with Sketch.</desc>
    <g id="Symbols" stroke="none" stroke-width="1" fill="none" fill-rule="evenodd">
        <g id="Icon/Slider/Money" fill="#FEFEFE">
            <path d="M28.5249666,15.0722921 C31.562601,15.0722921 34.8235684,15.7732916 34.9930946,17.3103507 L35,17.4368119 L35,31.6268769 C35,33.2510114 31.6446992,33.9913968 28.5249666,33.9913968 C25.4873323,33.9913968 22.2263649,33.2894663 22.0568386,31.7532646 L22.0499332,31.6268769 L22.0499332,17.4368119 C22.0499332,15.8116955 25.405234,15.0722921 28.5249666,15.0722921 Z M33.599945,30.8383763 C32.3592594,31.4668201 30.3081759,31.7633671 28.3499843,31.7633671 C26.5140876,31.7633671 24.597238,31.5053192 23.3420244,30.9528142 L23.1000236,30.8383763 L23.1000236,31.7633671 C23.1881039,32.0815167 24.9374362,32.9407173 28.3499843,32.9407173 C31.6523552,32.9407173 33.3972677,32.136055 33.5862347,31.7877882 L33.599945,31.7545296 L33.599945,30.8383763 Z M33.599945,28.3854815 C32.3592594,29.0139254 30.3081759,29.3114542 28.3499843,29.3114542 C26.5140876,29.3114542 24.597238,29.0525434 23.3420244,28.5007396 L23.1000236,28.3864635 L23.1000236,29.3114542 C23.1881039,29.628622 24.9374362,30.4878225 28.3499843,30.4878225 C31.6523552,30.4878225 33.3972677,29.6831602 33.5862347,29.3357834 L33.599945,29.3026167 L33.599945,28.3854815 Z M33.599945,25.9325868 C32.3592594,26.5610306 30.3081759,26.8585595 28.3499843,26.8585595 C26.5140876,26.8585595 24.597238,26.5996486 23.3420244,26.0478448 L23.1000236,25.9335687 L23.1000236,26.8585595 C23.1881039,27.1757272 24.9374362,28.0349277 28.3499843,28.0349277 C31.6523552,28.0349277 33.3972677,27.2302654 33.5862347,26.8828886 L33.599945,26.849722 L33.599945,25.9325868 Z M29.9465262,11.2112904 C30.1939759,11.2121632 30.3992967,11.3899314 30.4418686,11.623906 L30.4499686,11.7140454 L30.4499686,13.4727062 C30.4499686,13.7188467 30.2712112,13.9230909 30.0359715,13.9654398 L29.9453478,13.9734973 C29.6968507,13.9734973 29.4911808,13.7958262 29.4487511,13.5618623 L29.4407271,13.4717242 L29.4407271,12.2158185 L1.00924149,12.2158185 L1.00924149,25.2727208 L20.5242877,25.2727208 C20.8029632,25.2727208 21.0289084,25.4975858 21.0289084,25.7754758 C21.0289084,26.0216163 20.8503838,26.2266364 20.6149889,26.2691577 L20.5242877,26.2772489 L0.503442413,26.2772489 C0.255992661,26.2772489 0.0506719195,26.0995778 0.00810002334,25.8656139 L0,25.7754758 L0,11.7120816 C0,11.4659411 0.178757352,11.2616968 0.413997062,11.219348 L0.504620745,11.2112904 L29.9465262,11.2112904 Z M33.599945,23.4806739 C32.3592594,24.1091178 30.3081759,24.4056647 28.3499843,24.4056647 C26.5140876,24.4056647 24.597238,24.1476169 23.3420244,23.5951118 L23.1000236,23.4806739 L23.1000236,24.4056647 C23.1881039,24.7238144 24.9374362,25.5830149 28.3499843,25.5830149 C31.6523552,25.5830149 33.3972677,24.7783526 33.5862347,24.4300858 L33.599945,24.3968272 L33.599945,23.4806739 Z M14.5250059,13.6700768 C17.3278653,13.6700768 19.5999843,15.9452398 19.5999843,18.7506523 C19.5999843,21.5560648 17.3278653,23.8312278 14.5250059,23.8312278 C11.7233248,23.8282819 9.45287513,21.5550828 9.45002749,18.7506523 C9.45002749,15.9452398 11.7221465,13.6700768 14.5250059,13.6700768 Z M9.99697,13.6641852 C10.2747618,13.6641852 10.5000196,13.8841405 10.5000196,14.1561388 C10.5000196,14.3970423 10.3220381,14.5976012 10.0873846,14.6391957 L9.99697,14.6471106 L5.77971922,14.6471106 L3.45663738,16.8643389 L3.45663738,20.5927782 L5.56025486,22.8414288 L9.99697,22.8414288 C10.27486,22.8414288 10.5000196,23.0613841 10.5000196,23.3333824 C10.5000196,23.5742859 10.3220381,23.7748448 10.0873846,23.8164393 L9.99697,23.8243542 L5.33774647,23.8243542 C5.22470514,23.8243542 5.11574869,23.787276 5.02792052,23.7201582 L4.96627726,23.6642974 L2.58143117,21.1151721 C2.51802217,21.047418 2.47576791,20.9641983 2.45860385,20.8750409 L2.4499484,20.7842572 L2.4499484,16.7042821 C2.44979183,16.5864489 2.48413628,16.4717579 2.5480553,16.3732808 L2.60146282,16.3026672 L5.22335005,13.8036211 C5.29404998,13.7366035 5.38281154,13.6916796 5.47824263,13.6734062 L5.57547498,13.6641852 L9.99697,13.6641852 Z M33.599945,21.378333 C32.3592594,22.0067768 30.3081759,22.3033237 28.3499843,22.3033237 C26.5140876,22.3033237 24.597238,22.0426868 23.3420244,21.4930945 L23.1000236,21.3793149 L23.1000236,22.3033237 C23.1881039,22.6214734 24.9374362,23.4806739 28.3499843,23.4806739 C31.6523552,23.4806739 33.3972677,22.6760116 33.5862347,22.3277449 L33.599945,22.2944862 L33.599945,21.378333 Z M14.3500236,14.3711844 C12.0314587,14.3741303 10.1525098,16.254552 10.1499568,18.5758664 C10.1499568,20.8971807 12.0303785,22.7795663 14.3500236,22.7795663 C16.6695704,22.7795663 18.5499921,20.8971807 18.5499921,18.5758664 C18.5499921,16.2535701 16.6695704,14.3711844 14.3500236,14.3711844 Z M14.6999882,16.1170799 C14.9899463,16.1170799 15.2305116,16.3286495 15.2757251,16.6057578 L15.2833608,16.7003543 L15.8666352,16.7003543 C16.1888109,16.7003543 16.4500079,16.9615513 16.4500079,17.2846107 C16.4500079,17.5744804 16.2384383,17.8158323 15.9612584,17.861204 L15.8666352,17.8688671 L14.408351,17.8688671 C14.2268879,17.8688671 14.1166156,17.9700072 14.1166156,18.0141947 C14.1166156,18.0510176 14.1931936,18.1280729 14.3237329,18.1527351 L14.408351,18.1605043 L15.1253661,18.1605043 C15.8312853,18.1929084 16.4106319,18.756544 16.4500079,19.4772905 C16.4224218,20.08675 15.9935761,20.5978407 15.4105621,20.7375245 L15.2833608,20.7616725 L15.2833608,20.788185 C15.2833608,21.1102624 15.0221639,21.3724413 14.6999882,21.3724413 C14.4100301,21.3724413 14.1694648,21.1600764 14.1242513,20.882809 L14.1166156,20.788185 L13.5333412,20.788185 C13.2111655,20.788185 12.9499686,20.526988 12.9499686,20.2039286 C12.9499686,19.9140589 13.1615381,19.6735024 13.4387181,19.6282898 L13.5333412,19.6206542 L14.9916254,19.6206542 C15.1730886,19.6206542 15.2833608,19.5185321 15.2833608,19.4743446 C15.2833608,19.4375217 15.2067829,19.3604665 15.0762435,19.3358042 L14.9916254,19.328035 L14.2746103,19.328035 C13.5686912,19.2956309 12.9893445,18.7319954 12.9499686,18.0112489 C12.9775546,17.4017893 13.4064003,16.8906986 13.9894144,16.7510148 L14.1166156,16.7268668 L14.1166156,16.7003543 C14.1166156,16.3782769 14.3778126,16.1170799 14.6999882,16.1170799 Z M33.599945,18.9254382 C32.3592594,19.553882 30.3081759,19.8514109 28.3499843,19.8514109 C26.5140876,19.8514109 24.597238,19.5899109 23.3420244,19.0402108 L23.1000236,18.9264202 L23.1000236,19.8514109 C23.1881039,20.1685786 24.9374362,21.0277792 28.3499843,21.0277792 C31.6523552,21.0277792 33.3972677,20.2231169 33.5862347,19.8757401 L33.599945,19.8425734 L33.599945,18.9254382 Z M28.3499843,16.1229716 C25.0526498,16.1229716 23.3084515,16.9579812 23.1142746,17.321555 L23.1000236,17.3562926 C23.1938974,17.6822978 24.9427387,18.5758664 28.3499843,18.5758664 C31.7332705,18.5758664 33.4832901,17.696045 33.599945,17.349419 C33.4832901,17.001811 31.7332705,16.1229716 28.3499843,16.1229716 Z M24.0027242,13.6641852 C24.2772756,13.6641852 24.4999804,13.8212961 24.4999804,14.014739 C24.4999804,14.1866882 24.3240161,14.3299307 24.0920867,14.3596395 L24.0027242,14.3652928 L19.397213,14.3652928 C19.1226616,14.3652928 18.8999568,14.2081818 18.8999568,14.014739 C18.8999568,13.8427898 19.0759211,13.6995472 19.3078505,13.6698384 L19.397213,13.6641852 L24.0027242,13.6641852 Z M2.77507042,3.50499809 L2.85450965,3.51579947 L26.5539115,8.81338445 C26.7851592,8.86542745 26.9495365,9.06868975 26.9499301,9.30435618 C26.9504203,9.58322812 26.7234931,9.80907512 26.4431483,9.81005706 L26.3867602,9.80698849 L26.3867602,9.80698849 L26.3311085,9.7972918 L3.12817729,4.61164837 L2.05402933,9.41433385 C1.99314884,9.68731413 1.72183786,9.85817229 1.44787564,9.79827374 C1.20444094,9.74415775 1.04091947,9.52556016 1.05034505,9.28592824 L1.06216824,9.19536046 L2.24717761,3.89875742 C2.27683231,3.767177 2.35735167,3.6542535 2.47115892,3.58158968 C2.5395611,3.53858056 2.61651797,3.51289292 2.69556049,3.50558726 L2.77507042,3.50499809 Z M9.47809613,0.0127383913 L9.55990697,0.0397196114 L23.4931937,6.01877335 C23.7474189,6.12875102 23.8674124,6.42922572 23.7613625,6.69140463 C23.6670959,6.92445254 23.4257269,7.04732882 23.1947027,6.99520635 L23.1088611,6.96733074 L9.60576373,1.17288237 L8.65308218,3.13676929 C8.64856524,3.14560678 8.64365552,3.15542622 8.63854942,3.16524565 C8.50745996,3.41465929 8.20443221,3.50794392 7.96189218,3.37341767 C7.74630103,3.25296594 7.65096766,2.99286002 7.72458136,2.7613746 L7.76020099,2.67623781 L8.92125094,0.284223534 C9.02564244,0.0695052298 9.25773993,-0.0389207249 9.47809613,0.0127383913 L9.47809613,0.0127383913 Z" id="Clip-337"></path>
        </g>
    </g>
</svg>