<?xml version="1.0" encoding="UTF-8"?>
<svg width="35px" height="35px" viewBox="0 0 35 35" version="1.1" xmlns="http://www.w3.org/2000/svg" xmlns:xlink="http://www.w3.org/1999/xlink">
    <!-- Generator: Sketch 60.1 (88133) - https://sketch.com -->
    <title>Clip 343</title>
    <desc>Created with Sketch.</desc>
    <g id="Symbols" stroke="none" stroke-width="1" fill="none" fill-rule="evenodd">
        <g id="Icon/Slider/House" fill="#FEFEFE">
            <path d="M17.75,4.49971607 L32.5,16.1186826 L32.5,35 L22.175,35 L22.175,23.3810335 L13.325,23.3810335 L13.325,35 L3,35 L3,16.1186826 L17.75,4.49971607 Z M17.75,6.36002271 L4.475,16.8162976 L4.475,33.5471323 L11.85,33.5471323 L11.85,21.9281658 L23.65,21.9281658 L23.65,33.5471323 L31.025,33.5471323 L31.025,16.8162976 L17.75,6.36002271 Z M17.5,-3.55271368e-15 L35,13.9642249 L33.9509,14.9997161 L17.5,1.8632879 L1.0491,14.9997161 L0,13.9642249 L2.9167,11.6438103 L2.9167,2.91070415 L8.75,2.91070415 L8.75,6.98608745 L17.5,-3.55271368e-15 Z M7.2917,4.36655309 L4.375,4.36655309 L4.375,10.4801249 L7.2917,8.15076661 L7.2917,4.36655309 Z" id="Clip-343"></path>
        </g>
    </g>
</svg>