<?xml version="1.0" encoding="UTF-8"?>
<svg width="35px" height="35px" viewBox="0 0 35 35" version="1.1" xmlns="http://www.w3.org/2000/svg" xmlns:xlink="http://www.w3.org/1999/xlink">
    <!-- Generator: Sketch 60.1 (88133) - https://sketch.com -->
    <title>Clip 331</title>
    <desc>Created with Sketch.</desc>
    <g id="Symbols" stroke="none" stroke-width="1" fill="none" fill-rule="evenodd">
        <g id="Icon/Slider/Wheel" fill="#FEFEFE">
            <path d="M17.4999,0 C22.1744,0 26.569,1.819 29.8744,5.121 C33.1796,8.423 35,12.814 35,17.484 C35,22.154 33.1796,26.544 29.8744,29.846 C26.5691,33.148 22.1744,34.967 17.5,34.967 C12.8256,34.967 8.431,33.148 5.1256,29.846 C1.8203,26.544 0,22.154 0,17.484 C0,12.814 1.8204,8.423 5.1256,5.121 C8.4309,1.819 12.8256,0 17.4999,0 Z M17.5,1.399 C8.6224,1.399 1.4,8.614 1.4,17.484 C1.4,26.353 8.6224,33.568 17.5,33.568 C26.3776,33.568 33.6,26.353 33.6,17.484 C33.6,8.614 26.3776,1.399 17.5,1.399 Z M17.5,2.797 C25.6056,2.797 32.2,9.386 32.2,17.484 C32.2,25.581 25.6056,32.17 17.5,32.17 C9.3943,32.17 2.8,25.581 2.8,17.484 C2.8,9.386 9.3943,2.797 17.5,2.797 Z M18.9,29.372 L16.1,29.372 C16.1842,29.813 16.2487,30.261 16.2935,30.715 C16.6912,30.751 17.0936,30.771 17.5006,30.771 C17.9072,30.771 18.3091,30.751 18.7065,30.715 C18.7513,30.261 18.8158,29.813 18.9,29.372 Z M4.2,19.232 C4.9188,24.814 9.1948,29.312 14.7,30.421 C13.986,24.863 9.744,20.343 4.2,19.232 Z M30.8,19.232 C25.256,20.342 21.0139,24.863 20.3,30.421 C25.8052,29.312 30.0813,24.815 30.8,19.232 Z M17.3253,12.239 C14.3661,12.239 11.4246231,12.5636391 8.56418466,13.2034788 L7.8508,13.37 L6.65,18.467 C10.8332,20.0052703 14.0936745,23.3990263 15.4763447,27.620331 L15.5872,27.974 L19.0617,27.974 C20.3393108,23.7075135 23.5217292,20.2390752 27.653508,18.5993855 L28,18.467 L26.7994,13.371 C23.7168,12.62 20.5322,12.239 17.3253,12.239 Z M17.5,13.637 C19.6229,13.637 21.35,15.363 21.35,17.484 C21.35,19.604 19.6229,21.33 17.5,21.33 C15.3771,21.33 13.65,19.604 13.65,17.484 C13.65,15.363 15.3771,13.637 17.5,13.637 Z M17.5,15.036 C16.149,15.036 15.05,16.134 15.05,17.484 C15.05,18.833 16.149,19.931 17.5,19.931 C18.851,19.931 19.95,18.833 19.95,17.484 C19.95,16.134 18.8509,15.036 17.5,15.036 Z M6.3,13.637 C5.7261,13.804 5.1539,13.986 4.588,14.18 C4.335,15.197 4.2,16.261 4.2,17.356 C4.2,17.432 4.2016,17.508 4.2029,17.584 C4.45683333,17.6293333 4.70823333,17.6813333 4.95704074,17.74 L5.3283,17.833 L6.3,13.637 Z M28.7,13.637 L29.6716,17.833 C30.0409,17.735 30.4162,17.652 30.7971,17.584 C30.7984,17.508 30.8,17.432 30.8,17.356 C30.8,16.261 30.665,15.197 30.4122,14.18 C29.8468,13.986 29.2745,13.804 28.7,13.637 Z M17.675,4.196 C12.0478,4.196 7.2216,7.676 5.25,12.588 C5.9293,12.378 6.6137,12.186 7.2963,12.013 C10.6683,11.157 14.1603,10.723 17.6752,10.723 C21.1915,10.723 24.6833,11.157 28.0537,12.013 C28.7367,12.186 29.4211,12.379 30.1,12.588 C28.1284,7.676 23.3022,4.196 17.675,4.196 Z" id="Clip-331"></path>
        </g>
    </g>
</svg>