<?xml version="1.0" encoding="UTF-8"?>
<svg width="35px" height="34px" viewBox="0 0 35 34" version="1.1" xmlns="http://www.w3.org/2000/svg" xmlns:xlink="http://www.w3.org/1999/xlink">
    <!-- Generator: Sketch 60.1 (88133) - https://sketch.com -->
    <title>Clip 417</title>
    <desc>Created with Sketch.</desc>
    <g id="Symbols" stroke="none" stroke-width="1" fill="none" fill-rule="evenodd">
        <g id="Menu/Navigation" transform="translate(-1089.000000, -77.000000)" fill="#212640">
            <g id="Group" transform="translate(1089.000000, 70.000000)">
                <path d="M34.167,17.2 L34.167,35.711 L30.181,35.711 L30.181,41 L29.068,41 L23.753,35.711 L10.25,35.711 L10.25,17.2 L34.167,17.2 Z M32.458,18.9 L11.958,18.9 L11.958,34.783 L24.21,34.783 L28.615,39.3 L28.615,34.783 L32.458,34.783 L32.458,18.9 Z M23.917,7 L23.917,15.5 L22.588,15.5 L22.588,8.214 L1.329,8.214 L1.329,22.786 L9.301,22.786 L9.301,24 L-2.27373675e-13,24 L-2.27373675e-13,7 L23.917,7 Z" id="Clip-417"></path>
            </g>
        </g>
    </g>
</svg>