<?xml version="1.0" encoding="UTF-8"?>
<svg width="60px" height="60px" viewBox="0 0 60 60" version="1.1" xmlns="http://www.w3.org/2000/svg" xmlns:xlink="http://www.w3.org/1999/xlink">
    <!-- Generator: Sketch 60.1 (88133) - https://sketch.com -->
    <title>Icons/Location/ATM</title>
    <desc>Created with Sketch.</desc>
    <g id="Интерактивные-услуги" stroke="none" stroke-width="1" fill="none" fill-rule="evenodd">
        <g id="Офисы-и-банкоматы" transform="translate(-120.000000, -452.000000)">
            <g id="Icons/Location/ATM" transform="translate(120.000000, 452.000000)">
                <rect id="Rectangle" fill="#00C851" x="0" y="0" width="60" height="60" rx="5"></rect>
                <path d="M50.4575271,12 C51.7038373,12 52.8435553,12.5081967 53.6634962,13.3360656 C54.4916366,14.1557377 55,15.295082 55,16.5409836 C55,17.7868852 54.4916366,18.9262295 53.6634962,19.7459016 C52.8435553,20.5737705 51.7038373,21.0901639 50.4575271,21.0901639 L50.4575271,21.0901639 L47.8993112,21.0901639 L47.9075107,43 C47.9075107,43.4098361 47.7353231,43.7786885 47.4647425,44.0491803 C47.194162,44.3196721 46.8251886,44.4918033 46.4070187,44.4918033 L46.4070187,44.4918033 L43.2092489,44.4918033 L43.2092489,47.5081967 C43.2092489,47.9180328 43.0452607,48.295082 42.7746802,48.5655738 C42.4959003,48.8360656 42.1269269,49 41.7169564,49 L41.7169564,49 L14.1341423,49 C13.7241719,49 13.346999,48.8360656 13.0764185,48.5655738 C12.805838,48.295082 12.6336504,47.9180328 12.6336504,47.5081967 L12.6336504,47.5081967 L12.6336504,21.0901639 L9.54247294,21.0901639 C8.29616268,21.0901639 7.15644474,20.5737705 6.33650377,19.7459016 C5.5083634,18.9262295 5,17.7868852 5,16.5409836 C5,15.295082 5.5083634,14.1557377 6.33650377,13.3360656 C7.15644474,12.5081967 8.29616268,12 9.54247294,12 L9.54247294,12 Z M18.1518531,17.2868852 L14.1177435,17.2868852 L14.1095441,17.3032787 L14.1095441,40.5163934 C15.9626107,40.6557377 17.6270908,41.4590164 18.8652017,42.6967213 C20.1197114,43.9508197 20.9314529,45.647541 21.0462447,47.5245902 L21.0462447,47.5245902 L34.8212529,47.5245902 C34.9360446,45.6311475 35.7477862,43.9262295 37.0022958,42.6721311 C38.2404067,41.442623 39.8966874,40.6393443 41.7333552,40.5 L41.7333552,40.5 L41.7333552,17.2868852 L41.7333552,17.2868852 L37.6992457,17.2868852 C37.6910462,17.2868852 37.6910462,17.295082 37.6910462,17.3032787 C37.2072811,19.442623 36.0347655,21.3196721 34.4194818,22.6967213 C32.6648081,24.1885246 30.4017711,25.0901639 27.9255494,25.0901639 C25.4493276,25.0901639 23.1780912,24.1885246 21.4316169,22.6967213 C19.8163332,21.3196721 18.6356182,19.4344262 18.1518531,17.2868852 L18.1518531,17.2868852 Z M14.1095441,42 L14.1095441,47.5081967 L14.1177435,47.5245902 L19.5621515,47.5245902 C19.4555592,46.0491803 18.8078058,44.7213115 17.8156773,43.7377049 C16.8481469,42.7704918 15.5526402,42.1311475 14.1095441,42 L14.1095441,42 Z M41.7333552,41.9754098 C40.2984585,42.1147541 39.0111512,42.7540984 38.0518203,43.7131148 C37.0596917,44.704918 36.4119383,46.0409836 36.2971466,47.5245902 L36.2971466,47.5245902 L41.7333552,47.5245902 Z M43.2092489,17.3032787 L43.2092489,43.0163934 L46.4070187,43.0163934 L46.4234175,43.0081967 L46.4316169,43 L46.4316169,17.3114754 L43.2092489,17.3032787 Z M28,30 C29.1,30 30.1,30.4421272 30.825,31.1678832 C31.55,31.8936392 32,32.894682 32,33.995829 C32,35.105318 31.55,36.1063608 30.825,36.8321168 C30.1,37.5578728 29.1,38 28,38 C26.8916667,38 25.9,37.5578728 25.175,36.8321168 C24.45,36.1063608 24,35.105318 24,33.995829 C24,32.894682 24.45,31.8936392 25.175,31.1678832 C25.9,30.4421272 26.8916667,30 28,30 Z M28,31.5015641 C27.3083333,31.5015641 26.6833333,31.7768509 26.2333333,32.2356621 C25.7833333,32.6861314 25.5,33.3117831 25.5,33.995829 C25.5,34.6882169 25.7833333,35.3138686 26.2333333,35.7643379 C26.6833333,36.2231491 27.3083333,36.4984359 28,36.4984359 C28.6916667,36.4984359 29.3166667,36.2231491 29.7666667,35.7643379 C30.2166667,35.3138686 30.5,34.6882169 30.5,33.995829 C30.5,33.3117831 30.2166667,32.6861314 29.7666667,32.2356621 C29.3166667,31.7768509 28.6916667,31.5015641 28,31.5015641 Z M36.1823549,17.2868852 L19.6687439,17.2868852 L19.6687439,17.2868852 L19.7593097,17.602485 C20.2419659,19.1676165 21.1687234,20.5368852 22.3909479,21.5819672 C23.875041,22.8442623 25.8101017,23.6147541 27.9255494,23.6147541 C30.040997,23.6147541 31.9760577,22.8442623 33.4601509,21.5819672 C34.7556576,20.4754098 35.7231879,18.9918033 36.1741555,17.3032787 C36.1741555,17.295082 36.1823549,17.2868852 36.1823549,17.2868852 L36.1823549,17.2868852 Z M50.4575271,13.4754098 L9.54247294,13.4754098 C8.69793375,13.4754098 7.93538865,13.8196721 7.3778288,14.3688525 C6.82026894,14.9262295 6.47589374,15.6967213 6.47589374,16.5409836 C6.47589374,17.3852459 6.82026894,18.1557377 7.3778288,18.7131148 C7.93538865,19.2704918 8.69793375,19.6147541 9.54247294,19.6147541 L9.54247294,19.6147541 L12.6336504,19.6147541 L12.6336504,17.2786885 L9.43588062,17.2786885 C9.03410954,17.2786885 8.70613316,16.9508197 8.70613316,16.5409836 C8.70613316,16.1393443 9.03410954,15.8032787 9.43588062,15.8032787 L9.43588062,15.8032787 L14.0357494,15.8114754 L42.0039357,15.8360656 L50.5231223,15.8442623 C50.9330928,15.8442623 51.2610692,16.1721311 51.2610692,16.5737705 C51.2610692,16.9836066 50.9330928,17.3114754 50.5231223,17.3114754 L50.5231223,17.3114754 L47.9075107,17.3114754 L47.9075107,19.6147541 L50.4575271,19.6147541 C51.3020663,19.6147541 52.0646113,19.2704918 52.6221712,18.7131148 C53.1797311,18.1557377 53.5241063,17.3852459 53.5241063,16.5409836 C53.5241063,15.6967213 53.1797311,14.9262295 52.6221712,14.3688525 C52.0646113,13.8196721 51.3020663,13.4754098 50.4575271,13.4754098 L50.4575271,13.4754098 Z" id="Combined-Shape" fill="#FEFEFE"></path>
            </g>
        </g>
    </g>
</svg>