<?xml version="1.0" encoding="UTF-8"?>
<svg width="40px" height="60px" viewBox="0 0 40 60" version="1.1" xmlns="http://www.w3.org/2000/svg" xmlns:xlink="http://www.w3.org/1999/xlink">
    <!-- Generator: Sketch 60.1 (88133) - https://sketch.com -->
    <title>Combined Shape Copy 4</title>
    <desc>Created with Sketch.</desc>
    <g id="Интерактивные-услуги" stroke="none" stroke-width="1" fill="none" fill-rule="evenodd">
        <g id="Офисы-и-банкоматы" transform="translate(-680.000000, -435.000000)" fill="#00C851">
            <path d="M700.0015,435 C711.029776,435 720,443.973 720,455.001 C720,457.9791 719.329303,460.93533 718.053521,463.613811 L717.60594,464.496 L701.093527,494.355 C700.874522,494.754 700.454511,495 700.0015,495 C699.636691,495 699.294922,494.84256 699.060677,494.575296 L698.906473,494.355 L682.40006,464.505 C680.828021,461.592 680,458.31 680,455.001 C680,443.973 688.973224,435 700.0015,435 Z M710.637914,446 L689.362086,446 L689.169435,446.007732 C688.597137,446.053835 688.078714,446.303478 687.694982,446.686088 C687.264349,447.107 687,447.692069 687,448.331856 C687,448.971644 687.264349,449.556712 687.694982,449.977625 C688.121351,450.402747 688.714005,450.667922 689.362086,450.667922 L689.362086,450.667922 L690.969498,450.667922 L690.969498,464.233939 L690.979936,464.357889 C691.00736,464.519654 691.087176,464.665795 691.199738,464.776916 C691.340439,464.915817 691.536569,465 691.749754,465 L691.749754,465 L706.092817,465 L706.217965,464.990134 C706.380872,464.964138 706.526861,464.888037 706.642834,464.776916 C706.783536,464.638015 706.868809,464.444395 706.868809,464.233939 L706.868809,464.233939 L706.868809,462.68498 L708.53165,462.68498 L708.658844,462.674676 C708.823798,462.647603 708.969105,462.568808 709.081666,462.457687 C709.222368,462.318786 709.311906,462.129375 709.311906,461.918919 L709.311906,461.918919 L709.307642,450.667922 L710.637914,450.667922 L710.830565,450.660072 C711.402863,450.613288 711.921286,450.360235 712.305018,449.977625 C712.735651,449.556712 713,448.971644 713,448.331856 C713,447.692069 712.735651,447.107 712.305018,446.686088 C711.878649,446.260966 711.285995,446 710.637914,446 L710.637914,446 Z M693.838964,448.714887 C694.090521,449.817678 694.704493,450.785778 695.544441,451.492911 C696.452607,452.258972 697.63365,452.721976 698.921286,452.721976 C700.208921,452.721976 701.3857,452.258972 702.298131,451.492911 C703.138078,450.785778 703.747786,449.821887 703.999344,448.723305 C703.999344,448.719096 703.999344,448.714887 704.003608,448.714887 L704.003608,448.714887 L706.101345,448.714887 L706.101345,460.635135 L705.864604,460.660056 C705.004243,460.776959 704.23136,461.171799 703.641194,461.750554 C702.988849,462.39455 702.566743,463.270049 702.507051,464.242357 L702.507051,464.242357 L695.344047,464.242357 L695.321651,464.003392 C695.212406,463.134831 694.807888,462.353511 694.209905,461.763181 C693.566087,461.127603 692.700558,460.715109 691.736963,460.643553 L691.736963,460.643553 L691.736963,448.723305 L691.741227,448.714887 Z M691.736963,461.405405 C692.487373,461.472751 693.161036,461.801063 693.664152,462.29774 C694.180059,462.802836 694.516891,463.484714 694.572319,464.242357 L694.572319,464.242357 L691.741227,464.242357 L691.736963,464.233939 Z M706.101345,461.392778 L706.101345,464.242357 L703.274516,464.242357 L703.30064,464.016175 C703.403365,463.345055 703.72263,462.743487 704.186947,462.285113 C704.685799,461.792645 705.355198,461.464333 706.101345,461.392778 L706.101345,461.392778 Z M706.868809,448.723305 L708.544441,448.727514 L708.544441,461.918919 L708.540177,461.923128 L708.53165,461.927337 L706.868809,461.927337 L706.868809,448.723305 Z M699,455 C698.445833,455 697.95,455.221064 697.5875,455.583942 C697.225,455.94682 697,456.447341 697,456.997914 C697,457.552659 697.225,458.05318 697.5875,458.416058 C697.95,458.778936 698.445833,459 699,459 C699.55,459 700.05,458.778936 700.4125,458.416058 C700.775,458.05318 701,457.552659 701,456.997914 C701,456.447341 700.775,455.94682 700.4125,455.583942 C700.05,455.221064 699.55,455 699,455 Z M699,455.750782 C699.345833,455.750782 699.658333,455.888425 699.883333,456.117831 C700.108333,456.343066 700.25,456.655892 700.25,456.997914 C700.25,457.344108 700.108333,457.656934 699.883333,457.882169 C699.658333,458.111575 699.345833,458.249218 699,458.249218 C698.654167,458.249218 698.341667,458.111575 698.116667,457.882169 C697.891667,457.656934 697.75,457.344108 697.75,456.997914 C697.75,456.655892 697.891667,456.343066 698.116667,456.117831 C698.341667,455.888425 698.654167,455.750782 699,455.750782 Z M703.214825,448.714887 C703.214825,448.714887 703.210561,448.719096 703.210561,448.723305 C702.976058,449.590385 702.472942,450.352237 701.799278,450.92047 C701.02755,451.568675 700.021318,451.964333 698.921286,451.964333 C697.821253,451.964333 696.815021,451.568675 696.043293,450.92047 C695.433158,450.405272 694.964621,449.736653 694.706062,448.972911 L694.706062,448.972911 L694.627747,448.714887 Z M710.637914,446.757643 C711.077074,446.757643 711.473598,446.934426 711.763529,447.216438 C712.05346,447.502658 712.232535,447.898316 712.232535,448.331856 C712.232535,448.765397 712.05346,449.161054 711.763529,449.447275 C711.473598,449.733496 711.077074,449.910279 710.637914,449.910279 L710.637914,449.910279 L709.311906,449.910279 L709.311906,448.727514 L710.672024,448.727514 L710.749719,448.719869 C710.92518,448.684765 711.055756,448.532842 711.055756,448.348693 C711.055756,448.142446 710.885208,447.974081 710.672024,447.974081 L710.672024,447.974081 L706.242047,447.969872 L691.69859,447.957244 L689.306658,447.953035 L689.230369,447.960853 C689.057765,447.996705 688.927189,448.15139 688.927189,448.331856 C688.927189,448.542313 689.097737,448.710678 689.306658,448.710678 L689.306658,448.710678 L690.969498,448.710678 L690.969498,449.910279 L689.362086,449.910279 L689.199524,449.902124 C688.82546,449.864373 688.490161,449.697718 688.236471,449.447275 C687.94654,449.161054 687.767465,448.765397 687.767465,448.331856 C687.767465,447.898316 687.94654,447.502658 688.236471,447.216438 C688.526402,446.934426 688.922926,446.757643 689.362086,446.757643 L689.362086,446.757643 Z" id="Combined-Shape-Copy-4"></path>
        </g>
    </g>
</svg>