<?xml version="1.0" encoding="UTF-8"?>
<svg width="73px" height="110px" viewBox="0 0 73 110" version="1.1" xmlns="http://www.w3.org/2000/svg" xmlns:xlink="http://www.w3.org/1999/xlink">
    <!-- Generator: Sketch 60.1 (88133) - https://sketch.com -->
    <title>Combined Shape</title>
    <desc>Created with Sketch.</desc>
    <g id="Интерактивные-услуги" stroke="none" stroke-width="1" fill="none" fill-rule="evenodd">
        <g id="Офисы-и-банкоматы-подробно" transform="translate(-527.000000, -512.000000)" fill="#212640">
            <path d="M563.502738,512 C583.629341,512 600,528.4505 600,548.6685 C600,554.12835 598.775978,559.548105 596.447676,564.458654 L595.630841,566.076 L565.495687,620.8175 C565.096002,621.549 564.329483,622 563.502738,622 C562.836961,622 562.213233,621.71136 561.785735,621.221376 L561.504313,620.8175 L531.38011,566.0925 C528.511138,560.752 527,554.735 527,548.6685 C527,528.4505 543.376134,512 563.502738,512 Z M564.277207,521.045589 C564.080297,520.969014 563.860423,520.990161 563.679351,521.099572 L563.679351,521.099572 L544.334755,532.385086 L544.253458,532.441624 C543.999795,532.647082 543.921854,533.014448 544.093325,533.301142 C544.221584,533.518893 544.45547,533.639032 544.689355,533.639032 L544.689355,533.639032 L547.382811,533.631523 L547.382811,535.230867 L547.391874,535.386513 C547.427771,535.693339 547.568195,535.971006 547.775135,536.176958 C547.956208,536.357166 548.190093,536.484813 548.454158,536.544882 L548.454158,536.544882 L548.454158,553.769744 L548.299522,553.810111 C548.098652,553.875466 547.919993,553.985994 547.775135,554.13016 C547.533705,554.377946 547.382811,554.708327 547.382811,555.076251 L547.382811,555.076251 L547.382811,556.675595 L546.326554,556.675595 L546.15759,556.683011 C545.712733,556.722316 545.315565,556.915872 545.013777,557.216218 C544.681811,557.546599 544.470559,558.012136 544.470559,558.515216 L544.470559,558.515216 L544.470559,560.670201 L544.478104,560.835114 C544.488164,560.944684 544.508283,561.053143 544.538462,561.158264 L544.538462,561.158264 L542.946531,561.158264 L542.769774,561.166215 C542.303555,561.208322 541.881053,561.415227 541.565852,561.728922 C541.218796,562.081829 541,562.569892 541,563.103006 L541,563.103006 L541,565.055258 L541.007979,565.23117 C541.050205,565.695162 541.257358,566.115647 541.565852,566.429342 C541.920453,566.782249 542.410858,567 542.946531,567 L542.946531,567 L585.053469,567 L585.230216,566.992048 C585.696351,566.949942 586.118109,566.743037 586.426603,566.429342 C586.781204,566.076435 587,565.588372 587,565.055258 L587,565.055258 L587,563.103006 L586.99201,562.927094 C586.949702,562.463102 586.741804,562.042617 586.426603,561.728922 C586.079547,561.376015 585.589142,561.158264 585.053469,561.158264 L585.053469,561.158264 L583.461538,561.158264 L583.499262,560.998357 C583.519381,560.890455 583.529441,560.780328 583.529441,560.670201 L583.529441,560.670201 L583.529441,558.515216 L583.521741,558.349047 C583.481006,557.910352 583.281304,557.50989 582.986223,557.216218 C582.646711,556.878329 582.17894,556.675595 581.673446,556.675595 L581.673446,556.675595 L580.617189,556.675595 L580.617189,555.076251 L580.608126,554.920999 C580.572229,554.615618 580.431805,554.342548 580.224865,554.13016 C580.043792,553.949952 579.809907,553.822305 579.545842,553.769744 L579.545842,553.769744 L579.545842,536.544882 L579.700478,536.500852 C579.901348,536.431652 580.080007,536.321124 580.224865,536.176958 C580.466295,535.936681 580.617189,535.598791 580.617189,535.230867 L580.617189,535.230867 L580.617189,533.639032 L583.393636,533.639032 L583.494478,533.631585 C583.823247,533.582562 584.072659,533.297729 584.072659,532.963252 C584.072659,532.715467 583.936854,532.497716 583.733147,532.377577 L583.733147,532.377577 L564.373462,521.092064 Z M585.053469,562.509822 C585.211907,562.509822 585.362801,562.5774 585.468427,562.682522 C585.581598,562.795151 585.641955,562.937816 585.641955,563.103006 L585.641955,563.103006 L585.641955,565.055258 L585.634773,565.151609 C585.6157,565.276312 585.558963,565.385638 585.468427,565.475742 C585.362801,565.580864 585.211907,565.648442 585.053469,565.648442 L585.053469,565.648442 L542.946531,565.648442 L542.852675,565.640572 C542.729546,565.619909 542.616073,565.559839 542.531573,565.475742 C542.418402,565.363113 542.358045,565.220448 542.358045,565.055258 L542.358045,565.055258 L542.358045,563.103006 L542.365227,563.006655 C542.3843,562.881952 542.441037,562.772625 542.531573,562.682522 C542.637199,562.5774 542.788093,562.509822 542.946531,562.509822 L542.946531,562.509822 Z M581.673446,558.027153 C581.80925,558.027153 581.93751,558.079714 582.020502,558.169818 C582.111038,558.259922 582.171396,558.38006 582.171396,558.515216 L582.171396,558.515216 L582.171396,560.670201 L582.164394,560.749372 C582.146046,560.852211 582.092931,560.943516 582.020502,561.015599 C581.93751,561.105703 581.80925,561.158264 581.673446,561.158264 L581.673446,561.158264 L546.326554,561.158264 L546.246278,561.152077 C546.141256,561.135738 546.045891,561.087683 545.979498,561.015599 C545.888962,560.925496 545.828604,560.805357 545.828604,560.670201 L545.828604,560.670201 L545.828604,558.515216 L545.835606,558.436045 C545.853954,558.333206 545.907069,558.241901 545.979498,558.169818 C546.06249,558.079714 546.19075,558.027153 546.326554,558.027153 L546.326554,558.027153 Z M572.604724,533.639032 L572.604724,535.230867 L572.613808,535.386119 C572.649838,535.6915 572.791185,535.96457 573.004592,536.176958 C573.185665,536.357166 573.419551,536.484813 573.683615,536.544882 L573.683615,536.544882 L573.683615,553.769744 L573.528918,553.810111 C573.327807,553.875466 573.147942,553.985994 572.997048,554.13016 C572.755618,554.377946 572.604724,554.708327 572.604724,555.076251 L572.604724,555.076251 L572.604724,556.675595 L555.395276,556.675595 L555.395276,555.076251 L555.388306,554.940142 C555.35602,554.627139 555.213261,554.347911 554.995408,554.137669 C554.814335,553.949952 554.580449,553.822305 554.316385,553.769744 L554.316385,553.769744 L554.316385,536.544882 L554.471021,536.500852 C554.671891,536.431652 554.850549,536.321124 554.995408,536.176958 C555.244382,535.929172 555.395276,535.598791 555.395276,535.230867 L555.395276,535.230867 L555.395276,533.639032 L572.604724,533.639032 Z M554.037231,555.091268 L554.037231,556.675595 L548.740856,556.675595 L548.740856,555.091268 L554.037231,555.091268 Z M579.259144,555.091268 L579.259144,556.675595 L573.962769,556.675595 L573.962769,555.091268 L579.259144,555.091268 Z M578.187797,536.567408 L578.187797,553.73971 L575.04166,553.73971 L575.04166,536.567408 L578.187797,536.567408 Z M552.95834,536.567408 L552.95834,553.73971 L549.812203,553.73971 L549.812203,536.567408 L552.95834,536.567408 Z M568.6,548.6 L564.92,548.6 L564.92,552.28 L568.6,552.28 L568.6,548.6 Z M568.6,540.32 L560.32,540.32 L560.32,552.28 L563.68375,552.28 L563.68375,547.230222 L568.6,547.230222 L568.6,540.32 Z M554.037231,533.639032 L554.037231,535.21585 L548.740856,535.21585 L548.740856,533.639032 L554.037231,533.639032 Z M579.259144,533.639032 L579.259144,535.21585 L573.962769,535.21585 L573.962769,533.639032 L579.259144,533.639032 Z M564.033951,522.451131 L580.903887,532.287473 L547.17156,532.287473 L564.033951,522.451131 Z" id="Combined-Shape"></path>
        </g>
    </g>
</svg>