<?xml version="1.0" encoding="UTF-8"?>
<svg width="60px" height="60px" viewBox="0 0 60 60" version="1.1" xmlns="http://www.w3.org/2000/svg" xmlns:xlink="http://www.w3.org/1999/xlink">
    <!-- Generator: Sketch 60.1 (88133) - https://sketch.com -->
    <title>Icons/Location/Branch</title>
    <desc>Created with Sketch.</desc>
    <g id="Интерактивные-услуги" stroke="none" stroke-width="1" fill="none" fill-rule="evenodd">
        <g id="Офисы-и-банкоматы-подробно" transform="translate(-20.000000, -434.000000)">
            <g id="Group" transform="translate(20.000000, 434.000000)">
                <g id="Icons/Location/Branch">
                    <rect id="Rectangle" fill="#212640" x="0" y="0" width="60" height="60" rx="5"></rect>
                    <path d="M29.6514679,5.10823097 C29.8810891,4.96948402 30.1681155,4.96132244 30.4059373,5.10006938 L30.4059373,5.10006938 L51.4490733,17.3669316 C51.6704937,17.497517 51.8181073,17.7342029 51.8181073,18.0035352 C51.8181073,18.4034529 51.4900771,18.7380779 51.0800394,18.7380779 L51.0800394,18.7380779 L48.0621617,18.7380779 L48.0621617,20.4683339 C48.0621617,20.8682516 47.8981466,21.2355229 47.6357225,21.4966936 C47.4389044,21.6925717 47.184681,21.8313186 46.8976546,21.8966113 L46.8976546,21.8966113 L46.8976546,40.6192873 C47.184681,40.6764183 47.4389044,40.8151653 47.6357225,41.0110433 C47.8981466,41.2803756 48.0621617,41.6394854 48.0621617,42.039403 L48.0621617,42.039403 L48.0621617,43.7778206 L49.2102673,43.7778206 C49.7597179,43.7778206 50.2681647,43.9981834 50.6371986,44.3654548 C50.9980318,44.7245645 51.2276529,45.2305828 51.2276529,45.777409 L51.2276529,45.777409 L51.2276529,48.1197839 C51.2276529,48.2993387 51.2030507,48.4788936 51.1538462,48.6502869 L51.1538462,48.6502869 L52.8842053,48.6502869 C53.4664589,48.6502869 53.999508,48.8869728 54.3767427,49.2705673 C54.7621781,49.6541618 55,50.1846649 55,50.7641374 L55,50.7641374 L55,52.8861495 C55,53.465622 54.7621781,53.996125 54.3767427,54.3797195 C53.999508,54.763314 53.4664589,55 52.8842053,55 L52.8842053,55 L7.11579465,55 C6.53354109,55 6.00049205,54.763314 5.61505659,54.3797195 C5.23782188,53.996125 5,53.465622 5,52.8861495 L5,52.8861495 L5,50.7641374 C5,50.1846649 5.23782188,49.6541618 5.61505659,49.2705673 C6.00049205,48.8869728 6.53354109,48.6502869 7.11579465,48.6502869 L7.11579465,48.6502869 L8.84615385,48.6502869 C8.79694932,48.4788936 8.77234706,48.2993387 8.77234706,48.1197839 L8.77234706,48.1197839 L8.77234706,45.777409 C8.77234706,45.2305828 9.00196818,44.7245645 9.36280138,44.3654548 C9.73183533,43.9981834 10.2320814,43.7778206 10.7897327,43.7778206 L10.7897327,43.7778206 L11.9378383,43.7778206 L11.9378383,42.039403 C11.9378383,41.6394854 12.1018534,41.2803756 12.3642775,41.0110433 C12.5610956,40.8151653 12.815319,40.6764183 13.1023454,40.6192873 L13.1023454,40.6192873 L13.1023454,21.8966113 C12.815319,21.8313186 12.5610956,21.6925717 12.3642775,21.4966936 C12.1018534,21.2355229 11.9378383,20.8682516 11.9378383,20.4683339 L11.9378383,20.4683339 L11.9378383,18.7299163 L9.01016894,18.7380779 C8.75594555,18.7380779 8.50172216,18.6074925 8.36230933,18.3708066 C8.15729047,18.02802 8.28030179,17.5791328 8.62473348,17.3750932 L8.62473348,17.3750932 Z M52.8842053,50.1193722 L7.11579465,50.1193722 C6.94357881,50.1193722 6.77956372,50.1928264 6.66475316,50.3070886 C6.54174184,50.4295124 6.4761358,50.5845825 6.4761358,50.7641374 L6.4761358,50.7641374 L6.4761358,52.8861495 C6.4761358,53.0657044 6.54174184,53.2207745 6.66475316,53.3431982 C6.77956372,53.4574604 6.94357881,53.5309147 7.11579465,53.5309147 L7.11579465,53.5309147 L52.8842053,53.5309147 C53.0564212,53.5309147 53.2204363,53.4574604 53.3352468,53.3431982 C53.4582582,53.2207745 53.5238642,53.0657044 53.5238642,52.8861495 L53.5238642,52.8861495 L53.5238642,50.7641374 C53.5238642,50.5845825 53.4582582,50.4295124 53.3352468,50.3070886 C53.2204363,50.1928264 53.0564212,50.1193722 52.8842053,50.1193722 L52.8842053,50.1193722 Z M49.2102673,45.2469059 L10.7897327,45.2469059 C10.6421191,45.2469059 10.5027062,45.304037 10.4124979,45.4019761 C10.3140889,45.4999151 10.2484829,45.6305004 10.2484829,45.777409 L10.2484829,45.777409 L10.2484829,48.1197839 C10.2484829,48.2666924 10.3140889,48.3972777 10.4124979,48.4952168 C10.5027062,48.5931558 10.6421191,48.6502869 10.7897327,48.6502869 L10.7897327,48.6502869 L49.2102673,48.6502869 C49.3578809,48.6502869 49.4972938,48.5931558 49.5875021,48.4952168 C49.6859111,48.3972777 49.7515171,48.2666924 49.7515171,48.1197839 L49.7515171,48.1197839 L49.7515171,45.777409 C49.7515171,45.6305004 49.6859111,45.4999151 49.5875021,45.4019761 C49.4972938,45.304037 49.3578809,45.2469059 49.2102673,45.2469059 L49.2102673,45.2469059 Z M39.3529605,18.7380779 L20.6470395,18.7380779 L20.6470395,20.4683339 C20.6470395,20.8682516 20.4830244,21.2273613 20.2123995,21.4966936 C20.0155814,21.6925717 19.761358,21.8313186 19.4743316,21.8966113 L19.4743316,21.8966113 L19.4743316,40.6192873 C19.761358,40.6764183 20.0155814,40.8151653 20.2123995,41.0192049 C20.4830244,41.2803756 20.6470395,41.6394854 20.6470395,42.039403 L20.6470395,42.039403 L20.6470395,43.7778206 L39.3529605,43.7778206 L39.3529605,42.039403 C39.3529605,41.6394854 39.5169756,41.2803756 39.7793997,41.0110433 C39.9844186,40.8151653 40.238642,40.6764183 40.5256684,40.6192873 L40.5256684,40.6192873 L40.5256684,21.8966113 C40.238642,21.8313186 39.9844186,21.6925717 39.7876005,21.4966936 C39.5169756,21.2273613 39.3529605,20.8682516 39.3529605,20.4683339 L39.3529605,20.4683339 L39.3529605,18.7380779 Z M19.1709037,42.0557262 L13.4139741,42.0557262 L13.4139741,43.7778206 L19.1709037,43.7778206 L19.1709037,42.0557262 Z M46.5860259,42.0557262 L40.8290963,42.0557262 L40.8290963,43.7778206 L46.5860259,43.7778206 L46.5860259,42.0557262 Z M45.4215188,21.921096 L42.0018042,21.921096 L42.0018042,40.5866409 L45.4215188,40.5866409 L45.4215188,21.921096 Z M17.9981958,21.921096 L14.5784812,21.921096 L14.5784812,40.5866409 L17.9981958,40.5866409 L17.9981958,21.921096 Z M35,35 L35,39 L31,39 L31,35 L35,35 Z M35,26 L35,33.5111111 L29.65625,33.5111111 L29.65625,39 L26,39 L26,26 L35,26 Z M19.1709037,18.7380779 L13.4139741,18.7380779 L13.4139741,20.4520107 L19.1709037,20.4520107 L19.1709037,18.7380779 Z M46.5860259,18.7380779 L40.8290963,18.7380779 L40.8290963,20.4520107 L46.5860259,20.4520107 L46.5860259,18.7380779 Z M30.0369034,6.57731626 L11.7082172,17.2689926 L48.3737904,17.2689926 L30.0369034,6.57731626 Z" id="Combined-Shape" fill="#FEFEFE"></path>
                </g>
            </g>
        </g>
    </g>
</svg>