<?xml version="1.0" encoding="UTF-8"?>
<svg width="50px" height="50px" viewBox="0 0 50 50" version="1.1" xmlns="http://www.w3.org/2000/svg" xmlns:xlink="http://www.w3.org/1999/xlink">
    <!-- Generator: Sketch 60.1 (88133) - https://sketch.com -->
    <title>Combined Shape</title>
    <desc>Created with Sketch.</desc>
    <g id="Интерактивные-услуги" stroke="none" stroke-width="1" fill="none" fill-rule="evenodd">
        <g id="Офисы-и-банкоматы-подробно" transform="translate(-331.000000, -290.000000)" fill="#212640">
            <path d="M356,290 L381,315 L356,340 L331,315 L356,290 Z M360.129847,302 C359.942632,302 359.784977,302.124643 359.735709,302.298488 L359.735709,302.524815 L359.755416,308.12393 L346,308.12393 L346,324.235739 C346,324.65559 346.344871,325 346.765285,325 L352.306208,325 C352.726622,325 353.071493,324.65559 353.071493,324.235739 L353.071493,315.185967 L359.781692,315.185967 L359.801399,320.466914 L359.801399,320.529236 C359.817821,320.742442 359.995184,320.909726 360.211959,320.909726 C360.297356,320.909726 360.376184,320.883485 360.441873,320.837564 L360.586391,320.67028 L362.202356,318.761266 C363.952986,316.694809 365.693762,314.648032 367.477237,312.604535 C368.498711,311.433542 367.854952,311.105533 366.98128,310.101825 C366.771073,309.862379 366.567435,309.616372 366.363797,309.370365 L360.468149,302.173845 L360.43202,302.127924 C360.356477,302.049201 360.248089,302 360.129847,302 Z" id="Combined-Shape"></path>
        </g>
    </g>
</svg>