<?xml version="1.0" encoding="utf-8"?>
<!-- Generator: Adobe Illustrator 24.0.1, SVG Export Plug-In . SVG Version: 6.00 Build 0)  -->
<svg version="1.1" id="Search_x5F_location_1_" xmlns="http://www.w3.org/2000/svg" xmlns:xlink="http://www.w3.org/1999/xlink"
	 x="0px" y="0px" viewBox="0 0 30 30" style="enable-background:new 0 0 30 30;" xml:space="preserve">
<style type="text/css">
	.st0{fill-rule:evenodd;clip-rule:evenodd;fill:#212640;}
</style>
<g id="Search_x5F_location">
	<g id="Офисы-и-банкоматы" transform="translate(-340.000000, -607.000000)">
		<g id="Icons_x2F_Location_x2F_Search" transform="translate(340.000000, 607.000000)">
			<path id="Combined-Shape" class="st0" d="M22.5,19.6l6.9,6.9c0.6,0.6,0.6,1.7,0,2.3l0,0l-0.6,0.6c-0.6,0.6-1.7,0.6-2.3,0l0,0
				l-6.9-6.9L22.5,19.6z M11.6,0c3.2,0,6.1,1.3,8.2,3.4c2.1,2.1,3.4,5,3.4,8.2s-1.3,6.1-3.4,8.2s-5,3.4-8.2,3.4
				c-3.2,0-6.1-1.3-8.2-3.4c-2.1-2.1-3.4-5-3.4-8.2s1.3-6.1,3.4-8.2C5.5,1.3,8.4,0,11.6,0z M11.6,1.5c-2.8,0-5.3,1.1-7.2,3
				c-1.8,1.8-3,4.4-3,7.2s1.1,5.3,3,7.2c1.8,1.8,4.4,3,7.2,3s5.3-1.1,7.2-3c1.8-1.8,3-4.4,3-7.2s-1.1-5.3-3-7.2
				C16.9,2.6,14.4,1.5,11.6,1.5z M11.6,3.2c4.6,0,8.4,3.8,8.4,8.4S16.2,20,11.6,20c-4.6,0-8.4-3.8-8.4-8.4S7,3.2,11.6,3.2z
				 M14.4,13.2H12v2.4h2.4V13.2z M14.4,7.8H9v7.8h2.2v-3.3h3.2V7.8z"/>
		</g>
	</g>
</g>
</svg>
