<?xml version="1.0" encoding="UTF-8"?>
<svg width="30px" height="30px" viewBox="0 0 30 30" version="1.1" xmlns="http://www.w3.org/2000/svg" xmlns:xlink="http://www.w3.org/1999/xlink">
    <!-- Generator: Sketch 60.1 (88133) - https://sketch.com -->
    <title>Icons/Location/Target</title>
    <desc>Created with Sketch.</desc>
    <g id="Интерактивные-услуги" stroke="none" stroke-width="1" fill="none" fill-rule="evenodd">
        <g id="Офисы-и-банкоматы" transform="translate(-30.000000, -607.000000)" fill="#212640">
            <g id="Icons/Location/Target" transform="translate(30.000000, 607.000000)">
                <path d="M14.9597561,6.32195122 C17.345122,6.32195122 19.5036585,7.28780488 21.0658537,8.85 C22.6280488,10.4158537 23.597561,12.5743902 23.597561,14.9597561 C23.597561,17.345122 22.6280488,19.5036585 21.0658537,21.0658537 C19.5036585,22.6280488 17.345122,23.5939024 14.9597561,23.5939024 C12.5743902,23.5939024 10.4158537,22.6280488 8.85365854,21.0658537 C7.29146341,19.5036585 6.32195122,17.345122 6.32195122,14.9597561 C6.32195122,12.5743902 7.29146341,10.4158537 8.85365854,8.85 C10.4158537,7.28780488 12.5743902,6.32195122 14.9597561,6.32195122 Z M24.5231707,16.0865854 L24.5231707,13.8292683 L29.1512195,13.8292683 C29.5756098,13.8292683 29.9195122,14.2353659 29.9195122,14.7329268 L29.9195122,15.1829268 C29.9195122,15.6804878 29.5756098,16.0865854 29.1512195,16.0865854 L24.5231707,16.0865854 Z M5.39634146,16.0865854 L5.39634146,13.8292683 L0.768292683,13.8292683 C0.343902439,13.8292683 0,14.2353659 0,14.7329268 L0,15.1829268 C0,15.6804878 0.343902439,16.0865854 0.768292683,16.0865854 L5.39634146,16.0865854 Z M13.8292683,24.5231707 L16.0902439,24.5231707 L16.0902439,29.1512195 C16.0902439,29.5756098 15.6804878,29.9195122 15.1865854,29.9195122 L14.7329268,29.9195122 C14.2390244,29.9195122 13.8292683,29.5719512 13.8292683,29.1512195 L13.8292683,24.5231707 Z M13.8292683,5.39268293 L16.0902439,5.39268293 L16.0902439,0.764634146 C16.0902439,0.343902439 15.6804878,0 15.1865854,0 L14.7329268,0 C14.2390244,0 13.8292683,0.343902439 13.8292683,0.764634146 L13.8292683,5.39268293 Z M14.9597561,8.70731707 C18.4134146,8.70731707 21.2121951,11.5060976 21.2121951,14.9597561 C21.2121951,18.4134146 18.4134146,21.2121951 14.9597561,21.2121951 C11.5060976,21.2121951 8.70731707,18.4134146 8.70731707,14.9597561 C8.70731707,11.5060976 11.5060976,8.70731707 14.9597561,8.70731707 Z M20.2902439,9.62926829 C18.9256098,8.26463415 17.0414634,7.4195122 14.9597561,7.4195122 C12.8780488,7.4195122 10.9939024,8.26463415 9.62926829,9.62926829 C8.26463415,10.9902439 7.4195122,12.8780488 7.4195122,14.9597561 C7.4195122,17.0414634 8.26463415,18.9256098 9.62926829,20.2902439 C10.9939024,21.654878 12.8780488,22.4963415 14.9597561,22.4963415 C17.0414634,22.4963415 18.9256098,21.654878 20.2902439,20.2902439 C21.654878,18.9256098 22.5,17.0414634 22.5,14.9597561 C22.5,12.8780488 21.654878,10.9902439 20.2902439,9.62926829 Z" id="Shape"></path>
            </g>
        </g>
    </g>
</svg>