<?xml version="1.0" encoding="UTF-8"?>
<svg width="144px" height="35px" viewBox="0 0 144 35" version="1.1" xmlns="http://www.w3.org/2000/svg" xmlns:xlink="http://www.w3.org/1999/xlink">
    <!-- Generator: Sketch 60.1 (88133) - https://sketch.com -->
    <title>Logo/Blue-bg-text</title>
    <desc>Created with Sketch.</desc>
    <g id="Logo/Blue-bg-text" stroke="none" stroke-width="1" fill="none" fill-rule="evenodd">
        <polygon id="Rectangle-Copy" fill="#E31E24" points="119 0 144 0 144 20 128.763168 20 128.763168 35 119 35"></polygon>
        <rect id="Rectangle-Copy-2" fill="#FEFEFE" x="134" y="25" width="10" height="10"></rect>
        <g id="Poytaxt-Bank" transform="translate(0.000000, 13.000000)" fill-rule="nonzero">
            <path d="M2.421875,12.15625 L2.421875,8.09375 L3.4609375,8.09375 C4.87760417,8.09375 5.97005208,7.76822917 6.73828125,7.1171875 C7.50651042,6.46614583 7.890625,5.52604167 7.890625,4.296875 C7.890625,3.11458333 7.52994792,2.22526042 6.80859375,1.62890625 C6.08723958,1.03255208 5.03385417,0.734375 3.6484375,0.734375 L3.6484375,0.734375 L9.09494702e-13,0.734375 L9.09494702e-13,12.15625 L2.421875,12.15625 Z M3.21875,6.109375 L2.421875,6.109375 L2.421875,2.71875 L3.5234375,2.71875 C4.18489583,2.71875 4.67057292,2.85416667 4.98046875,3.125 C5.29036458,3.39583333 5.4453125,3.81510417 5.4453125,4.3828125 C5.4453125,4.9453125 5.26041667,5.37369792 4.890625,5.66796875 C4.52083333,5.96223958 3.96354167,6.109375 3.21875,6.109375 L3.21875,6.109375 Z M13.7663355,12.3125 C15.1048772,12.3125 16.149148,11.9114583 16.899148,11.109375 C17.649148,10.3072917 18.024148,9.1953125 18.024148,7.7734375 C18.024148,6.85677083 17.852273,6.05729167 17.508523,5.375 C17.164773,4.69270833 16.6725855,4.16927083 16.0319605,3.8046875 C15.3913355,3.44010417 14.6517522,3.2578125 13.8132105,3.2578125 C12.4642522,3.2578125 11.4173772,3.65364583 10.6725855,4.4453125 C9.92779383,5.23697917 9.555398,6.34635417 9.555398,7.7734375 C9.555398,8.69010417 9.727273,9.4921875 10.071023,10.1796875 C10.414773,10.8671875 10.9069605,11.3945312 11.5475855,11.7617188 C12.1882105,12.1289062 12.9277938,12.3125 13.7663355,12.3125 Z M13.7975855,10.3984375 C13.1569605,10.3984375 12.6947209,10.1770833 12.4108668,9.734375 C12.1270126,9.29166667 11.9850855,8.63802083 11.9850855,7.7734375 C11.9850855,6.90364583 12.1257105,6.25390625 12.4069605,5.82421875 C12.6882105,5.39453125 13.1465438,5.1796875 13.7819605,5.1796875 C14.4225855,5.1796875 14.883523,5.39583333 15.164773,5.828125 C15.446023,6.26041667 15.586648,6.90885417 15.586648,7.7734375 C15.586648,8.64322917 15.4473251,9.29817708 15.1686793,9.73828125 C14.8900334,10.1783854 14.4330022,10.3984375 13.7975855,10.3984375 Z M20.7279835,16 C21.5665252,16 22.2995981,15.7734375 22.9272023,15.3203125 C23.5548064,14.8671875 24.0378793,14.1848958 24.376421,13.2734375 L24.376421,13.2734375 L28.0717335,3.421875 L25.517046,3.421875 L23.8998585,8.3359375 C23.7331918,8.80989583 23.6212127,9.31510417 23.563921,9.8515625 L23.563921,9.8515625 L23.517046,9.8515625 C23.4649627,9.26822917 23.3686085,8.76302083 23.2279835,8.3359375 L23.2279835,8.3359375 L21.579546,3.421875 L18.970171,3.421875 L22.438921,12.09375 L22.298296,12.5234375 C22.1212127,13.0442708 21.8751189,13.4335938 21.5600148,13.6914062 C21.2449106,13.9492188 20.876421,14.078125 20.454546,14.078125 C20.1160043,14.078125 19.8035043,14.0442708 19.517046,13.9765625 L19.517046,13.9765625 L19.517046,15.8671875 C19.9128793,15.9557292 20.3165252,16 20.7279835,16 Z M32.541194,12.3125 C33.4057773,12.3125 34.134944,12.1796875 34.728694,11.9140625 L34.728694,11.9140625 L34.728694,10.140625 C34.1453607,10.3229167 33.6453607,10.4140625 33.228694,10.4140625 C32.916194,10.4140625 32.6648919,10.3333333 32.4747878,10.171875 C32.2846836,10.0104167 32.1896315,9.76041667 32.1896315,9.421875 L32.1896315,9.421875 L32.1896315,5.2109375 L34.634944,5.2109375 L34.634944,3.421875 L32.1896315,3.421875 L32.1896315,1.5625 L30.666194,1.5625 L29.978694,3.40625 L28.666194,4.203125 L28.666194,5.2109375 L29.806819,5.2109375 L29.806819,9.421875 C29.806819,10.3854167 30.0242669,11.1080729 30.4591628,11.5898438 C30.8940586,12.0716146 31.588069,12.3125 32.541194,12.3125 Z M38.846592,12.3125 C39.5288837,12.3125 40.0822691,12.2148438 40.5067483,12.0195312 C40.9312274,11.8242188 41.3439878,11.4739583 41.7450295,10.96875 L41.7450295,10.96875 L41.8075295,10.96875 L42.268467,12.15625 L43.9325295,12.15625 L43.9325295,6.3359375 C43.9325295,5.29427083 43.6200295,4.51822917 42.9950295,4.0078125 C42.3700295,3.49739583 41.471592,3.2421875 40.299717,3.2421875 C39.0757587,3.2421875 37.9611753,3.50520833 36.955967,4.03125 L36.955967,4.03125 L37.7450295,5.640625 C38.6877378,5.21875 39.5080503,5.0078125 40.205967,5.0078125 C41.112217,5.0078125 41.565342,5.45052083 41.565342,6.3359375 L41.565342,6.3359375 L41.565342,6.71875 L40.049717,6.765625 C38.7424253,6.8125 37.7645608,7.05598958 37.1161233,7.49609375 C36.4676858,7.93619792 36.143467,8.61979167 36.143467,9.546875 C36.143467,10.4322917 36.3843524,11.1145833 36.8661233,11.59375 C37.3478941,12.0729167 38.0080503,12.3125 38.846592,12.3125 Z M39.7450295,10.5703125 C38.9741962,10.5703125 38.5887795,10.234375 38.5887795,9.5625 C38.5887795,9.09375 38.7580503,8.74479167 39.096592,8.515625 C39.4351337,8.28645833 39.9507587,8.16145833 40.643467,8.140625 L40.643467,8.140625 L41.565342,8.109375 L41.565342,8.828125 C41.565342,9.35416667 41.3999774,9.77604167 41.0692483,10.09375 C40.7385191,10.4114583 40.2971128,10.5703125 39.7450295,10.5703125 Z M48.1441775,12.15625 L49.9879275,9.1640625 L51.823865,12.15625 L54.5348025,12.15625 L51.55824,7.6953125 L54.40199,3.421875 L51.698865,3.421875 L49.9879275,6.203125 L48.292615,3.421875 L45.58949,3.421875 L48.40199,7.6953125 L45.4410525,12.15625 L48.1441775,12.15625 Z M59.082388,12.3125 C59.9469713,12.3125 60.676138,12.1796875 61.269888,11.9140625 L61.269888,11.9140625 L61.269888,10.140625 C60.6865547,10.3229167 60.1865547,10.4140625 59.769888,10.4140625 C59.457388,10.4140625 59.2060859,10.3333333 59.0159818,10.171875 C58.8258776,10.0104167 58.7308255,9.76041667 58.7308255,9.421875 L58.7308255,9.421875 L58.7308255,5.2109375 L61.176138,5.2109375 L61.176138,3.421875 L58.7308255,3.421875 L58.7308255,1.5625 L57.207388,1.5625 L56.519888,3.40625 L55.207388,4.203125 L55.207388,5.2109375 L56.348013,5.2109375 L56.348013,9.421875 C56.348013,10.3854167 56.5654609,11.1080729 57.0003568,11.5898438 C57.4352526,12.0716146 58.129263,12.3125 59.082388,12.3125 Z" id="Poytaxt" fill="#E31E24"></path>
            <path d="M72.1072465,12.15625 C73.3989132,12.15625 74.4210486,11.8645833 75.1736527,11.28125 C75.9262569,10.6979167 76.302559,9.88541667 76.302559,8.84375 C76.302559,8.109375 76.1424027,7.52083333 75.8220902,7.078125 C75.5017777,6.63541667 74.9796423,6.33333333 74.255684,6.171875 L74.255684,6.171875 L74.255684,6.09375 C74.786934,6.00520833 75.2127152,5.7421875 75.5330277,5.3046875 C75.8533402,4.8671875 76.0134965,4.30729167 76.0134965,3.625 C76.0134965,2.61979167 75.6476111,1.88671875 74.9158402,1.42578125 C74.1840694,0.96484375 73.0082882,0.734375 71.3884965,0.734375 L71.3884965,0.734375 L67.833809,0.734375 L67.833809,12.15625 L72.1072465,12.15625 Z M71.661934,5.2578125 L70.255684,5.2578125 L70.255684,2.71875 L71.5291215,2.71875 C72.2218298,2.71875 72.7283402,2.81380208 73.0486527,3.00390625 C73.3689652,3.19401042 73.5291215,3.5078125 73.5291215,3.9453125 C73.5291215,4.4140625 73.3819861,4.75 73.0877152,4.953125 C72.7934444,5.15625 72.318184,5.2578125 71.661934,5.2578125 L71.661934,5.2578125 Z M71.833809,10.15625 L70.255684,10.15625 L70.255684,7.1796875 L71.755684,7.1796875 C73.1098507,7.1796875 73.786934,7.65364583 73.786934,8.6015625 C73.786934,9.12760417 73.6280798,9.51822917 73.3103715,9.7734375 C72.9926632,10.0286458 72.5004757,10.15625 71.833809,10.15625 L71.833809,10.15625 Z M80.748582,12.3125 C81.4308737,12.3125 81.9842591,12.2148438 82.4087382,12.0195312 C82.8332174,11.8242188 83.2459778,11.4739583 83.6470195,10.96875 L83.6470195,10.96875 L83.7095195,10.96875 L84.170457,12.15625 L85.8345195,12.15625 L85.8345195,6.3359375 C85.8345195,5.29427083 85.5220195,4.51822917 84.8970195,4.0078125 C84.2720195,3.49739583 83.373582,3.2421875 82.201707,3.2421875 C80.9777487,3.2421875 79.8631653,3.50520833 78.857957,4.03125 L78.857957,4.03125 L79.6470195,5.640625 C80.5897278,5.21875 81.4100403,5.0078125 82.107957,5.0078125 C83.014207,5.0078125 83.467332,5.45052083 83.467332,6.3359375 L83.467332,6.3359375 L83.467332,6.71875 L81.951707,6.765625 C80.6444153,6.8125 79.6665507,7.05598958 79.0181132,7.49609375 C78.3696757,7.93619792 78.045457,8.61979167 78.045457,9.546875 C78.045457,10.4322917 78.2863424,11.1145833 78.7681132,11.59375 C79.2498841,12.0729167 79.9100403,12.3125 80.748582,12.3125 Z M81.6470195,10.5703125 C80.8761862,10.5703125 80.4907695,10.234375 80.4907695,9.5625 C80.4907695,9.09375 80.6600403,8.74479167 80.998582,8.515625 C81.3371237,8.28645833 81.8527487,8.16145833 82.545457,8.140625 L82.545457,8.140625 L83.467332,8.109375 L83.467332,8.828125 C83.467332,9.35416667 83.3019674,9.77604167 82.9712382,10.09375 C82.6405091,10.4114583 82.1991028,10.5703125 81.6470195,10.5703125 Z M90.89773,12.15625 L90.89773,8.046875 C90.89773,7.015625 91.0461675,6.27734375 91.3430425,5.83203125 C91.6399175,5.38671875 92.1216883,5.1640625 92.788355,5.1640625 C93.2779383,5.1640625 93.6347092,5.32161458 93.8586675,5.63671875 C94.0826258,5.95182292 94.194605,6.42447917 94.194605,7.0546875 L94.194605,7.0546875 L94.194605,12.15625 L96.5774175,12.15625 L96.5774175,6.4609375 C96.5774175,5.42447917 96.3143967,4.63151042 95.788355,4.08203125 C95.2623133,3.53255208 94.49148,3.2578125 93.475855,3.2578125 C92.882105,3.2578125 92.3521571,3.36588542 91.8860112,3.58203125 C91.4198654,3.79817708 91.05398,4.1171875 90.788355,4.5390625 L90.788355,4.5390625 L90.6555425,4.5390625 L90.33523,3.421875 L88.5149175,3.421875 L88.5149175,12.15625 L90.89773,12.15625 Z M101.640628,12.15625 L101.640628,9.4375 L102.664065,8.6171875 L105.17969,12.15625 L107.92969,12.15625 L104.250003,7.2109375 L107.718753,3.421875 L105.031253,3.421875 L102.58594,6.078125 L101.546878,7.40625 L101.515628,7.40625 L101.640628,5.421875 L101.640628,0 L99.2578155,0 L99.2578155,12.15625 L101.640628,12.15625 Z" id="Bank" fill="#FEFEFE"></path>
        </g>
    </g>
</svg>