<?xml version="1.0" encoding="UTF-8"?>
<svg width="34px" height="19px" viewBox="0 0 34 19" version="1.1" xmlns="http://www.w3.org/2000/svg" xmlns:xlink="http://www.w3.org/1999/xlink">
    <!-- Generator: Sketch 60.1 (88133) - https://sketch.com -->
    <title>Clip 64</title>
    <desc>Created with Sketch.</desc>
    <g id="Symbols" stroke="none" stroke-width="1" fill="none" fill-rule="evenodd">
        <g id="Footer/Blue" transform="translate(-1237.000000, -605.000000)" fill="#E31E24">
            <path d="M1244.505,605.323208 C1245.462,605.880698 1245.785,606.813539 1245.475,608.121729 L1241.818,614.47395 L1245.475,620.917482 C1245.818,622.154902 1245.495,623.058782 1244.505,623.629103 C1243.516,624.199433 1242.62,624.112013 1241.818,623.366852 C1238.606,618.082331 1237,615.13014 1237,614.51027 C1237,613.8904 1238.54,610.991739 1241.621,605.814278 C1242.588,604.929418 1243.549,604.765728 1244.505,605.323208 Z M1265.916,605.814278 C1269.305,610.991739 1271,613.8904 1271,614.51027 C1271,615.13014 1269.234,618.082331 1265.701,623.366852 C1264.818,624.112013 1263.832,624.199433 1262.744,623.629103 C1261.71326,623.088799 1261.3395,622.249123 1261.62356,621.110092 L1261.677,620.917482 L1265.701,614.47395 L1261.677,608.121729 C1261.336,606.813539 1261.692,605.880698 1262.744,605.323208 C1263.796,604.765728 1264.854,604.929418 1265.916,605.814278 Z M1246.98193,610.054246 L1247.174,610.105479 L1253.596,613.95867 L1259.927,610.105479 C1261.23,609.778679 1262.16,610.119179 1262.716,611.12699 C1263.271,612.13479 1263.108,613.14757 1262.226,614.16531 C1257.066,617.411171 1254.177,619.034091 1253.559,619.034091 C1252.942,619.034091 1249.999,617.342281 1244.732,613.95867 C1243.99,613.1133 1243.902,612.16941 1244.471,611.12699 C1245.00911,610.139434 1245.84608,609.781847 1246.98193,610.054246 Z" id="Clip-64"></path>
        </g>
    </g>
</svg>