<?xml version="1.0" encoding="UTF-8"?>
<svg width="191px" height="57px" viewBox="0 0 191 57" version="1.1" xmlns="http://www.w3.org/2000/svg" xmlns:xlink="http://www.w3.org/1999/xlink">
    <!-- Generator: Sketch 60.1 (88133) - https://sketch.com -->
    <title>download-on-the-app-store-apple</title>
    <desc>Created with Sketch.</desc>
    <defs>
        <linearGradient x1="49.9984472%" y1="100.265508%" x2="49.9984472%" y2="-260.382794%" id="linearGradient-1">
            <stop stop-color="#1A1A1A" stop-opacity="0.1" offset="0%"></stop>
            <stop stop-color="#212121" stop-opacity="0.151" offset="12.3%"></stop>
            <stop stop-color="#353535" stop-opacity="0.227" offset="30.8%"></stop>
            <stop stop-color="#575757" stop-opacity="0.318" offset="53.2%"></stop>
            <stop stop-color="#858585" stop-opacity="0.421" offset="78.3%"></stop>
            <stop stop-color="#B3B3B3" stop-opacity="0.51" offset="100%"></stop>
        </linearGradient>
    </defs>
    <g id="Symbols" stroke="none" stroke-width="1" fill="none" fill-rule="evenodd">
        <g id="Footer/Blue" transform="translate(-166.000000, -270.000000)" fill-rule="nonzero">
            <g id="download-on-the-app-store-apple" transform="translate(166.000000, 270.000000)">
                <path d="M190,50.5869948 C190,52.0235922 189.429449,53.401268 188.414019,54.4165655 C187.398589,55.431863 186.021577,56.0014973 184.586291,56 L7.4207688,56 C4.43063032,56.0031212 2.00389686,53.5798646 2,50.5869948 L2,7.42006879 C2.0038948,4.42605643 4.4294873,2.00077715 7.4207688,2 L184.584879,2 C186.020929,2 187.398141,2.57108637 188.413449,3.58758709 C189.428757,4.60408781 190,5.98270715 190,7.42006879 L190,50.5869948 Z" id="Path" fill="#FFFFFF"></path>
                <path d="M184.307085,57 L6.69432867,57 C3.00189354,56.9992207 0.00702569414,53.9887185 0,50.2707244 L0,6.73640251 C0.00546236245,3.01660151 3.00010291,0.00313965228 6.69432867,0 L184.305669,0 C187.99925,0.00470605257 190.99298,3.01725201 191,6.73640251 L191,50.2707244 C191.002829,53.9824452 187.994699,57 184.307085,57 L184.307085,57 Z" id="Path" fill="#A6A6A6"></path>
                <path d="M190,50.5869948 C190,52.0235922 189.429449,53.401268 188.414019,54.4165655 C187.398589,55.431863 186.021577,56.0014973 184.586291,56 L7.4207688,56 C4.43063032,56.0031212 2.00389686,53.5798646 2,50.5869948 L2,7.42006879 C2.0038948,4.42605643 4.4294873,2.00077715 7.4207688,2 L184.584879,2 C186.020929,2 187.398141,2.57108637 188.413449,3.58758709 C189.428757,4.60408781 190,5.98270715 190,7.42006879 L190,50.5869948 Z" id="Path" fill="#000000"></path>
                <path d="M42.2216447,29.1447287 C42.1811265,24.5966738 45.9088025,22.3840303 46.0792584,22.2810182 C43.9681196,19.1723105 40.6959242,18.747562 39.5460451,18.713695 C36.7977922,18.4215922 34.131973,20.3745888 32.7319987,20.3745888 C31.3040808,20.3745888 29.1482322,18.7419175 26.824722,18.7898957 C23.834757,18.8364628 21.0376028,20.5848463 19.5034992,23.2998503 C16.3374895,28.8356924 18.6987236,36.9708263 21.7320012,41.4455027 C23.2493386,43.6383905 25.0223599,46.0838696 27.3430757,45.997791 C29.6134931,45.9046567 30.4615813,44.5372769 33.2014511,44.5372769 C35.9161717,44.5372769 36.7125643,45.997791 39.079387,45.9427571 C41.5160688,45.9046567 43.0501724,43.7414026 44.5144169,41.5301702 C46.2678777,39.0197794 46.9720564,36.5446666 47,36.4176654 C46.9441128,36.3979097 42.2691488,34.5944923 42.2216447,29.1447287 Z M37.7506689,15.7700889 C38.9718042,14.2277296 39.8073178,12.1293872 39.5753859,10 C37.8079533,10.079023 35.5976147,11.2347341 34.3247838,12.7432264 C33.1986568,14.0725059 32.1926872,16.2512824 32.4525627,18.3002355 C34.4379554,18.4498147 36.4764409,17.2884591 37.7506689,15.7700889 L37.7506689,15.7700889 Z" id="Shape" fill="#FFFFFF"></path>
                <path d="M184.294437,0 L89,0 L126.325131,57 L184.294437,57 C187.993757,56.9968639 190.992967,53.9851358 191,50.2664483 L191,6.73640251 C190.993749,3.01692684 187.994539,0.00392316839 184.294437,0 Z" id="Path" fill="url(#linearGradient-1)"></path>
                <g id="Group" transform="translate(60.000000, 26.000000)" fill="#FFFFFF">
                    <path d="M15.9829538,19.4069752 L12.7671916,19.4069752 L11.0056732,13.8010843 L4.88283933,13.8010843 L3.20486565,19.4069752 L0.0740641373,19.4069752 L6.14167359,0.3219929 L9.88844012,0.3219929 L15.9829538,19.4069752 L15.9829538,19.4069752 Z M10.4746689,11.4491628 L8.88165592,6.46567069 C8.71315054,5.95656574 8.39596396,4.75765943 7.93151217,2.87038586 L7.87487171,2.87038586 C7.68795819,3.68208558 7.38917975,4.88099189 6.97995242,6.46567069 L5.41384365,11.4491628 L10.4746689,11.4491628 Z M31.5562487,12.3569471 C31.5562487,14.6973958 30.9289556,16.5473828 29.6729534,17.9054741 C28.5486402,19.1144191 27.1510368,19.7181745 25.4843912,19.7181745 C23.6846406,19.7181745 22.390406,19.0685279 21.6045196,17.7663665 L21.6045196,24.9870523 L18.585583,24.9870523 L18.585583,10.1685129 C18.585583,8.69856198 18.5473507,7.19132451 18.4737181,5.64536637 L21.1287397,5.64536637 L21.2972451,7.82663012 L21.3538856,7.82663012 C22.3606698,6.18315329 23.8885462,5.36141488 25.9389309,5.36141488 C27.541856,5.36141488 28.8799869,6.00245689 29.9504916,7.285975 C31.0195803,8.57236132 31.5562487,10.2617293 31.5562487,12.3569471 Z M28.4806716,12.4688068 C28.4806716,11.1293589 28.1833092,10.0251031 27.5857523,9.15460529 C26.932971,8.24968917 26.0564599,7.79651405 24.9576349,7.79651405 C24.2128129,7.79651405 23.5359593,8.04891538 22.9313224,8.54654755 C22.3252695,9.04848201 21.9287862,9.703865 21.7432887,10.5155647 C21.6604789,10.8191227 21.6134234,11.1315376 21.6031036,11.4462946 L21.6031036,13.7422863 C21.6031036,14.7418529 21.9061301,15.5865369 22.512183,16.2777723 C23.1182359,16.9661396 23.9055384,17.3117573 24.8740902,17.3117573 C26.0111475,17.3117573 26.8961547,16.8657527 27.5291119,15.9809139 C28.1634851,15.093207 28.4806716,13.9229827 28.4806716,12.4688068 L28.4806716,12.4688068 Z M47.1847681,12.3569471 C47.1847681,14.6973958 46.557475,16.5473828 45.3014727,17.9054741 C44.1757435,19.1144191 42.7795562,19.7181745 41.1114946,19.7181745 C39.3117439,19.7181745 38.0175094,19.0685279 37.231623,17.7663665 L37.231623,24.9870523 L34.2126864,24.9870523 L34.2126864,10.1685129 C34.2126864,8.69856198 34.174454,7.19132451 34.1008214,5.64536637 L36.7558431,5.64536637 L36.9243485,7.82663012 L36.9809889,7.82663012 C37.9863571,6.18315329 39.5142336,5.36141488 41.5660343,5.36141488 C43.1675433,5.36141488 44.5056742,6.00245689 45.579011,7.285975 C46.6466837,8.57236132 47.1847681,10.2617293 47.1847681,12.3569471 L47.1847681,12.3569471 Z M44.107775,12.4688068 C44.107775,11.1293589 43.8089966,10.0251031 43.2114397,9.15460529 C42.5586584,8.24968917 41.6849792,7.79651405 40.5861543,7.79651405 C39.8413322,7.79651405 39.1644787,8.04891538 38.5570098,8.54654755 C37.9509568,9.04848201 37.5558896,9.703865 37.3703921,10.5155647 C37.2783513,10.8941667 37.2287909,11.2024979 37.2287909,11.4462946 L37.2287909,13.7422863 C37.2287909,14.7418529 37.5332334,15.5865369 38.1364543,16.2777723 C38.7425073,16.9647055 39.5298097,17.3117573 40.5011936,17.3117573 C41.6396669,17.3117573 42.5246741,16.8657527 43.1562152,15.9809139 C43.7905884,15.093207 44.107775,13.9229827 44.107775,12.4688068 L44.107775,12.4688068 Z M64.6583505,14.0534856 C64.6583505,15.6783192 64.0976099,16.9991239 62.9832088,18.0187679 C61.7569428,19.1316283 60.0449849,19.6894926 57.850167,19.6894926 C55.8224385,19.6894926 54.1968572,19.2936814 52.9705912,18.5006249 L53.6686849,15.952232 C54.9926557,16.7467225 56.4468996,17.1425337 58.0300005,17.1425337 C59.1684737,17.1425337 60.0534809,16.8815278 60.6850221,16.3638182 C61.3179793,15.8446746 61.6379979,15.1505709 61.6379979,14.2843755 C61.6379979,13.5085282 61.3732037,12.8588816 60.8535275,12.3296993 C60.3310192,11.801951 59.4672522,11.3100553 58.2537303,10.8583143 C54.9544234,9.6120827 53.3033539,7.78934356 53.3033539,5.39153094 C53.3033539,3.82549543 53.8867507,2.54341141 55.0507122,1.54097659 C56.2146737,0.539975865 57.7581262,0.0394755036 59.6782379,0.0394755036 C61.3930279,0.0394755036 62.8217835,0.342070278 63.9560087,0.945825728 L63.1984426,3.43828885 C62.1307699,2.85317668 60.9257441,2.56062059 59.5777011,2.56062059 C58.5128604,2.56062059 57.6774136,2.8259288 57.0798567,3.35367704 C56.5771726,3.82549543 56.3222905,4.40056891 56.3222905,5.08319978 C56.3222905,5.83610146 56.6125729,6.46136839 57.1903056,6.95183006 C57.6915737,7.40357108 58.6063172,7.89546685 59.9288719,8.42321508 C61.5516212,9.08576857 62.7439029,9.85731354 63.5071331,10.7435864 C64.2760274,11.6298592 64.6583505,12.7355491 64.6583505,14.0534856 Z M74.665304,7.9399239 L71.3376769,7.9399239 L71.3376769,14.6213886 C71.3376769,16.3207953 71.9239057,17.1683475 73.0991953,17.1683475 C73.6386957,17.1683475 74.0861553,17.1224563 74.4401582,17.0263717 L74.5237029,19.3481771 C73.928978,19.5733306 73.1459236,19.6866244 72.1759557,19.6866244 C70.983674,19.6866244 70.0519384,19.3180611 69.3793329,18.5809344 C68.7095595,17.8438078 68.3725487,16.6090491 68.3725487,14.8709217 L68.3725487,7.93418751 L66.3901326,7.93418751 L66.3901326,5.63962998 L68.3725487,5.63962998 L68.3725487,3.11991899 L71.3376769,2.21356876 L71.3376769,5.63962998 L74.665304,5.63962998 L74.665304,7.9399239 L74.665304,7.9399239 Z M89.6495381,12.412877 C89.6495381,14.5281722 89.0519813,16.2648654 87.8596996,17.6229567 C86.6121934,19.0212027 84.9526279,19.7181745 82.883835,19.7181745 C80.8872587,19.7181745 79.2999098,19.0484505 78.1161241,17.7104367 C76.9323385,16.3695546 76.3404457,14.6801866 76.3404457,12.6423327 C76.3404457,10.5098283 76.9521627,8.76309641 78.1713486,7.40500518 C79.3933666,6.04547984 81.038772,5.36571717 83.1075648,5.36571717 C85.1013091,5.36571717 86.7028181,6.03687525 87.914924,7.37632321 C89.0732214,8.67561641 89.6495381,10.3535116 89.6495381,12.412877 Z M86.5201526,12.4831478 C86.5201526,11.2225753 86.2511104,10.141265 85.71161,9.23634891 C85.0786529,8.14356588 84.1724055,7.59717437 82.9985319,7.59717437 C81.7892581,7.59717437 80.8617705,8.14356588 80.2302294,9.23634891 C79.689313,10.141265 79.4202708,11.2412185 79.4202708,12.5405117 C79.4202708,13.8025184 79.689313,14.8866968 80.2302294,15.7887448 C80.8830107,16.8815278 81.7935061,17.4279193 82.9730437,17.4279193 C84.1270931,17.4279193 85.0319245,16.870055 85.6861218,15.7614969 C86.2411984,14.8350693 86.5201526,13.7465886 86.5201526,12.4831478 Z M99.4667461,8.33430098 C99.1527548,8.27688979 98.8342519,8.24856881 98.5151864,8.24968917 C97.4531777,8.24968917 96.631891,8.65410493 96.0541583,9.46867286 C95.5528903,10.1857221 95.3008402,11.0920723 95.3008402,12.1862894 L95.3008402,19.4069752 L92.2819036,19.4069752 L92.2819036,9.97921191 C92.2845959,8.53459191 92.2553243,7.09009218 92.1941109,5.64680047 L94.8236443,5.64680047 L94.9340932,8.27980523 L95.0176379,8.27980523 C95.3376565,7.37488911 95.8389246,6.64493299 96.5271062,6.09854148 C97.1570237,5.62109815 97.9223933,5.36254858 98.70918,5.36141488 C98.9881342,5.36141488 99.2401843,5.38149225 99.4639141,5.41734472 L99.4667461,8.33430098 L99.4667461,8.33430098 Z M112.968416,11.8750901 C112.976072,12.3398809 112.939081,12.8043242 112.857967,13.2618633 L103.801157,13.2618633 C103.835142,14.6213886 104.274105,15.6625441 105.115216,16.3795933 C105.878446,17.0192012 106.865406,17.3404393 108.077512,17.3404393 C109.418475,17.3404393 110.641909,17.1253245 111.74215,16.6907927 L112.215098,18.8118243 C110.92936,19.3797273 109.411395,19.6622447 107.659789,19.6622447 C105.552764,19.6622447 103.898862,19.0341096 102.695252,17.7807075 C101.494475,16.5258714 100.89267,14.8393716 100.89267,12.7269445 C100.89267,10.6532382 101.451994,8.92514954 102.572059,7.54698092 C103.744517,6.07559591 105.329034,5.3399034 107.322778,5.3399034 C109.281122,5.3399034 110.763686,6.07559591 111.77047,7.54698092 C112.567685,8.71290297 112.968416,10.1584742 112.968416,11.8750901 L112.968416,11.8750901 Z M110.089665,11.0820336 C110.110905,10.1742493 109.912663,9.39266564 109.503436,8.73154625 C108.980928,7.87969177 108.176633,7.45519862 107.099048,7.45519862 C106.112088,7.45519862 105.307794,7.86965308 104.696077,8.70143018 C104.193393,9.36254957 103.894614,10.1570401 103.802573,11.0791654 L110.089665,11.0820336 Z" id="Shape"></path>
                </g>
                <g id="Group" transform="translate(61.000000, 9.000000)" fill="#FFFFFF">
                    <path d="M2.23678754,9.90749104 C1.38843706,9.90749104 0.65453521,9.86615811 0.0436656405,9.79631972 L0.0436656405,0.626111728 C0.898036965,0.494623327 1.76141122,0.429813881 2.62591288,0.432207057 C6.12374917,0.432207057 7.73461366,2.14687827 7.73461366,4.94183908 C7.73461366,8.16580714 5.83190516,9.90749104 2.23678754,9.90749104 Z M2.74894516,1.60812499 C2.27684456,1.60812499 1.87484374,1.63663045 1.5415121,1.70504357 L1.5415121,8.67605496 C1.7217687,8.70456043 2.0679758,8.71738788 2.55438249,8.71738788 C4.84621633,8.71738788 6.15093072,7.41753869 6.15093072,4.98317201 C6.15093072,2.81248087 4.97067921,1.60812499 2.74894516,1.60812499 L2.74894516,1.60812499 Z M12.7546167,9.97732942 C10.7832391,9.97732942 9.50570623,8.51072327 9.50570623,6.51961656 C9.50570623,4.44441873 10.8104206,2.96498511 12.8662042,2.96498511 C14.8089697,2.96498511 16.1151147,4.36175288 16.1151147,6.40987052 C16.1151147,8.51072327 14.7689127,9.97732942 12.7546167,9.97732942 Z M12.8118411,4.05674441 C11.7288709,4.05674441 11.0350261,5.06583786 11.0350261,6.47685836 C11.0350261,7.86079867 11.743177,8.86989212 12.797535,8.86989212 C13.851893,8.86989212 14.5600439,7.79096028 14.5600439,6.44835289 C14.5600439,5.08009059 13.8661991,4.05674441 12.8118411,4.05674441 Z M27.3568315,3.10323661 L25.2466848,9.82482519 L23.8718707,9.82482519 L22.9977692,6.9058656 C22.7804296,6.19186849 22.5994651,5.46737988 22.4555688,4.73517447 L22.4269567,4.73517447 C22.3167999,5.46776491 22.1079311,6.20178062 21.8861869,6.9058656 L20.9562918,9.82482519 L19.5671715,9.82482519 L17.5814878,3.10323661 L19.1222525,3.10323661 L19.8861971,6.2986992 C20.0664537,7.05979511 20.2180981,7.77813282 20.3439916,8.45656288 L20.3726038,8.45656288 C20.4827606,7.89072941 20.6630172,7.18379388 20.9276796,6.31295194 L21.8861869,3.10466188 L23.107926,3.10466188 L24.0249457,6.24453882 C24.2466899,7.00563473 24.4269465,7.7524779 24.5671461,8.45798816 L24.6072031,8.45798816 C24.7044845,7.76673064 24.8575595,7.03271492 25.0649976,6.24453882 L25.884736,3.10466188 L27.3568315,3.10323661 L27.3568315,3.10323661 Z M35.1250323,9.82482519 L33.6257553,9.82482519 L33.6257553,5.96518527 C33.6257553,4.77650739 33.1679607,4.18074318 32.2652471,4.18074318 C31.3768396,4.18074318 30.7659701,4.94183908 30.7659701,5.82693376 L30.7659701,9.82482519 L29.266693,9.82482519 L29.266693,5.02450493 C29.266693,4.43016599 29.2523869,3.79306886 29.2108993,3.10181134 L30.5299198,3.10181134 L30.6000196,4.13941025 L30.6415072,4.13941025 C31.0449386,3.42107254 31.8632463,2.96498511 32.780266,2.96498511 C34.1965678,2.96498511 35.1264629,4.04391695 35.1264629,5.79985357 L35.1250323,9.82482519 L35.1250323,9.82482519 Z M39.2594891,9.82482519 L37.7587814,9.82482519 L37.7587814,0.0189453299 L39.2594891,0.0189453299 L39.2594891,9.82482519 Z M44.7258419,9.97732942 C42.7558948,9.97732942 41.4769314,8.51072327 41.4769314,6.51961656 C41.4769314,4.44441873 42.7816457,2.96498511 44.8359987,2.96498511 C46.7801948,2.96498511 48.0849103,4.36175288 48.0849103,6.40987052 C48.0863398,8.51072327 46.7387072,9.97732942 44.7258419,9.97732942 Z M44.7816356,4.05674441 C43.6986654,4.05674441 43.0048206,5.06583786 43.0048206,6.47685836 C43.0048206,7.86079867 43.7144021,8.86989212 44.7658989,8.86989212 C45.8216875,8.86989212 46.52841,7.79096028 46.52841,6.44835289 C46.5298384,5.08009059 45.8374242,4.05674441 44.7816356,4.05674441 L44.7816356,4.05674441 Z M53.996181,9.82482519 L53.8874548,9.05090182 L53.8473978,9.05090182 C53.3896033,9.67374623 52.7215094,9.97732942 51.8745895,9.97732942 C50.6657258,9.97732942 49.8073611,9.13356767 49.8073611,7.99905017 C49.8073611,6.34003213 51.2508445,5.48201764 53.7501164,5.48201764 L53.7501164,5.35801887 C53.7501164,4.47292419 53.2794464,4.02966421 52.3495513,4.02966421 C51.6843187,4.02966421 51.1006306,4.19642118 50.5870424,4.52850985 L50.2823229,3.54649659 C50.906068,3.15882227 51.6843187,2.96498511 52.5984771,2.96498511 C54.360986,2.96498511 55.2508241,3.89141271 55.2508241,5.74569319 L55.2508241,8.2213928 C55.2508241,8.89982286 55.2808669,9.42574868 55.3481055,9.82625046 L53.996181,9.82482519 L53.996181,9.82482519 Z M53.7901735,6.47685836 C52.1249459,6.47685836 51.2894709,6.87878541 51.2894709,7.83229321 C51.2894709,8.53780346 51.7200838,8.88271958 52.3180779,8.88271958 C53.080592,8.88271958 53.7901735,8.30263337 53.7901735,7.51445727 L53.7901735,6.47685836 L53.7901735,6.47685836 Z M62.5311877,9.82482519 L62.4610879,8.74589335 L62.4196003,8.74589335 C61.9889873,9.56114964 61.2650997,9.97732942 60.2536599,9.97732942 C58.6270587,9.97732942 57.4224869,8.55205619 57.4224869,6.54669675 C57.4224869,4.44441873 58.6714076,2.96355983 60.3766922,2.96355983 C61.2794058,2.96355983 61.9188875,3.26714303 62.2794007,3.87715998 L62.3094435,3.87715998 L62.3094435,0.0189453299 L63.8101511,0.0189453299 L63.8101511,8.01330291 C63.8101511,8.6632275 63.8258878,9.27181917 63.8659448,9.82482519 L62.5311877,9.82482519 Z M62.3094435,5.86969196 C62.3094435,4.92901163 61.6842678,4.12658279 60.7300523,4.12658279 C59.61847,4.12658279 58.9389313,5.10859605 58.9389313,6.49111109 C58.9389313,7.84654594 59.644221,8.77439881 60.7000096,8.77439881 C61.6427802,8.77439881 62.3094435,7.95771725 62.3094435,6.98995672 L62.3094435,5.86969196 Z M73.3251242,9.97732942 C71.3551771,9.97732942 70.0776443,8.51072327 70.0776443,6.51961656 C70.0776443,4.44441873 71.3823587,2.96498511 73.4367116,2.96498511 C75.3809077,2.96498511 76.6856233,4.36175288 76.6856233,6.40987052 C76.6870527,8.51072327 75.3408507,9.97732942 73.3251242,9.97732942 Z M73.3809179,4.05674441 C72.2993783,4.05674441 71.6055335,5.06583786 71.6055335,6.47685836 C71.6055335,7.86079867 72.3136844,8.86989212 73.3666118,8.86989212 C74.4224005,8.86989212 75.1291296,7.79096028 75.1291296,6.44835289 C75.131982,5.08009059 74.4381371,4.05674441 73.3809179,4.05674441 Z M84.7485282,9.82482519 L83.2478205,9.82482519 L83.2478205,5.96518527 C83.2478205,4.77650739 82.790026,4.18074318 81.8873124,4.18074318 C80.9989049,4.18074318 80.389466,4.94183908 80.389466,5.82693376 L80.389466,9.82482519 L78.8887583,9.82482519 L78.8887583,5.02450493 C78.8887583,4.43016599 78.8744522,3.79306886 78.8329646,3.10181134 L80.1519851,3.10181134 L80.2220848,4.13941025 L80.2635725,4.13941025 C80.6655733,3.42107254 81.4853116,2.96355983 82.4009007,2.96355983 C83.8172025,2.96355983 84.7485282,4.04249167 84.7485282,5.7984283 L84.7485282,9.82482519 Z M94.8357444,4.22350137 L93.1862535,4.22350137 L93.1862535,7.48737708 C93.1862535,8.31831138 93.4752363,8.73306589 94.0589244,8.73306589 C94.3235868,8.73306589 94.545331,8.70456043 94.724157,8.6632275 L94.7656447,9.797745 C94.4752313,9.90891631 94.0861059,9.96450197 93.6025604,9.96450197 C92.4208783,9.96450197 91.714158,9.31457737 91.714158,7.61280113 L91.714158,4.22350137 L90.7298998,4.22350137 L90.7298998,3.10323661 L91.714158,3.10323661 L91.714158,1.87180054 L93.1862535,1.42854056 L93.1862535,3.10181134 L94.8357444,3.10181134 L94.8357444,4.22350137 L94.8357444,4.22350137 Z M102.772757,9.82482519 L101.274911,9.82482519 L101.274911,5.99369073 C101.274911,4.79076012 100.818547,4.18216845 99.9144024,4.18216845 C99.1375824,4.18216845 98.4136948,4.70809427 98.4136948,5.77277338 L98.4136948,9.82482519 L96.9158483,9.82482519 L96.9158483,0.0189453299 L98.4136948,0.0189453299 L98.4136948,4.05674441 L98.4437375,4.05674441 C98.9158381,3.32415396 99.5996687,2.96355983 100.47234,2.96355983 C101.900086,2.96355983 102.772757,4.06957186 102.772757,5.82693376 L102.772757,9.82482519 L102.772757,9.82482519 Z M110.904332,6.82319975 L106.40507,6.82319975 C106.433683,8.09596875 107.279172,8.81430646 108.530954,8.81430646 C109.196186,8.81430646 109.808487,8.70313515 110.349256,8.49647053 L110.582445,9.53406945 C109.944394,9.81057246 109.193325,9.94882396 108.319224,9.94882396 C106.209077,9.94882396 104.960156,8.6204693 104.960156,6.56094948 C104.960156,4.50000438 106.23912,2.95073237 108.150412,2.95073237 C109.874295,2.95073237 110.955834,4.22350137 110.955834,6.14619497 C110.965529,6.37309709 110.948241,6.6003451 110.904332,6.82319975 L110.904332,6.82319975 Z M109.529518,5.75852065 C109.529518,4.72092173 109.004485,3.98833129 108.045978,3.98833129 C107.184752,3.98833129 106.503782,4.73517447 106.406501,5.75852065 L109.529518,5.75852065 L109.529518,5.75852065 Z" id="Shape"></path>
                </g>
            </g>
        </g>
    </g>
</svg>