<?xml version="1.0" encoding="UTF-8"?>
<svg width="191px" height="62px" viewBox="0 0 191 62" version="1.1" xmlns="http://www.w3.org/2000/svg" xmlns:xlink="http://www.w3.org/1999/xlink">
    <!-- Generator: Sketch 60.1 (88133) - https://sketch.com -->
    <title>google-play-download-android-app</title>
    <desc>Created with Sketch.</desc>
    <defs>
        <path d="M27.0229232,14.7577085 L18.4265332,9.80983837 C18.4265332,9.80983837 2.76572563,0.79442145 1.84503883,0.264518127 C0.924383089,-0.265385196 0.00708196721,0.0556782477 0.00708196721,1.16304985 L0.00708196721,40.0515189 C0.00708196721,40.881676 0.662691976,41.2395279 1.46258154,40.7794856 C2.26209836,40.3187002 18.4265332,31.0141775 18.4265332,31.0141775 L27.0225505,26.066648 C27.0225505,26.066648 34.3162312,21.8687002 35.2856842,21.3108958 C36.2551993,20.7523792 36.1620155,19.9868807 35.3438619,19.547679 C34.5260811,19.1080438 27.0229232,14.7577085 27.0229232,14.7577085 L27.0229232,14.7577085 Z" id="path-1"></path>
        <linearGradient x1="49.9998541%" y1="0.000147098194%" x2="49.9998541%" y2="100.000147%" id="linearGradient-3">
            <stop stop-color="#257CB0" offset="0%"></stop>
            <stop stop-color="#4A93B5" offset="28.6%"></stop>
            <stop stop-color="#78BCBB" offset="76.7%"></stop>
            <stop stop-color="#89CFBD" offset="100%"></stop>
        </linearGradient>
        <path d="M27.0229232,14.7577085 L18.4265332,9.80983837 C18.4265332,9.80983837 2.76572563,0.79442145 1.84503883,0.264518127 C0.924383089,-0.265385196 0.00708196721,0.0556782477 0.00708196721,1.16304985 L0.00708196721,40.0515189 C0.00708196721,40.881676 0.662691976,41.2395279 1.46258154,40.7794856 C2.26209836,40.3187002 18.4265332,31.0141775 18.4265332,31.0141775 L27.0225505,26.066648 C27.0225505,26.066648 34.3162312,21.8687002 35.2856842,21.3108958 C36.2551993,20.7523792 36.1620155,19.9868807 35.3438619,19.547679 C34.5260811,19.1080438 27.0229232,14.7577085 27.0229232,14.7577085 L27.0229232,14.7577085 Z" id="path-4"></path>
        <linearGradient x1="0.00126473415%" y1="49.9985397%" x2="100.001265%" y2="49.9985397%" id="linearGradient-6">
            <stop stop-color="#52C1AD" offset="0%"></stop>
            <stop stop-color="#DEE89A" offset="100%"></stop>
        </linearGradient>
        <path d="M27.0229232,14.7577085 L18.4265332,9.80983837 C18.4265332,9.80983837 2.76572563,0.79442145 1.84503883,0.264518127 C0.924383089,-0.265385196 0.00708196721,0.0556782477 0.00708196721,1.16304985 L0.00708196721,40.0515189 C0.00708196721,40.881676 0.662691976,41.2395279 1.46258154,40.7794856 C2.26209836,40.3187002 18.4265332,31.0141775 18.4265332,31.0141775 L27.0225505,26.066648 C27.0225505,26.066648 34.3162312,21.8687002 35.2856842,21.3108958 C36.2551993,20.7523792 36.1620155,19.9868807 35.3438619,19.547679 C34.5260811,19.1080438 27.0229232,14.7577085 27.0229232,14.7577085 L27.0229232,14.7577085 Z" id="path-7"></path>
        <linearGradient x1="49.999885%" y1="0.000292074841%" x2="49.999885%" y2="100.000292%" id="linearGradient-9">
            <stop stop-color="#EC413D" offset="0%"></stop>
            <stop stop-color="#DA4452" offset="16.7%"></stop>
            <stop stop-color="#B0487A" offset="57.5%"></stop>
            <stop stop-color="#954A92" offset="86.2%"></stop>
            <stop stop-color="#8A4A9D" offset="100%"></stop>
        </linearGradient>
        <path d="M27.0229232,14.7577085 L18.4265332,9.80983837 C18.4265332,9.80983837 2.76572563,0.79442145 1.84503883,0.264518127 C0.924383089,-0.265385196 0.00708196721,0.0556782477 0.00708196721,1.16304985 L0.00708196721,40.0515189 C0.00708196721,40.881676 0.662691976,41.2395279 1.46258154,40.7794856 C2.26209836,40.3187002 18.4265332,31.0141775 18.4265332,31.0141775 L27.0225505,26.066648 C27.0225505,26.066648 34.3162312,21.8687002 35.2856842,21.3108958 C36.2551993,20.7523792 36.1620155,19.9868807 35.3438619,19.547679 C34.5260811,19.1080438 27.0229232,14.7577085 27.0229232,14.7577085 L27.0229232,14.7577085 Z" id="path-10"></path>
        <linearGradient x1="50.0010991%" y1="0.000547669119%" x2="50.0010991%" y2="99.9972617%" id="linearGradient-12">
            <stop stop-color="#F58879" offset="0%"></stop>
            <stop stop-color="#F69079" offset="11.9%"></stop>
            <stop stop-color="#FCB877" offset="71.3%"></stop>
            <stop stop-color="#FEC874" offset="100%"></stop>
        </linearGradient>
    </defs>
    <g id="Symbols" stroke="none" stroke-width="1" fill="none" fill-rule="evenodd">
        <g id="Footer/Blue" transform="translate(-166.000000, -341.000000)">
            <g id="google-play-download-android-app" transform="translate(166.000000, 341.000000)">
                <path d="M191,53.6207303 C191,58.2476346 187.220524,62 182.558672,62 L8.44316356,62 C3.78093901,62 0,58.2480052 0,53.6207303 L0,8.37852861 C0,3.75199479 3.78093901,0 8.44316356,0 L182.558299,0 C187.22015,0 191,3.75199479 191,8.37852861 L191,53.6207303 L191,53.6207303 Z" id="Path" fill="#000000" fill-rule="nonzero"></path>
                <g id="Clipped" transform="translate(14.000000, 12.000000)">
                    <mask id="mask-2" fill="white">
                        <use xlink:href="#path-1"></use>
                    </mask>
                    <g id="a"></g>
                    <polygon id="Path" fill="url(#linearGradient-3)" fill-rule="nonzero" mask="url(#mask-2)" points="0.00745470233 -0.639587613 0.00745470233 41.4639441 21.3033028 20.412364"></polygon>
                </g>
                <g id="Clipped" transform="translate(14.000000, 12.000000)">
                    <mask id="mask-5" fill="white">
                        <use xlink:href="#path-4"></use>
                    </mask>
                    <g id="d"></g>
                    <polygon id="Path" fill="url(#linearGradient-6)" fill-rule="nonzero" mask="url(#mask-5)" points="27.0229232 14.7577085 18.4265332 9.80983837 0.00745470233 -0.792687311 0.00745470233 -0.639587613 21.3033028 20.412364"></polygon>
                </g>
                <g id="Clipped" transform="translate(14.000000, 12.000000)">
                    <mask id="mask-8" fill="white">
                        <use xlink:href="#path-7"></use>
                    </mask>
                    <g id="g"></g>
                    <polygon id="Path" fill="url(#linearGradient-9)" fill-rule="nonzero" mask="url(#mask-8)" points="0.00745470233 41.4639441 0.00745470233 41.6170438 18.4265332 31.0141465 27.0225505 26.0662764 21.3033028 20.412364"></polygon>
                </g>
                <g id="Clipped" transform="translate(14.000000, 12.000000)">
                    <mask id="mask-11" fill="white">
                        <use xlink:href="#path-10"></use>
                    </mask>
                    <g id="j"></g>
                    <polygon id="Path" fill="url(#linearGradient-12)" fill-rule="nonzero" mask="url(#mask-11)" points="27.0229232 14.7577085 21.3033028 20.412364 27.0225505 26.0662764 36.8466989 20.4119924"></polygon>
                </g>
                <path d="M148.809962,41.9255197 C148.007479,41.9255197 147.275297,41.7821908 146.612295,41.495895 C145.949293,41.2092372 145.392148,40.7683924 144.942263,40.1740843 L144.807675,40.1740843 C144.89739,40.8704599 144.942263,41.5306715 144.942263,42.1542667 L144.942263,47.0618329 L143.077032,47.0618329 L143.077032,29.7816551 L144.594496,29.7816551 L144.852517,31.4140117 L144.942263,31.4140117 C145.422376,30.7607071 145.981078,30.2898211 146.617873,29.999544 C147.25473,29.7092668 147.985759,29.5641282 148.809557,29.5641282 C150.44369,29.5641282 151.705002,30.104869 152.592744,31.1856266 C153.48086,32.2663842 153.925105,33.7829195 153.925105,35.7337847 C153.925105,37.6926127 153.473381,39.2138532 152.571056,40.2993161 C151.668013,41.3836629 150.414554,41.9255197 148.809962,41.9255197 L148.809962,41.9255197 Z M148.539975,31.0983986 C147.280906,31.0983986 146.370354,31.4360902 145.808317,32.1104175 C145.246279,32.7850465 144.957595,33.8589574 144.942263,35.3316978 L144.942263,35.7338149 C144.942263,37.4099363 145.230948,38.6086868 145.808317,39.3307905 C146.385685,40.0528941 147.31157,40.4129959 148.584848,40.4129959 C149.649839,40.4129959 150.483765,39.9964011 151.08731,39.1621257 C151.690107,38.3282123 151.991848,37.1783238 151.991848,35.7120984 C151.991848,34.2256042 151.690076,33.0840103 151.08731,32.2899104 C150.484107,31.4950866 149.634508,31.0983986 148.539975,31.0983986 L148.539975,31.0983986 Z M158.246429,41.7076308 L156.380419,41.7076308 L156.380419,24.7760028 L158.246429,24.7760028 L158.246429,41.7076308 Z M168.975993,41.7076308 L168.604667,40.0101549 L168.51492,40.0101549 C167.900126,40.7578961 167.287606,41.2642524 166.676614,41.5281078 C166.065964,41.793411 165.303119,41.9255498 164.389201,41.9255498 C163.167558,41.9255498 162.210231,41.620795 161.516566,41.0116171 C160.8229,40.4024996 160.476629,39.5359812 160.476629,38.4110667 C160.476629,36.0030693 162.466756,34.740617 166.446233,34.6240718 L168.538105,34.5585603 L168.538105,33.8187517 C168.538105,32.8827707 168.329787,32.1914623 167.913588,31.7459122 C167.498137,31.2992461 166.831769,31.0763202 165.918256,31.0763202 C164.891002,31.0763202 163.72919,31.381075 162.43307,31.9902228 L161.859472,30.6083297 C162.46713,30.2890972 163.131628,30.0390257 163.855583,29.8576628 C164.57879,29.6763301 165.303493,29.5855129 166.030813,29.5855129 C167.499695,29.5855129 168.588213,29.9007641 169.296868,30.5319902 C170.004743,31.1632164 170.358867,32.1751749 170.358867,33.5683183 L170.358867,41.707299 L168.976024,41.707299 L168.976024,41.7076308 L168.975993,41.7076308 Z M164.760153,40.4350442 C165.921247,40.4350442 166.83367,40.1266397 167.49742,39.5102834 C168.160079,38.8938667 168.492515,38.0303042 168.492515,36.9198673 L168.492515,35.8427291 L166.625414,35.9183749 C165.141606,35.9701326 164.07247,36.1923647 163.415856,36.5886908 C162.760333,36.983931 162.432354,37.5988698 162.432354,38.4331452 C162.432354,39.0857259 162.636153,39.5830336 163.045278,39.9232286 C163.453968,40.2645697 164.024979,40.4350442 164.760153,40.4350442 Z M171.442151,29.7816551 L173.442749,29.7816551 L176.141157,36.5828695 C176.73311,38.135599 177.100666,39.2562004 177.243512,39.9456689 L177.33329,39.9456689 C177.430858,39.5750407 177.635405,38.9427288 177.945778,38.0458677 C178.256899,37.1497003 179.274743,34.3956565 180.997906,29.7816551 L183,29.7816551 L177.704211,43.3620659 C177.179942,44.7041453 176.567079,45.6563835 175.86553,46.2195646 C175.165133,46.781298 174.304689,47.0618329 173.286441,47.0618329 C172.716551,47.0618329 172.154513,47.0003028 171.599207,46.8772427 L171.599207,45.43017 C172.011262,45.517036 172.472708,45.5608309 172.982425,45.5608309 C174.264303,45.5608309 175.177848,44.8644553 175.725675,43.4713722 L176.411114,41.7741979 L171.442151,29.7816551 L171.442151,29.7816551 Z M114.239218,30.8899203 C114.831576,31.3643956 116.068581,32.3611827 116.068581,34.2581488 C116.068581,36.1029651 114.986015,36.977778 113.903448,37.7997474 C113.568394,38.1236549 113.181737,38.4740144 113.181737,39.0234418 C113.181737,39.5710594 113.56802,39.8707772 113.852591,40.0955429 L114.780719,40.7926123 C115.914516,41.7159253 116.944357,42.5646784 116.944357,44.2864345 C116.944357,46.6310922 114.598983,49 110.167003,49 C106.429468,49 104.626312,47.2793296 104.626312,45.4323417 C104.626312,44.5347265 105.088101,43.2632256 106.610831,42.3891367 C108.20757,41.4412116 110.373825,41.3177896 111.533019,41.2410881 C111.171073,40.7926425 110.759735,40.318499 110.759735,39.5464775 C110.759735,39.1230059 110.889119,38.8732661 111.017413,38.5724927 C110.732811,38.5978286 110.449736,38.6228026 110.191746,38.6228026 C107.460804,38.6228026 105.914579,36.6520306 105.914579,34.7073183 C105.914579,33.5596015 106.456423,32.2866529 107.563296,31.3647877 C109.032863,30.192489 110.785163,29.9923051 112.178134,29.9923051 L117.48589,29.9923051 L115.836393,30.8902822 L114.239249,30.8902822 L114.239249,30.8899203 L114.239218,30.8899203 Z M112.408764,41.9660571 C112.202752,41.9399973 112.073337,41.9399973 111.816811,41.9399973 C111.584997,41.9399973 110.19131,41.9910311 109.110239,42.3410286 C108.543371,42.5390107 106.89347,43.1376621 106.89347,44.9097281 C106.89347,46.6799845 108.672725,47.9540491 111.430559,47.9540491 C113.903074,47.9540491 115.21895,46.8041606 115.21895,45.2590018 C115.21895,43.9842435 114.36826,43.3135657 112.408764,41.9660571 Z M113.156651,37.225708 C113.748604,36.6513067 113.799491,35.8539493 113.799491,35.4044179 C113.799491,33.6088256 112.691839,30.8149984 110.553287,30.8149984 C109.882401,30.8149984 109.161469,31.1389361 108.749009,31.6384155 C108.311464,32.162145 108.181331,32.8349944 108.181331,33.4843177 C108.181331,35.155402 109.186492,37.9246172 111.403978,37.9246172 C112.048314,37.9246172 112.742727,37.6252915 113.156651,37.225708 L113.156651,37.225708 Z M98.0142099,41.5668355 C93.9236407,41.5668355 91.7364757,38.4783879 91.7364757,35.688542 C91.7364757,32.4256083 94.4890746,29.6376024 98.4016466,29.6376024 C102.182185,29.6376024 104.549653,32.5005604 104.549653,35.5147799 C104.549996,38.4523281 102.209483,41.5668355 98.0142099,41.5668355 Z M101.230156,39.549735 C101.848659,38.7520157 102.003066,37.7563144 102.003066,36.7841694 C102.003066,34.591859 100.922369,30.4085681 97.7315085,30.4085681 C96.8826877,30.4085681 96.0338357,30.7328678 95.4164548,31.2569592 C94.412759,32.1273986 94.2318014,33.2237499 94.2318014,34.2958209 C94.2318014,36.7595574 95.4927081,40.8179784 98.6069105,40.8179784 C99.6102012,40.8179784 100.639637,40.3456446 101.230156,39.549735 L101.230156,39.549735 Z M84.0679829,41.5668355 C79.9766348,41.5668355 77.7890958,38.4783879 77.7890958,35.688542 C77.7890958,32.4256083 80.5427854,29.6376024 84.4542667,29.6376024 C88.2359584,29.6376024 90.6029903,32.5005604 90.6029903,35.5147799 C90.6033954,38.4523281 88.2625084,41.5668355 84.0679829,41.5668355 Z M87.2846459,39.549735 C87.9020268,38.7520157 88.0568394,37.7563144 88.0568394,36.7841694 C88.0568394,34.591859 86.9753633,30.4085681 83.7845025,30.4085681 C82.9360245,30.4085681 82.0864558,30.7328678 81.4694176,31.2569592 C80.465753,32.1273986 80.2858861,33.2237499 80.2858861,34.2958209 C80.2858861,36.7595574 81.5460761,40.8179784 84.6606836,40.8179784 C85.6643482,40.8179784 86.6930982,40.3456446 87.2846459,39.549735 L87.2846459,39.549735 Z M75.8236482,41.1763005 L72.123819,42.0026132 C70.6228093,42.2284648 69.2781393,42.4271707 67.8560317,42.4271707 C60.7152045,42.4271707 58,37.3440629 58,33.3627053 C58,28.5058411 61.8538628,24 68.4513499,24 C69.8487772,24 71.1927617,24.1997918 72.4084212,24.5255392 C74.3484407,25.0514705 75.2537893,25.7018494 75.8232743,26.0779369 L73.6753422,28.0559176 L72.7703986,28.2553474 L73.4169471,27.253493 C72.5378057,26.4279042 70.9324658,24.9008726 67.8810859,24.9008726 C63.7935083,24.9008726 60.7144878,27.9067976 60.7144878,32.2881007 C60.7144878,36.9940654 64.2332972,41.4260403 69.8715878,41.4260403 C71.5289058,41.4260403 72.3807805,41.1010469 73.1574303,40.7998813 L73.1574303,36.7696616 L69.2519632,36.9698153 L71.3206193,35.8919834 L76.8052502,35.8919834 L76.1332735,36.5177804 C75.9508202,36.66871 75.925766,36.7193819 75.8741617,36.9177258 C75.8472378,37.1435774 75.8229315,37.8703561 75.8229315,38.1204578 L75.8229315,41.1763307 L75.8236482,41.1763307 L75.8236482,41.1763005 Z" id="Shape" fill="#F9F9F9" fill-rule="nonzero"></path>
                <path d="M121.495507,39.7963852 C120.641294,39.7176335 120.462491,39.5612658 120.462491,38.5386286 L120.462491,23.7143654 C120.467727,23.6579519 120.471093,23.6000239 120.476298,23.5454719 C120.580675,22.6292254 120.839108,22.4721004 121.642052,22 L117.941022,22 L116,22.9431282 L117.97808,22.9431282 L117.97808,22.9548652 L117.976584,22.9453998 L117.976584,39.1156368 C117.976584,39.6385031 117.874482,39.7180121 117.278671,40.5028795 L121.858691,40.5028795 L122.816096,39.928143 C122.376648,39.8740012 121.936077,39.848634 121.495507,39.7963852 L121.495507,39.7963852 Z M132.023541,40.0371839 C131.741951,40.1935516 131.459208,40.3764223 131.177556,40.5055298 C130.328205,40.8955025 129.454949,41 128.68261,41 C127.862431,41 126.576623,40.9462368 125.265009,39.9849351 C123.44217,38.6832593 122.645553,36.4464377 122.645553,34.496164 C122.645553,30.4650579 125.882855,28.4883128 128.529271,28.4883128 C129.454544,28.4883128 130.406402,28.7219178 131.177182,29.2171768 C132.460777,30.0739493 132.794695,31.1924075 132.973498,31.7909651 L126.936815,34.2629692 L124.957987,34.4189267 C125.599395,37.7223362 127.809011,39.6456967 130.250818,39.6456967 C131.560936,39.6456967 132.512015,39.1784867 133.385302,38.7370225 L132.023541,40.0371839 L132.023541,40.0371839 Z M129.609036,32.2846781 C130.096357,32.1033218 130.353263,31.9465755 130.353263,31.5827272 C130.353263,30.5430524 129.197606,29.3458741 127.808949,29.3458741 C126.780047,29.3458741 124.854359,30.1527011 124.854359,32.9612933 C124.854359,33.4035148 124.90597,33.871482 124.932524,34.3413108 L129.609036,32.2846781 L129.609036,32.2846781 Z M134.503527,28.6662615 L134.503527,30.38252 L134.297485,30.38252 L134.297485,28.6662615 L133.736487,28.6662615 L133.736487,28.4882812 L135.064182,28.4882812 L135.064182,28.6662615 L134.503527,28.6662615 L134.503527,28.6662615 Z M136.814871,30.38252 L136.814871,28.6503597 L136.805521,28.6503597 L136.283418,30.38252 L136.122225,30.38252 L135.595635,28.6503597 L135.588871,28.6503597 L135.588871,30.38252 L135.401872,30.38252 L135.401872,28.4883128 L135.722389,28.4883128 L136.198863,30.0194289 L136.205595,30.0194289 L136.674964,28.4883128 L137,28.4883128 L137,30.38252 L136.814871,30.38252 L136.814871,30.38252 Z" id="Shape" fill="#F9F9F9" fill-rule="nonzero"></path>
                <path d="M64.0269369,17.8420211 L62.7582092,17.8420211 C62.7582092,17.6488942 62.6379051,17.1021776 62.3972971,16.2014631 L60.5657667,16.2014631 C60.3174398,17.0874787 60.1930764,17.6341613 60.1930764,17.8420211 L59,17.8420211 C59,17.7280708 59.3085097,16.7922423 59.9255291,15.0349439 C60.5425178,13.2776114 60.8510582,12.309493 60.8510582,12.1315073 L62.3496921,12.1315073 C62.3496921,12.2980946 62.6290484,13.2518884 63.18813,14.993297 C63.7472116,16.7347057 64.0269369,17.6840082 64.0269369,17.8420211 L64.0269369,17.8420211 Z M62.1954065,15.3636271 C61.7433746,13.8549166 61.5175278,13.039163 61.5175278,12.91623 L61.4540545,12.91623 C61.4540545,13.0301803 61.220089,13.845934 60.752527,15.3636271 L62.1954065,15.3636271 L62.1954065,15.3636271 Z M69.1387508,17.8420211 L68.1597123,17.8420211 C68.1597123,17.7219803 67.7962477,17.0891119 67.0695954,15.9430078 C66.308654,14.7352501 65.8750429,13.9096632 65.7695308,13.4650561 L65.7060575,13.4650561 C65.772114,14.1052399 65.8053576,14.6842123 65.8053576,15.2019735 C65.8053576,15.92426 65.8238091,16.8045594 65.8607122,17.8424634 L64.8853639,17.8424634 C64.9248194,16.9360327 64.9447779,15.940592 64.9447779,14.8557332 C64.9447779,13.7884655 64.9248502,12.8803675 64.8853639,12.1319496 L66.0625412,12.1319496 C66.0625412,12.2871045 66.3887644,12.9056822 67.0415798,13.9872746 C67.7364955,15.1362368 68.135756,15.9156856 68.2387463,16.3252127 L68.2981603,16.3252127 C68.2347178,15.6731541 68.2029504,15.0884314 68.2029504,14.5707383 C68.2029504,13.7786662 68.1844681,12.9652943 68.1475957,12.1319496 L69.1388123,12.1319496 C69.1015095,12.8570942 69.083427,13.7651582 69.083427,14.8557332 C69.0830272,15.9544403 69.1014787,16.9498809 69.1387508,17.8420211 L69.1387508,17.8420211 Z M74.8841906,14.78918 C74.8841906,15.6196325 74.6436133,16.3448112 74.1627355,16.9646138 C73.6815194,17.5848248 73.0076385,17.8943178 72.140816,17.8943178 C71.7496434,17.8943178 71.2104895,17.8767268 70.5233542,17.8416128 C70.5576433,16.9584893 70.5750185,15.9626063 70.5750185,14.8549166 C70.5750185,13.7908813 70.5576741,12.8828173 70.5233542,12.131099 L71.2171628,12.131099 C71.3307935,12.131099 71.4998096,12.1266077 71.7245801,12.1180333 C71.94892,12.109459 72.0957942,12.1049677 72.164434,12.1049677 C73.1184092,12.1049677 73.8099728,12.3683226 74.2398629,12.894624 C74.6694147,13.4209255 74.8841906,14.0521606 74.8841906,14.78918 L74.8841906,14.78918 Z M73.8021617,14.9777475 C73.8021617,14.4163321 73.6541803,13.9435182 73.3582177,13.5584893 C73.062255,13.174277 72.6101923,12.9820007 72.0023987,12.9820007 C71.888768,12.9820007 71.7330063,12.9950663 71.5344677,13.021606 C71.5606689,13.6066689 71.573954,14.2174889 71.573954,14.8548826 C71.573954,15.5538959 71.5872391,16.2467846 71.6134095,16.9339571 C71.7830078,16.971762 71.9555706,16.9909094 72.1285765,16.9911194 C72.6968838,16.9911194 73.1175789,16.7955767 73.3910614,16.4052059 C73.664544,16.014869 73.8021617,15.539163 73.8021617,14.9777475 L73.8021617,14.9777475 Z M80.1823651,17.8420211 L79.0088473,17.8420211 C78.7021827,16.8069752 78.4671409,16.1679823 78.3032912,15.9254508 C78.1394416,15.6825111 77.8752156,15.5612453 77.5106132,15.5612453 C77.3570964,15.5612453 77.2105604,15.5628785 77.0707285,15.5657366 C77.0707285,16.3174549 77.0825068,17.0760463 77.1065245,17.8420211 L76.0045987,17.8420211 C76.0388878,16.9588636 76.056263,15.9630146 76.056263,14.8552909 C76.056263,13.7912896 76.0389186,12.8831916 76.0045987,12.1315073 L76.6902271,12.1315073 C76.7695687,12.1315073 76.9352942,12.127016 77.1877113,12.1184416 C77.4401283,12.1098673 77.6733557,12.105342 77.8873936,12.105342 C79.1003977,12.105342 79.7070842,12.5642736 79.7070842,13.4825791 C79.7070842,14.2105818 79.3609334,14.7176931 78.6686317,15.0047295 L78.6686317,15.0704661 C78.9354409,15.1521266 79.1694064,15.3828173 79.3701591,15.7609051 C79.5705121,16.1394012 79.8413806,16.8331065 80.1823651,17.8420211 L80.1823651,17.8420211 Z M78.6959092,13.806737 C78.6959092,13.2249064 78.357508,12.933821 77.6810746,12.933821 C77.4327169,12.933821 77.2131129,12.9542361 77.0230928,12.9950663 C77.0522462,13.4482817 77.0666384,14.0390949 77.0666384,14.7670977 C77.2120673,14.7732222 77.3349545,14.7756724 77.4353002,14.7756724 C78.2755832,14.7760803 78.6959092,14.4531133 78.6959092,13.806737 L78.6959092,13.806737 Z M85.8646698,14.8813882 C85.8646698,15.7788704 85.6163121,16.5231711 85.1192584,17.1139843 C84.622174,17.7044233 84.0077378,18 83.2759498,18 C82.5781434,18 81.993937,17.7288874 81.5237918,17.1862538 C81.0532776,16.6440286 80.818205,15.9544403 80.818205,15.1186118 C80.818205,14.2211637 81.0665627,13.4768289 81.5636472,12.8860157 C82.0603625,12.2956108 82.6747987,12 83.406925,12 C84.1047622,12 84.6885996,12.270296 85.1591138,12.8112964 C85.629628,13.3523307 85.8646698,14.041953 85.8646698,14.8813882 L85.8646698,14.8813882 Z M84.7708934,15.0084042 C84.7708934,14.3971759 84.6295239,13.9014971 84.3468771,13.5213678 C84.0638305,13.1412385 83.7150964,12.951378 83.3003059,12.951378 C82.9142997,12.951378 82.5866004,13.1428717 82.317208,13.5258591 C82.0478155,13.9088465 81.9123812,14.3927186 81.9123812,14.9777816 C81.9123812,15.5857435 82.0544581,16.0806056 82.338581,16.4624022 C82.6227347,16.8441647 82.9707614,17.0348418 83.3833378,17.0348418 C83.7689749,17.0348418 84.0970433,16.8425315 84.3664357,16.4578768 C84.6358282,16.0736645 84.7708934,15.5902007 84.7708934,15.0084042 L84.7708934,15.0084042 Z M88.1061933,17.8420211 L86.9843398,17.8420211 C87.0186597,16.9355903 87.0360042,15.9401497 87.0360042,14.8552909 C87.0360042,13.7879891 87.0186905,12.8799251 86.9843398,12.1315073 L88.1061933,12.1315073 C88.0718735,12.8684927 88.054529,13.7761483 88.054529,14.8552909 C88.054529,15.9572984 88.0718735,16.9531473 88.1061933,17.8420211 Z M93.8520021,14.78918 C93.8520021,15.6196325 93.6113941,16.3448112 93.130547,16.9646138 C92.6493616,17.5848248 91.9754807,17.8943178 91.1086275,17.8943178 C90.7174549,17.8943178 90.178301,17.8767268 89.491135,17.8416128 C89.5254856,16.9584893 89.54283,15.9626063 89.54283,14.8549166 C89.54283,13.7908813 89.5255163,12.8828173 89.491135,12.131099 L90.1849435,12.131099 C90.298605,12.131099 90.4676211,12.1266077 90.6923608,12.1180333 C90.9167623,12.109459 91.0636058,12.1049677 91.1322762,12.1049677 C92.0862207,12.1049677 92.7777843,12.3683226 93.2076744,12.894624 C93.6372262,13.4209255 93.8520021,14.0521606 93.8520021,14.78918 L93.8520021,14.78918 Z M92.770004,14.9777475 C92.770004,14.4163321 92.6220226,13.9435182 92.3260292,13.5584893 C92.0300665,13.174277 91.5780346,12.9820007 90.9702102,12.9820007 C90.8565488,12.9820007 90.7008178,12.9950663 90.5022792,13.021606 C90.5284804,13.6066689 90.5417348,14.2174889 90.5417348,14.8548826 C90.5417348,15.5538959 90.5550506,16.2467846 90.5812211,16.9339571 C90.7508196,16.9717605 90.9233822,16.9909078 91.096388,16.9911194 C91.6646646,16.9911194 92.0853904,16.7955767 92.3588422,16.4052059 C92.6323555,16.014869 92.770004,15.539163 92.770004,14.9777475 Z M101.474701,17.8420211 L100.205974,17.8420211 C100.205974,17.6488942 100.08567,17.1021776 99.8446925,16.2014631 L98.0131928,16.2014631 C97.7648352,17.0874787 97.640441,17.6341613 97.640441,17.8420211 L96.4477644,17.8420211 C96.4477644,17.7280708 96.7562434,16.7922423 97.3732935,15.0349439 C97.9903129,13.2776114 98.2988226,12.309493 98.2988226,12.1315073 L99.7974565,12.1315073 C99.7974565,12.2980946 100.077182,13.2518884 100.635894,14.993297 C101.194607,16.7347057 101.474701,17.6840082 101.474701,17.8420211 Z M99.6432017,15.3636271 C99.191139,13.8549166 98.9648924,13.039163 98.9648924,12.91623 L98.9014191,12.91623 C98.9014191,13.0301803 98.6678226,13.845934 98.2002914,15.3636271 L99.6432017,15.3636271 L99.6432017,15.3636271 Z M106.098657,13.6267098 C106.098657,14.325723 105.863922,14.8418169 105.394884,15.1749915 C104.925846,15.508166 104.350527,15.6751276 103.668528,15.6751276 C103.544195,15.6751276 103.455997,15.6722695 103.402856,15.6665532 C103.402856,16.2165362 103.417218,16.9413066 103.446402,17.8420211 L102.332267,17.8420211 C102.366556,16.997244 102.383932,16.001361 102.383932,14.8552909 C102.383932,13.802688 102.366618,12.894624 102.332267,12.1315073 L103.021986,12.1315073 C103.119779,12.1315073 103.307216,12.127016 103.584758,12.1184416 C103.862299,12.1098673 104.102539,12.105342 104.306213,12.105342 C104.808095,12.105342 105.23248,12.231099 105.578631,12.4826131 C105.924812,12.7341613 106.098657,13.1151072 106.098657,13.6267098 L106.098657,13.6267098 Z M105.076072,13.8680163 C105.076072,13.2424634 104.700737,12.9293297 103.95016,12.9293297 C103.762323,12.9293297 103.564153,12.951344 103.355651,12.9950663 C103.384804,13.5479075 103.399197,14.1734263 103.399197,14.8724396 C103.465222,14.8785641 103.542012,14.8810143 103.629103,14.8810143 C104.593749,14.8813882 105.076072,14.5437564 105.076072,13.8680163 L105.076072,13.8680163 Z M110.853249,13.6267098 C110.853249,14.325723 110.618545,14.8418169 110.149876,15.1749915 C109.680838,15.508166 109.10515,15.6751276 108.423212,15.6751276 C108.298818,15.6751276 108.21065,15.6722695 108.157479,15.6665532 C108.157479,16.2165362 108.171902,16.9413066 108.201025,17.8420211 L107.086921,17.8420211 C107.121241,16.997244 107.138616,16.001361 107.138616,14.8552909 C107.138616,13.802688 107.121272,12.894624 107.086921,12.1315073 L107.776639,12.1315073 C107.874463,12.1315073 108.0619,12.127016 108.339411,12.1184416 C108.616922,12.1098673 108.857161,12.105342 109.060866,12.105342 C109.562717,12.105342 109.987134,12.231099 110.333284,12.4826131 C110.679405,12.7341613 110.853249,13.1151072 110.853249,13.6267098 L110.853249,13.6267098 Z M109.830665,13.8680163 C109.830665,13.2424634 109.45536,12.9293297 108.704782,12.9293297 C108.516946,12.9293297 108.318746,12.951344 108.110274,12.9950663 C108.139397,13.5479075 108.15382,14.1734263 108.15382,14.8724396 C108.219845,14.8785641 108.296634,14.8810143 108.383726,14.8810143 C109.348341,14.8813882 109.830665,14.5437564 109.830665,13.8680163 L109.830665,13.8680163 Z M118.626882,14.8813882 C118.626882,15.7788704 118.378524,16.5231711 117.881439,17.1139843 C117.384386,17.7047976 116.769919,18 116.038131,18 C115.340324,18 114.756118,17.7288874 114.286004,17.1862538 C113.815828,16.6440286 113.580417,15.9544403 113.580417,15.1186118 C113.580417,14.2211637 113.828774,13.4768289 114.325828,12.8860157 C114.822913,12.2952024 115.43738,12 116.169137,12 C116.866974,12 117.45115,12.270296 117.921295,12.8112964 C118.39144,13.3523307 118.626882,14.041953 118.626882,14.8813882 L118.626882,14.8813882 Z M117.532705,15.0084042 C117.532705,14.3971759 117.391336,13.9014971 117.108689,13.5213678 C116.826042,13.1412385 116.476908,12.951378 116.062149,12.951378 C115.676112,12.951378 115.348412,13.1428717 115.07902,13.5258591 C114.809627,13.9088465 114.674562,14.3927186 114.674562,14.9777816 C114.674562,15.5857435 114.81667,16.0806056 115.100793,16.4624022 C115.384916,16.8441647 115.732942,17.0348418 116.14515,17.0348418 C116.531156,17.0348418 116.858855,16.8425315 117.128248,16.4579109 C117.398009,16.0736645 117.532705,15.5902007 117.532705,15.0084042 L117.532705,15.0084042 Z M124,17.8420211 L123.020931,17.8420211 C123.020931,17.7219803 122.657774,17.0891119 121.930814,15.9430078 C121.169872,14.7352501 120.736231,13.9096632 120.630718,13.4650561 L120.567245,13.4650561 C120.633302,14.1052399 120.666545,14.6842123 120.666545,15.2019735 C120.666545,15.92426 120.684997,16.8045594 120.721931,17.8424634 L119.746552,17.8424634 C119.786038,16.9360327 119.805966,15.940592 119.805966,14.8557332 C119.805966,13.7884655 119.786099,12.8803675 119.746552,12.1319496 L120.92376,12.1319496 C120.92376,12.2871045 121.250352,12.9056822 121.902798,13.9872746 C122.598052,15.1362368 122.996974,15.9156856 123.099965,16.3252127 L123.159379,16.3252127 C123.095905,15.6731541 123.064169,15.0884314 123.064169,14.5707383 C123.064169,13.7786662 123.045717,12.9652943 123.008783,12.1319496 L124,12.1319496 C123.962728,12.8570942 123.944645,13.7651582 123.944645,14.8557332 C123.944615,15.9544403 123.963066,16.9498809 124,17.8420211 L124,17.8420211 Z" id="Shape" fill="#F9F9FA" fill-rule="nonzero"></path>
            </g>
        </g>
    </g>
</svg>