<?xml version="1.0" encoding="UTF-8"?>
<svg width="40px" height="40px" viewBox="0 0 40 40" version="1.1" xmlns="http://www.w3.org/2000/svg" xmlns:xlink="http://www.w3.org/1999/xlink">
    <!-- Generator: Sketch 60.1 (88133) - https://sketch.com -->
    <title>Shape</title>
    <desc>Created with Sketch.</desc>
    <g id="Symbols" stroke="none" stroke-width="1" fill="none" fill-rule="evenodd">
        <g id="Footer/Blue" transform="translate(-1116.000000, -107.000000)" fill="#FEFEFE">
            <g id="Social" transform="translate(1116.000000, 107.000000)">
                <g id="google-plus">
                    <path d="M20,0 C8.95967742,0 0,8.95967742 0,20 C0,31.0403226 8.95967742,40 20,40 C31.0403226,40 40,31.0403226 40,20 C40,8.95967742 31.0403226,0 20,0 Z M14.2983871,30 C8.75,30 4.2983871,25.5241935 4.2983871,20 C4.2983871,14.4758065 8.75,10 14.2983871,10 C16.8225806,10 19.1451613,10.8870968 20.9919355,12.6048387 L18.2822581,15.233871 C17.2177419,14.1935484 15.7580645,13.6935484 14.2983871,13.6935484 C10.8387097,13.6935484 8.07258065,16.5564516 8.07258065,19.9919355 C8.07258065,23.4274194 10.8306452,26.2903226 14.2983871,26.2903226 C16.9274194,26.2903226 19.5322581,24.75 19.9516129,21.9919355 L14.2983871,21.9919355 L14.2983871,18.5564516 L23.7258065,18.5564516 C23.8306452,19.1048387 23.8790323,19.6532258 23.8790323,20.2258065 C23.8790323,25.9354839 20.0483871,30 14.2983871,30 Z M32.8629032,21.4354839 L32.8629032,24.2983871 L30,24.2983871 L30,21.4354839 L27.1370968,21.4354839 L27.1370968,18.5725806 L30,18.5725806 L30,15.7096774 L32.8629032,15.7096774 L32.8629032,18.5725806 L35.7016129,18.5725806 L35.7016129,21.4354839 L32.8629032,21.4354839 Z" id="Shape"></path>
                </g>
            </g>
        </g>
    </g>
</svg>