<?xml version="1.0" encoding="UTF-8"?>
<svg width="40px" height="40px" viewBox="0 0 40 40" version="1.1" xmlns="http://www.w3.org/2000/svg" xmlns:xlink="http://www.w3.org/1999/xlink">
    <!-- Generator: Sketch 60.1 (88133) - https://sketch.com -->
    <title>Shape</title>
    <desc>Created with Sketch.</desc>
    <g id="Symbols" stroke="none" stroke-width="1" fill="none" fill-rule="evenodd">
        <g id="Footer/Blue" transform="translate(-1176.000000, -107.000000)" fill="#FEFEFE">
            <g id="Social" transform="translate(1116.000000, 107.000000)">
                <g id="telegram" transform="translate(60.000000, 0.000000)">
                    <path d="M20,0 C8.9516129,0 0,8.9516129 0,20 C0,31.0483871 8.9516129,40 20,40 C31.0483871,40 40,31.0483871 40,20 C40,8.9516129 31.0483871,0 20,0 Z M29.8225806,13.7016129 L26.5403226,29.1693548 C26.2983871,30.266129 25.6451613,30.5322581 24.733871,30.016129 L19.733871,26.3306452 L17.3225806,28.6532258 C17.0564516,28.9193548 16.8306452,29.1451613 16.3145161,29.1451613 L16.6693548,24.0564516 L25.9354839,15.6854839 C26.3387097,15.3306452 25.8467742,15.1290323 25.3145161,15.483871 L13.8629032,22.6935484 L8.92741935,21.1532258 C7.85483871,20.8145161 7.83064516,20.0806452 9.15322581,19.5645161 L28.4354839,12.1290323 C29.3306452,11.8064516 30.1129032,12.3467742 29.8225806,13.7016129 L29.8225806,13.7016129 Z" id="Shape"></path>
                </g>
            </g>
        </g>
    </g>
</svg>