<?xml version="1.0" encoding="UTF-8"?>
<svg width="201px" height="60px" viewBox="0 0 201 60" version="1.1" xmlns="http://www.w3.org/2000/svg" xmlns:xlink="http://www.w3.org/1999/xlink">
    <!-- Generator: Sketch 60.1 (88133) - https://sketch.com -->
    <title>download-on-the-app-store-apple copy</title>
    <desc>Created with Sketch.</desc>
    <defs>
        <linearGradient x1="49.9984472%" y1="100.265508%" x2="49.9984472%" y2="-260.382794%" id="linearGradient-1">
            <stop stop-color="#1A1A1A" stop-opacity="0.1" offset="0%"></stop>
            <stop stop-color="#212121" stop-opacity="0.151" offset="12.3%"></stop>
            <stop stop-color="#353535" stop-opacity="0.227" offset="30.8%"></stop>
            <stop stop-color="#575757" stop-opacity="0.318" offset="53.2%"></stop>
            <stop stop-color="#858585" stop-opacity="0.421" offset="78.3%"></stop>
            <stop stop-color="#B3B3B3" stop-opacity="0.51" offset="100%"></stop>
        </linearGradient>
    </defs>
    <g id="Symbols" stroke="none" stroke-width="1" fill="none" fill-rule="evenodd">
        <g id="App-download" transform="translate(0.000000, -304.000000)" fill-rule="nonzero">
            <g id="Appstore">
                <g transform="translate(0.000000, 261.000000)">
                    <g id="download-on-the-app-store-apple-copy" transform="translate(0.000000, 43.000000)">
                        <path d="M199.6875,53.3299771 C199.6875,54.8513737 199.08717,56.3103706 198.01874,57.3855988 C196.950311,58.4608271 195.501426,59.0640857 193.991227,59.0625 L7.57870122,59.0625 C4.432495,59.0658054 1.87910025,56.4995094 1.875,53.3299771 L1.875,7.61500341 C1.87909808,4.44426115 4.43129233,1.87582303 7.57870122,1.875 L193.989742,1.875 C195.500745,1.875 196.949839,2.47979633 198.01814,3.55629883 C199.086441,4.63280133 199.6875,6.0927975 199.6875,7.61500341 L199.6875,53.3299771 Z" id="Path" fill="#FFFFFF"></path>
                        <path d="M193.594811,60 L7.03167377,60 C3.15316697,59.9991797 0.00737973762,56.83023 0,52.9165521 L0,7.09095001 C0.00573762548,3.17537001 3.15128611,0.00330489714 7.03167377,0 L193.593324,0 C197.473034,0.00495373954 200.617627,3.17605474 200.625,7.09095001 L200.625,52.9165521 C200.627972,56.8236265 197.468254,60 193.594811,60 L193.594811,60 Z" id="Path" fill="#A6A6A6"></path>
                        <path d="M199.6875,53.3299771 C199.6875,54.8513737 199.08717,56.3103706 198.01874,57.3855988 C196.950311,58.4608271 195.501426,59.0640857 193.991227,59.0625 L7.57870122,59.0625 C4.432495,59.0658054 1.87910025,56.4995094 1.875,53.3299771 L1.875,7.61500341 C1.87909808,4.44426115 4.43129233,1.87582303 7.57870122,1.875 L193.989742,1.875 C195.500745,1.875 196.949839,2.47979633 198.01814,3.55629883 C199.086441,4.63280133 199.6875,6.0927975 199.6875,7.61500341 L199.6875,53.3299771 Z" id="Path" fill="#000000"></path>
                        <path d="M44.5899011,29.8159864 C44.5466759,24.9599903 48.5233992,22.5975324 48.7052434,22.4875455 C46.4530586,19.1683524 42.9622467,18.7148448 41.7355438,18.6786848 C38.8036792,18.3668042 35.9597556,20.4520349 34.4662486,20.4520349 C32.942931,20.4520349 30.6430494,18.7088182 28.1643047,18.7600449 C24.9745791,18.809765 21.9905461,20.6765286 20.3539485,23.5753609 C16.9764166,29.4860258 19.4954056,38.171976 22.7313375,42.9496253 C24.3500487,45.2909898 26.2415262,47.9020483 28.7172899,47.8101414 C31.1393946,47.7107012 32.0441439,46.2507384 34.9670653,46.2507384 C37.8631573,46.2507384 38.7127571,47.8101414 41.2377082,47.7513813 C43.8371855,47.7107012 45.473783,45.4009767 47.0358543,43.0400255 C48.9064644,40.3596603 49.6576895,37.7169618 49.6875,37.5813615 C49.627879,37.5602681 44.640579,35.6347444 44.5899011,29.8159864 Z M39.8202179,15.535772 C41.1229377,13.8889821 42.0142722,11.6485644 41.7668449,9.375 C39.8813295,9.4593735 37.5233174,10.6933359 36.1654482,12.3039657 C34.9640843,13.7232485 33.8909056,16.0495463 34.1681434,18.2372306 C36.2861808,18.3969375 38.4608582,17.1569485 39.8202179,15.535772 L39.8202179,15.535772 Z" id="Shape" fill="#FFFFFF"></path>
                        <path d="M193.59895,0 L93.75,0 L132.859053,60 L193.59895,60 C197.475076,59.9966989 200.617631,56.8264587 200.625,52.9120508 L200.625,7.09095001 C200.61845,3.17571246 197.475896,0.00412965094 193.59895,0 Z" id="Path" fill="url(#linearGradient-1)"></path>
                        <g id="Group" transform="translate(63.750000, 27.187500)" fill="#FFFFFF">
                            <path d="M16.7494988,19.9977463 L13.3795081,19.9977463 L11.5335071,14.2212055 L5.11702109,14.2212055 L3.35857152,19.9977463 L0.0776162652,19.9977463 L6.43622924,0.331794742 L10.3626913,0.331794742 L16.7494988,19.9977463 L16.7494988,19.9977463 Z M10.9770357,11.7976888 L9.30762156,6.66249331 C9.13103465,6.1378906 8.79863574,4.90248818 8.31190877,2.95776378 L8.25255183,2.95776378 C8.0566739,3.7941726 7.743566,5.02957503 7.31471206,6.66249331 L5.67349247,11.7976888 L10.9770357,11.7976888 Z M33.0696915,12.7331072 C33.0696915,15.1448018 32.4123133,17.0511046 31.096073,18.4505378 C29.9178376,19.6962845 28.4532049,20.318419 26.7066267,20.318419 C24.8205597,20.318419 23.4642535,19.6489963 22.6406758,18.3071956 L22.6406758,25.7476875 L19.4769506,25.7476875 L19.4769506,10.4780544 C19.4769506,8.96335644 19.4368846,7.41023688 19.3597206,5.81721796 L22.1420775,5.81721796 L22.3186644,8.06488195 L22.3780213,8.06488195 C23.4330911,6.37137575 25.0342447,5.52462265 27.1829662,5.52462265 C28.8627678,5.52462265 30.2650757,6.18517874 31.386922,7.50776866 C32.5072844,8.83331408 33.0696915,10.5741084 33.0696915,12.7331072 Z M29.8466092,12.848372 C29.8466092,11.4681496 29.5349853,10.330279 28.9087695,9.43328225 C28.2246807,8.50081941 27.3061319,8.03384912 26.1546071,8.03384912 C25.3740633,8.03384912 24.6647477,8.29393384 24.0311123,8.80671451 C23.395993,9.32392845 22.9804944,9.99926207 22.7861004,10.8356709 C22.699319,11.1484695 22.6500067,11.4703947 22.6391919,11.7947333 L22.6391919,14.1606176 C22.6391919,15.1906122 22.9567516,16.0610094 23.5918709,16.7732869 C24.2269903,17.4826088 25.0520518,17.8387476 26.0670556,17.8387476 C27.2586463,17.8387476 28.1860986,17.379166 28.8494125,16.4673918 C29.5142103,15.552662 29.8466092,14.3468146 29.8466092,12.848372 L29.8466092,12.848372 Z M49.4477571,12.7331072 C49.4477571,15.1448018 48.790379,17.0511046 47.4741387,18.4505378 C46.2944193,19.6962845 44.8312706,20.318419 43.0832085,20.318419 C41.1971415,20.318419 39.8408352,19.6489963 39.0172576,18.3071956 L39.0172576,25.7476875 L35.8535323,25.7476875 L35.8535323,10.4780544 C35.8535323,8.96335644 35.8134664,7.41023688 35.7363023,5.81721796 L38.5186592,5.81721796 L38.6952462,8.06488195 L38.7546031,8.06488195 C39.8081889,6.37137575 41.4093426,5.52462265 43.559548,5.52462265 C45.2378657,5.52462265 46.6401735,6.18517874 47.7649877,7.50776866 C48.8838661,8.83331408 49.4477571,10.5741084 49.4477571,12.7331072 L49.4477571,12.7331072 Z M46.223191,12.848372 C46.223191,11.4681496 45.9100831,10.330279 45.2838673,9.43328225 C44.5997785,8.50081941 43.6841976,8.03384912 42.5326728,8.03384912 C41.7521289,8.03384912 41.0428134,8.29393384 40.4062102,8.80671451 C39.7710908,9.32392845 39.3570761,9.99926207 39.1626821,10.8356709 C39.0662271,11.225798 39.0142897,11.5435151 39.0142897,11.7947333 L39.0142897,14.1606176 C39.0142897,15.1906122 39.3333333,16.0610094 39.9654848,16.7732869 C40.6006042,17.4811311 41.4256657,17.8387476 42.4436374,17.8387476 C43.636712,17.8387476 44.5641643,17.379166 45.2259943,16.4673918 C45.8907921,15.552662 46.223191,14.3468146 46.223191,12.848372 L46.223191,12.848372 Z M67.7593754,14.4812903 C67.7593754,16.1555857 67.1717416,17.5165972 66.0038937,18.5672803 C64.7188158,19.7140175 62.924752,20.2888639 60.6246703,20.2888639 C58.4996916,20.2888639 56.7961472,19.8810037 55.5110693,19.0638057 L56.2426437,16.4378367 C57.6301123,17.2565125 59.1541019,17.6643726 60.8131286,17.6643726 C62.0062033,17.6643726 62.9336556,17.3954213 63.5954855,16.8619521 C64.2587994,16.3270051 64.5941662,15.6117721 64.5941662,14.7192087 C64.5941662,13.9197437 64.3166724,13.2503211 63.7720724,12.7050298 C63.2245046,12.1612163 62.3193112,11.6543467 61.0475886,11.1888541 C57.5900464,9.90468581 55.8597914,8.02646034 55.8597914,5.55565549 C55.8597914,3.94194801 56.4711679,2.62083584 57.6909532,1.58788573 C58.9107385,0.556413366 60.5282153,0.0406771844 62.5404158,0.0406771844 C64.3374474,0.0406771844 65.8347264,0.3524833 67.0233492,0.974617776 L66.2294501,3.5429544 C65.1105716,2.94003073 63.8477526,2.63856889 62.4350572,2.63856889 C61.3191466,2.63856889 60.4436316,2.9119534 59.8174158,3.45576691 C59.2906229,3.94194801 59.0235167,4.5345274 59.0235167,5.23793836 C59.0235167,6.01375926 59.327721,6.65806005 59.9331619,7.16345195 C60.4584709,7.62894449 61.4170856,8.13581415 62.8030703,8.67962766 C64.5036468,9.36235005 65.7531106,10.1573818 66.5529454,11.0706338 C67.358716,11.9838858 67.7593754,13.1232342 67.7593754,14.4812903 Z M78.246264,8.18162453 L74.7590434,8.18162453 L74.7590434,15.0664809 C74.7590434,16.8176195 75.3733878,17.6909722 76.6050444,17.6909722 C77.1704194,17.6909722 77.6393392,17.643684 78.0103202,17.5446745 L78.0978717,19.9371584 C77.4746237,20.1691658 76.6540139,20.2859084 75.6375262,20.2859084 C74.3880625,20.2859084 73.4116407,19.9061256 72.7067769,19.14656 C72.004881,18.3869943 71.6517072,17.1146481 71.6517072,15.3236101 L71.6517072,8.17571351 L69.574214,8.17571351 L69.574214,5.81130695 L71.6517072,5.81130695 L71.6517072,3.21489299 L74.7590434,2.2809524 L74.7590434,5.81130695 L78.246264,5.81130695 L78.246264,8.18162453 L78.246264,8.18162453 Z M93.9491444,12.7907396 C93.9491444,14.9704269 93.3229286,16.7599871 92.0734649,18.1594202 C90.7661281,19.6002305 89.0269696,20.318419 86.8589571,20.318419 C84.7666247,20.318419 83.1031462,19.6283078 81.862586,18.2495632 C80.6220258,16.8678631 80.0017457,15.1270688 80.0017457,13.0271802 C80.0017457,10.8297599 80.6428008,9.02985538 81.9204591,7.63042225 C83.2010852,6.22951136 84.9254045,5.52905591 87.093417,5.52905591 C89.1827816,5.52905591 90.8610992,6.22064483 92.1313379,7.60086716 C93.3451875,8.93971238 93.9491444,10.6686847 93.9491444,12.7907396 Z M90.6696731,12.8631495 C90.6696731,11.5642037 90.3877276,10.4499771 89.8223527,9.51751423 C89.1590388,8.39146561 88.2093276,7.8284413 86.9791549,7.8284413 C85.7118841,7.8284413 84.7399141,8.39146561 84.0780841,9.51751423 C83.5112253,10.4499771 83.2292798,11.5834145 83.2292798,12.9222597 C83.2292798,14.2226833 83.5112253,15.3398654 84.0780841,16.2693727 C84.7621729,17.3954213 85.7163358,17.9584457 86.9524443,17.9584457 C88.1618421,17.9584457 89.1100693,17.3835993 89.795642,16.2412954 C90.3773401,15.2866662 90.6696731,14.1650509 90.6696731,12.8631495 Z M104.237187,8.5880069 C103.908137,8.52884805 103.574359,8.49966495 103.239991,8.50081941 C102.127048,8.50081941 101.266372,8.91754607 100.660931,9.7569104 C100.135622,10.4957874 99.8714838,11.429728 99.8714838,12.5572544 L99.8714838,19.9977463 L96.7077586,19.9977463 L96.7077586,10.2829909 C96.71058,8.79439492 96.6799045,7.30592293 96.6157553,5.81869572 L99.3714016,5.81869572 L99.4871476,8.53185225 L99.5746991,8.53185225 C99.9100659,7.59938941 100.435375,6.84721257 101.156562,6.28418826 C101.81669,5.79221099 102.618767,5.52579086 103.443288,5.52462265 C103.735621,5.52462265 103.99976,5.54531121 104.234219,5.58225506 L104.237187,8.5880069 L104.237187,8.5880069 Z M118.3864,12.2365818 C118.394422,12.7155214 118.355658,13.1941029 118.270654,13.66557 L108.779478,13.66557 C108.815092,15.0664809 109.275108,16.1393304 110.156559,16.8782074 C110.956394,17.5372857 111.990689,17.8683027 113.260927,17.8683027 C114.666203,17.8683027 115.948313,17.6466395 117.101322,17.19888 L117.596952,19.3844784 C116.24955,19.969669 114.658783,20.2607865 112.82317,20.2607865 C110.615091,20.2607865 108.881868,19.6135302 107.620533,18.3219732 C106.362166,17.0289383 105.731498,15.2910995 105.731498,13.1143677 C105.731498,10.9775353 106.317648,9.19684159 107.491432,7.7767199 C108.720121,6.26054419 110.380631,5.50245634 112.469996,5.50245634 C114.522262,5.50245634 116.07593,6.26054419 117.131,7.7767199 C117.966449,8.97813399 118.3864,10.4677101 118.3864,12.2365818 L118.3864,12.2365818 Z M115.369583,11.4193838 C115.391842,10.4839654 115.184092,9.67858943 114.755238,8.99734479 C114.207671,8.11955885 113.364802,7.68214364 112.235536,7.68214364 C111.201241,7.68214364 110.358372,8.10921457 109.717317,8.96631195 C109.190525,9.64755659 108.877417,10.4662324 108.780962,11.4164283 L115.369583,11.4193838 Z" id="Shape"></path>
                        </g>
                        <g id="Group" transform="translate(64.687500, 10.312500)" fill="#FFFFFF">
                            <path d="M2.33628387,10.0861117 C1.45019723,10.0861117 0.683650112,10.0440336 0.0456079666,9.97293606 L0.0456079666,0.6373998 C0.937983264,0.503540815 1.83976196,0.43756293 2.74271821,0.439999252 C6.39614454,0.439999252 8.07866318,2.18558401 8.07866318,5.03093474 C8.07866318,8.31302722 6.09131879,10.0861117 2.33628387,10.0861117 Z M2.87122318,1.63711763 C2.3781227,1.63711763 1.95824016,1.66613701 1.61008133,1.73578354 L1.61008133,8.83247422 C1.79835606,8.86149361 2.15996309,8.87455233 2.66800601,8.87455233 C5.06178474,8.87455233 6.42453518,7.55126836 6.42453518,5.07301285 C6.42453518,2.86318666 5.19178396,1.63711763 2.87122318,1.63711763 L2.87122318,1.63711763 Z M13.321965,10.1572092 C11.2628969,10.1572092 9.92853712,8.66416179 9.92853712,6.63715772 C9.92853712,4.52454647 11.2912876,3.01844037 13.438516,3.01844037 C15.4676993,3.01844037 16.8319439,4.44039025 16.8319439,6.52543309 C16.8319439,8.66416179 15.4258604,10.1572092 13.321965,10.1572092 Z M13.3817348,4.12988283 C12.2505921,4.12988283 11.5258839,5.15716907 11.5258839,6.59362864 C11.5258839,8.0025198 12.2655346,9.02980604 13.3667923,9.02980604 C14.4680501,9.02980604 15.2077008,7.93142231 15.2077008,6.56460926 C15.2077008,5.17167876 14.4829925,4.12988283 13.3817348,4.12988283 Z M28.5737125,3.15918439 L26.3697028,10.0019555 L24.9337344,10.0019555 L24.0207513,7.03037039 C23.7937441,6.30350073 23.60473,5.56595043 23.4544329,4.8205442 L23.424548,4.8205442 C23.3094913,5.5663424 23.0913316,6.31359157 22.8597238,7.03037039 L21.8884653,10.0019555 L20.4375545,10.0019555 L18.3635439,3.15918439 L19.9728446,3.15918439 L20.7707709,6.41225748 C20.9590456,7.18707507 21.1174355,7.91836358 21.2489289,8.60902495 L21.2788138,8.60902495 C21.3938706,8.03299015 21.5821453,7.3133094 21.8585804,6.42676718 L22.8597238,3.16063536 L24.1358081,3.16063536 L25.0936185,6.35712065 C25.3252263,7.13193824 25.513501,7.89224614 25.6599369,8.61047592 L25.7017757,8.61047592 C25.8033843,7.90675583 25.9632684,7.15950666 26.1799338,6.35712065 L27.0361355,3.16063536 L28.5737125,3.15918439 L28.5737125,3.15918439 Z M36.6874569,10.0019555 L35.1214893,10.0019555 L35.1214893,6.07273067 C35.1214893,4.86262231 34.6433312,4.25611715 33.7004633,4.25611715 C32.7725379,4.25611715 32.1344957,5.03093474 32.1344957,5.93198666 L32.1344957,10.0019555 L30.5685281,10.0019555 L30.5685281,5.11509096 C30.5685281,4.51003677 30.5535857,3.86145351 30.5102526,3.15773342 L31.8879455,3.15773342 L31.9611634,4.21403904 L32.0044965,4.21403904 C32.4258733,3.48275053 33.2805808,3.01844037 34.2383911,3.01844037 C35.7176926,3.01844037 36.6889511,4.1168241 36.6889511,5.90441824 L36.6874569,10.0019555 L36.6874569,10.0019555 Z M41.0058218,10.0019555 L39.4383599,10.0019555 L39.4383599,0.0192868923 L41.0058218,0.0192868923 L41.0058218,10.0019555 Z M46.7153277,10.1572092 C44.6577539,10.1572092 43.3218998,8.66416179 43.3218998,6.63715772 C43.3218998,4.52454647 44.6846502,3.01844037 46.8303845,3.01844037 C48.8610619,3.01844037 50.2238136,4.44039025 50.2238136,6.52543309 C50.2253066,8.66416179 48.8177289,10.1572092 46.7153277,10.1572092 Z M46.7736032,4.12988283 C45.6424606,4.12988283 44.9177523,5.15716907 44.9177523,6.59362864 C44.9177523,8.0025198 45.6588973,9.02980604 46.7571665,9.02980604 C47.8599185,9.02980604 48.5980773,7.93142231 48.5980773,6.56460926 C48.5995693,5.17167876 47.8763552,4.12988283 46.7736032,4.12988283 L46.7736032,4.12988283 Z M56.3980282,10.0019555 L56.2844656,9.21407914 L56.2426268,9.21407914 C55.7644688,9.84815271 55.0666569,10.1572092 54.1820645,10.1572092 C52.9194284,10.1572092 52.022882,9.29823536 52.022882,8.14326382 C52.022882,6.45433559 53.5305741,5.58085209 56.1410182,5.58085209 L56.1410182,5.45461777 C56.1410182,4.55356585 55.649412,4.10231441 54.6781535,4.10231441 C53.98333,4.10231441 53.3736785,4.27207781 52.837245,4.61015365 L52.518971,3.61043583 C53.1704614,3.21577219 53.98333,3.01844037 54.9381519,3.01844037 C56.7790604,3.01844037 57.7084801,3.96157039 57.7084801,5.84928141 L57.7084801,8.36961502 C57.7084801,9.0602764 57.7398592,9.59568406 57.8100887,10.0034064 L56.3980282,10.0019555 L56.3980282,10.0019555 Z M56.1828571,6.59362864 C54.4435572,6.59362864 53.5709187,7.00280198 53.5709187,7.97350041 C53.5709187,8.6917302 54.0206861,9.04286476 54.6452801,9.04286476 C55.4417121,9.04286476 56.1828571,8.45232027 56.1828571,7.64993427 L56.1828571,6.59362864 L56.1828571,6.59362864 Z M65.3126873,10.0019555 L65.2394693,8.90357172 L65.1961363,8.90357172 C64.7463689,9.73352614 63.9902814,10.1572092 62.933851,10.1572092 C61.2348957,10.1572092 59.9767423,8.70623989 59.9767423,6.66472614 C59.9767423,4.52454647 61.2812172,3.0169894 63.062356,3.0169894 C64.0052239,3.0169894 64.6731509,3.32604585 65.0497004,3.9470607 L65.0810795,3.9470607 L65.0810795,0.0192868923 L66.6485413,0.0192868923 L66.6485413,8.15777351 C66.6485413,8.8194155 66.664978,9.43897937 66.7068169,10.0019555 L65.3126873,10.0019555 Z M65.0810795,5.97551573 C65.0810795,5.01787602 64.4280949,4.20098032 63.4314342,4.20098032 C62.2704067,4.20098032 61.5606409,5.20069815 61.5606409,6.60813833 C61.5606409,7.98801011 62.2973031,8.9325911 63.4000551,8.9325911 C64.3847618,8.9325911 65.0810795,8.10118571 65.0810795,7.11597758 L65.0810795,5.97551573 Z M76.5867575,10.1572092 C74.5291837,10.1572092 73.1948239,8.66416179 73.1948239,6.63715772 C73.1948239,4.52454647 74.5575743,3.01844037 76.7033085,3.01844037 C78.733986,3.01844037 80.0967376,4.44039025 80.0967376,6.52543309 C80.0982307,8.66416179 78.6921472,10.1572092 76.5867575,10.1572092 Z M76.645033,4.12988283 C75.5153846,4.12988283 74.7906764,5.15716907 74.7906764,6.59362864 C74.7906764,8.0025198 75.5303271,9.02980604 76.6300906,9.02980604 C77.7328426,9.02980604 78.4710083,7.93142231 78.4710083,6.56460926 C78.4739876,5.17167876 77.7492793,4.12988283 76.645033,4.12988283 Z M88.5182951,10.0019555 L86.9508332,10.0019555 L86.9508332,6.07273067 C86.9508332,4.86262231 86.4726752,4.25611715 85.5298073,4.25611715 C84.6018818,4.25611715 83.9653339,5.03093474 83.9653339,5.93198666 L83.9653339,10.0019555 L82.3978721,10.0019555 L82.3978721,5.11509096 C82.3978721,4.51003677 82.3829296,3.86145351 82.3395965,3.15773342 L83.7172894,3.15773342 L83.7905074,4.21403904 L83.8338404,4.21403904 C84.253723,3.48275053 85.1099247,3.0169894 86.0662408,3.0169894 C87.5455423,3.0169894 88.5182951,4.11537313 88.5182951,5.90296727 L88.5182951,10.0019555 Z M99.0542088,4.29964623 L97.3313456,4.29964623 L97.3313456,7.62236585 C97.3313456,8.46828093 97.6331829,8.89051299 98.2428344,8.89051299 C98.5192695,8.89051299 98.7508773,8.86149361 98.9376578,8.8194155 L98.9809909,9.97438703 C98.6776593,10.0875626 98.271225,10.1441504 97.7661706,10.1441504 C96.5319251,10.1441504 95.7937686,9.48250845 95.7937686,7.75005115 L95.7937686,4.29964623 L94.7657288,4.29964623 L94.7657288,3.15918439 L95.7937686,3.15918439 L95.7937686,1.90554694 L97.3313456,1.4542955 L97.3313456,3.15773342 L99.0542088,3.15773342 L99.0542088,4.29964623 L99.0542088,4.29964623 Z M107.344274,10.0019555 L105.779801,10.0019555 L105.779801,6.10175006 C105.779801,4.877132 105.303137,4.25756812 104.358775,4.25756812 C103.5474,4.25756812 102.791313,4.79297578 102.791313,5.87684982 L102.791313,10.0019555 L101.226839,10.0019555 L101.226839,0.0192868923 L102.791313,0.0192868923 L102.791313,4.12988283 L102.822692,4.12988283 C103.315792,3.38408462 104.030041,3.0169894 104.94153,3.0169894 C106.432785,3.0169894 107.344274,4.14294155 107.344274,5.93198666 L107.344274,10.0019555 L107.344274,10.0019555 Z M115.837556,6.94621417 L111.138159,6.94621417 C111.168044,8.24192973 112.051142,8.97321824 113.358606,8.97321824 C114.053429,8.97321824 114.692965,8.86004264 115.25779,8.64965209 L115.501351,9.70595772 C114.834919,9.98744576 114.050441,10.1281898 113.137458,10.1281898 C110.933448,10.1281898 109.628973,8.77588642 109.628973,6.67923583 C109.628973,4.58113427 110.964827,3.00393067 112.961137,3.00393067 C114.761701,3.00393067 115.891349,4.29964623 115.891349,6.25700377 C115.901475,6.48799668 115.883419,6.7193417 115.837556,6.94621417 L115.837556,6.94621417 Z M114.401588,5.86234013 C114.401588,4.8060345 113.8532,4.0602363 112.852057,4.0602363 C111.952522,4.0602363 111.241262,4.8205442 111.139653,5.86234013 L114.401588,5.86234013 L114.401588,5.86234013 Z" id="Shape"></path>
                        </g>
                    </g>
                </g>
            </g>
        </g>
    </g>
</svg>