<?xml version="1.0" encoding="UTF-8"?>
<svg width="30px" height="23px" viewBox="0 0 30 23" version="1.1" xmlns="http://www.w3.org/2000/svg" xmlns:xlink="http://www.w3.org/1999/xlink">
    <!-- Generator: Sketch 60.1 (88133) - https://sketch.com -->
    <title>Shape</title>
    <desc>Created with Sketch.</desc>
    <g id="Symbols" stroke="none" stroke-width="1" fill="none" fill-rule="evenodd">
        <g id="Footer/Blue-Copy" transform="translate(-369.000000, -34.000000)" fill="rgba(33, 38, 64, 1)">
            <g id="Почта" transform="translate(369.000000, 20.000000)">
                <path d="M23.7499805,22.7816797 L23.7499805,16.5000195 C23.7499805,15.12125 22.6287891,14 21.2499609,14 L2.49996094,14 C1.12119141,14 0,15.1211914 0,16.5000195 L0,29 C0,30.3787695 1.12119141,31.5000195 2.50001953,31.5000195 L16.5165234,31.5000195 C17.3354297,34.38125 19.9847461,36.5 23.1250195,36.5 C24.3335156,36.5 25.5218555,36.1820117 26.563125,35.5796094 C26.8616016,35.406875 26.9641406,35.0247852 26.7907617,34.7257227 C26.6180273,34.4266602 26.2353516,34.3234766 25.936875,34.4980859 C25.0860352,34.9900391 24.1137305,35.2500195 23.1249609,35.2500195 C20.023125,35.2500195 17.4999609,32.7267969 17.4999609,29.6250195 C17.4999609,26.5232422 20.0231836,24.0000195 23.1249609,24.0000195 C26.2267383,24.0000195 28.7499609,26.5232422 28.7499609,29.6250195 L28.7499609,30.2500391 C28.7499609,30.9391016 28.189043,31.5000195 27.4999805,31.5000195 C26.810918,31.5000195 26.25,30.9391016 26.25,30.2500391 L26.25,27.7500195 C26.25,27.4045508 25.9704492,27.125 25.6249805,27.125 C25.456875,27.125 25.3058203,27.1930273 25.1936133,27.3007813 C24.6411914,26.8085352 23.9213086,26.4999805 23.1249609,26.4999805 C21.4019531,26.4999805 19.9999805,27.9019531 19.9999805,29.6249609 C19.9999805,31.3479687 21.4019531,32.75 23.1250195,32.75 C24.0564258,32.75 24.8845898,32.332168 25.4576367,31.6834766 C25.9103906,32.3266602 26.655293,32.75 27.5000391,32.75 C28.8788086,32.75 30,31.6288086 30,30.2499805 L30,29.6249609 C30,26.0450586 27.2486719,23.0989062 23.7499805,22.7816797 Z M2.50001953,15.2499805 L21.2500195,15.2499805 C21.2760352,15.2499805 21.297832,15.2632813 21.3234961,15.2648633 L12.3889453,22.5986328 C12.070957,22.7988477 11.6101172,22.7573047 11.4032227,22.6303906 L2.42730469,15.2647461 C2.45267578,15.2632227 2.47423828,15.2499805 2.50001953,15.2499805 Z M22.5000586,22.7816797 C19.0013086,23.0989062 16.2499805,26.0450586 16.2499805,29.6250195 C16.2499805,29.835957 16.2629297,30.0438477 16.2816211,30.2500391 L2.50001953,30.2500391 C1.81095703,30.2500391 1.25003906,29.6891211 1.25003906,29.0000586 L1.25003906,16.5000195 C1.25003906,16.3230078 1.28912109,16.1558398 1.35580078,16.0030273 L10.6653516,23.6375 C11.0291016,23.8749219 11.4472266,24.0000781 11.8750781,24.0000781 C12.2864648,24.0000781 12.6886523,23.8841211 13.0426758,23.6643945 C13.0780664,23.6454687 13.1116406,23.6229102 13.1433984,23.5966602 L22.3941797,16.0030273 C22.460918,16.1558398 22.5000586,16.3230078 22.5000586,16.5000781 L22.5000586,22.7816797 L22.5000586,22.7816797 Z M23.1250195,31.5000195 C22.0910742,31.5000195 21.2500195,30.6589648 21.2500195,29.6250195 C21.2500195,28.5910742 22.0910742,27.7500195 23.1250195,27.7500195 C24.1589648,27.7500195 25.0000195,28.5910742 25.0000195,29.6250195 C25.0000195,30.6589648 24.1589648,31.5000195 23.1250195,31.5000195 Z" id="Shape"></path>
            </g>
        </g>
    </g>
</svg>