<?xml version="1.0" encoding="UTF-8"?>
<svg width="24px" height="10px" viewBox="0 0 24 10" version="1.1" xmlns="http://www.w3.org/2000/svg" xmlns:xlink="http://www.w3.org/1999/xlink">
    <!-- Generator: Sketch 60.1 (88133) - https://sketch.com -->
    <title>Clip 457</title>
    <desc>Created with Sketch.</desc>
    <g id="Symbols" stroke="none" stroke-width="1" fill="none" fill-rule="evenodd">
        <g id="Menu/Navigation" transform="translate(-1170.000000, -31.000000)" fill="#FEFEFE">
            <g id="Функции" transform="translate(951.000000, 26.000000)">
                <path d="M237.08,5 C239.224,5 241.045,6.394 241.695,8.321 L241.695,8.321 L242.98,8.321 L242.98,9.321 L241.918,9.321 C241.939,9.501 241.952,9.685 241.952,9.871 C241.952,12.557 239.766,14.741 237.08,14.741 C234.395,14.741 232.21,12.557 232.21,9.871 C232.21,9.843 232.214,9.816 232.214,9.788 L232.214,9.788 C232.21,9.435 231.709,9.042 230.99,9.042 C230.271,9.042 229.77,9.435 229.77,9.788 L229.77,9.788 C229.767,9.816 229.77,9.843 229.77,9.871 C229.77,12.557 227.585,14.741 224.899,14.741 C222.213,14.741 220.028,12.557 220.028,9.871 C220.028,9.685 220.041,9.501 220.062,9.321 L220.062,9.321 L219,9.321 L219,8.321 L220.285,8.321 C220.935,6.394 222.756,5 224.899,5 C227.092,5 228.95,6.458 229.559,8.455 C229.943,8.2 230.437,8.043 230.99,8.043 C231.543,8.043 232.037,8.2 232.421,8.455 C233.03,6.458 234.887,5 237.08,5 Z M224.899,5.999 C222.764,5.999 221.028,7.736 221.028,9.871 C221.028,12.005 222.764,13.742 224.899,13.742 C227.034,13.742 228.771,12.005 228.771,9.871 C228.771,7.736 227.034,5.999 224.899,5.999 Z M237.081,5.999 C234.946,5.999 233.209,7.736 233.209,9.871 C233.209,12.005 234.946,13.742 237.081,13.742 C239.215,13.742 240.952,12.005 240.952,9.871 C240.952,7.736 239.216,5.999 237.081,5.999 Z" id="Clip-457"></path>
            </g>
        </g>
    </g>
</svg>