<?xml version="1.0" encoding="UTF-8"?>
<svg width="184px" height="60px" viewBox="0 0 184 60" version="1.1" xmlns="http://www.w3.org/2000/svg" xmlns:xlink="http://www.w3.org/1999/xlink">
    <!-- Generator: Sketch 60.1 (88133) - https://sketch.com -->
    <title>google-play-download-android-app copy</title>
    <desc>Created with Sketch.</desc>
    <defs>
        <path d="M25.6893149,14.4158067 L17.5171654,9.58256722 C17.5171654,9.58256722 2.6292343,0.776016552 1.75398432,0.258389857 C0.87876386,-0.259236838 0.00673246505,0.0543883122 0.00673246505,1.13610469 L0.00673246505,39.1236183 C0.00673246505,39.9345426 0.629987465,40.284104 1.39040168,39.8347198 C2.15046155,39.3846096 17.5171654,30.2956511 17.5171654,30.2956511 L25.6889606,25.4627444 C25.6889606,25.4627444 32.6226909,21.3620532 33.5443004,20.8171719 C34.465969,20.2715948 34.3773839,19.5238311 33.599607,19.0948047 C32.8221845,18.6653549 25.6893149,14.4158067 25.6893149,14.4158067 L25.6893149,14.4158067 Z" id="path-1"></path>
        <linearGradient x1="49.9998541%" y1="0.000147098194%" x2="49.9998541%" y2="100.000147%" id="linearGradient-3">
            <stop stop-color="#257CB0" offset="0%"></stop>
            <stop stop-color="#4A93B5" offset="28.6%"></stop>
            <stop stop-color="#78BCBB" offset="76.7%"></stop>
            <stop stop-color="#89CFBD" offset="100%"></stop>
        </linearGradient>
        <path d="M25.6893149,14.4158067 L17.5171654,9.58256722 C17.5171654,9.58256722 2.6292343,0.776016552 1.75398432,0.258389857 C0.87876386,-0.259236838 0.00673246505,0.0543883122 0.00673246505,1.13610469 L0.00673246505,39.1236183 C0.00673246505,39.9345426 0.629987465,40.284104 1.39040168,39.8347198 C2.15046155,39.3846096 17.5171654,30.2956511 17.5171654,30.2956511 L25.6889606,25.4627444 C25.6889606,25.4627444 32.6226909,21.3620532 33.5443004,20.8171719 C34.465969,20.2715948 34.3773839,19.5238311 33.599607,19.0948047 C32.8221845,18.6653549 25.6893149,14.4158067 25.6893149,14.4158067 L25.6893149,14.4158067 Z" id="path-4"></path>
        <linearGradient x1="0.00126473415%" y1="49.9985397%" x2="100.001265%" y2="49.9985397%" id="linearGradient-6">
            <stop stop-color="#52C1AD" offset="0%"></stop>
            <stop stop-color="#DEE89A" offset="100%"></stop>
        </linearGradient>
        <path d="M25.6893149,14.4158067 L17.5171654,9.58256722 C17.5171654,9.58256722 2.6292343,0.776016552 1.75398432,0.258389857 C0.87876386,-0.259236838 0.00673246505,0.0543883122 0.00673246505,1.13610469 L0.00673246505,39.1236183 C0.00673246505,39.9345426 0.629987465,40.284104 1.39040168,39.8347198 C2.15046155,39.3846096 17.5171654,30.2956511 17.5171654,30.2956511 L25.6889606,25.4627444 C25.6889606,25.4627444 32.6226909,21.3620532 33.5443004,20.8171719 C34.465969,20.2715948 34.3773839,19.5238311 33.599607,19.0948047 C32.8221845,18.6653549 25.6893149,14.4158067 25.6893149,14.4158067 L25.6893149,14.4158067 Z" id="path-7"></path>
        <linearGradient x1="49.999885%" y1="0.000292074841%" x2="49.999885%" y2="100.000292%" id="linearGradient-9">
            <stop stop-color="#EC413D" offset="0%"></stop>
            <stop stop-color="#DA4452" offset="16.7%"></stop>
            <stop stop-color="#B0487A" offset="57.5%"></stop>
            <stop stop-color="#954A92" offset="86.2%"></stop>
            <stop stop-color="#8A4A9D" offset="100%"></stop>
        </linearGradient>
        <path d="M25.6893149,14.4158067 L17.5171654,9.58256722 C17.5171654,9.58256722 2.6292343,0.776016552 1.75398432,0.258389857 C0.87876386,-0.259236838 0.00673246505,0.0543883122 0.00673246505,1.13610469 L0.00673246505,39.1236183 C0.00673246505,39.9345426 0.629987465,40.284104 1.39040168,39.8347198 C2.15046155,39.3846096 17.5171654,30.2956511 17.5171654,30.2956511 L25.6889606,25.4627444 C25.6889606,25.4627444 32.6226909,21.3620532 33.5443004,20.8171719 C34.465969,20.2715948 34.3773839,19.5238311 33.599607,19.0948047 C32.8221845,18.6653549 25.6893149,14.4158067 25.6893149,14.4158067 L25.6893149,14.4158067 Z" id="path-10"></path>
        <linearGradient x1="50.0010991%" y1="0.000547669119%" x2="50.0010991%" y2="99.9972617%" id="linearGradient-12">
            <stop stop-color="#F58879" offset="0%"></stop>
            <stop stop-color="#F69079" offset="11.9%"></stop>
            <stop stop-color="#FCB877" offset="71.3%"></stop>
            <stop stop-color="#FEC874" offset="100%"></stop>
        </linearGradient>
    </defs>
    <g id="Symbols" stroke="none" stroke-width="1" fill="none" fill-rule="evenodd">
        <g id="App-download" transform="translate(-225.000000, -304.000000)">
            <g id="Appstore">
                <g transform="translate(0.000000, 261.000000)">
                    <g id="google-play-download-android-app-copy" transform="translate(225.000000, 43.000000)">
                        <path d="M183.428571,51.8910293 C183.428571,56.3686787 179.798917,60 175.321866,60 L8.10846822,60 C3.63105885,60 0,56.3690373 0,51.8910293 L0,8.10825349 C0,3.6309627 3.63105885,0 8.10846822,0 L175.321508,0 C179.798559,0 183.428571,3.6309627 183.428571,8.10825349 L183.428571,51.8910293 L183.428571,51.8910293 Z" id="Path" fill="#000000" fill-rule="nonzero"></path>
                        <g id="Clipped" transform="translate(13.714286, 12.000000)">
                            <mask id="mask-2" fill="white">
                                <use xlink:href="#path-1"></use>
                            </mask>
                            <g id="a"></g>
                            <polygon id="Path" fill="url(#linearGradient-3)" fill-rule="nonzero" mask="url(#mask-2)" points="0.00708680532 -0.624769855 0.00708680532 40.5033209 20.2519636 19.939457"></polygon>
                        </g>
                        <g id="Clipped" transform="translate(13.714286, 12.000000)">
                            <mask id="mask-5" fill="white">
                                <use xlink:href="#path-4"></use>
                            </mask>
                            <g id="d"></g>
                            <polygon id="Path" fill="url(#linearGradient-6)" fill-rule="nonzero" mask="url(#mask-5)" points="25.6893149 14.4158067 17.5171654 9.58256722 0.00708680532 -0.774322589 0.00708680532 -0.624769855 20.2519636 19.939457"></polygon>
                        </g>
                        <g id="Clipped" transform="translate(13.714286, 12.000000)">
                            <mask id="mask-8" fill="white">
                                <use xlink:href="#path-7"></use>
                            </mask>
                            <g id="g"></g>
                            <polygon id="Path" fill="url(#linearGradient-9)" fill-rule="nonzero" mask="url(#mask-8)" points="0.00708680532 40.5033209 0.00708680532 40.6528736 17.5171654 30.2956208 25.6889606 25.4623814 20.2519636 19.939457"></polygon>
                        </g>
                        <g id="Clipped" transform="translate(13.714286, 12.000000)">
                            <mask id="mask-11" fill="white">
                                <use xlink:href="#path-10"></use>
                            </mask>
                            <g id="j"></g>
                            <polygon id="Path" fill="url(#linearGradient-12)" fill-rule="nonzero" mask="url(#mask-11)" points="25.6893149 14.4158067 20.2519636 19.939457 25.6889606 25.4623814 35.0282775 19.939094"></polygon>
                        </g>
                        <path d="M142.891849,40.1088024 C142.121465,40.1088024 141.418571,39.9662926 140.782089,39.6816327 C140.145607,39.396613 139.610748,38.9582873 139.178858,38.3673752 L139.049653,38.3673752 C139.13578,39.0597716 139.178858,39.7162106 139.178858,40.3362424 L139.178858,45.2157653 L137.388237,45.2157653 L137.388237,28.0343314 L138.845001,28.0343314 L139.092702,29.6573602 L139.178858,29.6573602 C139.639766,29.0077888 140.176121,28.5395936 140.787444,28.2509751 C141.398827,27.9623567 142.100614,27.8180475 142.89146,27.8180475 C144.460228,27.8180475 145.671088,28.3556983 146.52332,29.4302801 C147.375912,30.504862 147.802387,32.0127314 147.802387,33.9524488 C147.802387,35.9000834 147.368732,37.4126312 146.502499,38.4918914 C145.635578,39.570042 144.432257,40.1088024 142.891849,40.1088024 L142.891849,40.1088024 Z M142.632661,29.3435507 C141.423956,29.3435507 140.549825,29.6793125 140.01027,30.3497866 C139.470714,31.0205605 139.193577,32.0883348 139.178858,33.5526595 L139.178858,33.9524788 C139.178858,35.6190223 139.455995,36.8109229 140.01027,37.5289003 C140.564544,38.2468776 141.453393,38.6049216 142.67574,38.6049216 C143.698131,38.6049216 144.4987,38.1907074 145.078103,37.3611993 C145.656788,36.532051 145.94646,35.3887334 145.94646,33.9308864 C145.94646,32.4528865 145.656758,31.3178159 145.078103,30.5282538 C144.499029,29.7379719 143.683413,29.3435507 142.632661,29.3435507 L142.632661,29.3435507 Z M151.950857,39.8921586 L150.159488,39.8921586 L150.159488,23.0572828 L151.950857,23.0572828 L151.950857,39.8921586 Z M162.251239,39.8921586 L161.894766,38.2043826 L161.808609,38.2043826 C161.218407,38.9478509 160.630388,39.4513138 160.043835,39.7136615 C159.457611,39.9774486 158.72528,40.1088324 157.847918,40.1088324 C156.675141,40.1088324 155.756108,39.805819 155.090189,39.2001222 C154.42427,38.5944853 154.091849,37.7329185 154.091849,36.6144321 C154.091849,34.2201946 156.002372,32.9649563 159.82267,32.8490771 L161.830866,32.78394 L161.830866,32.0483588 C161.830866,31.1177263 161.630881,30.4303682 161.23133,29.9873641 C160.832497,29.5432504 160.192784,29.3215984 159.315811,29.3215984 C158.329647,29.3215984 157.214308,29.6246118 155.970033,30.2302786 L155.419379,28.8562821 C156.002731,28.5388738 156.640649,28.2902313 157.335645,28.1099048 C158.029924,27.9296082 158.725639,27.83931 159.423866,27.83931 C160.833993,27.83931 161.87897,28.1527597 162.559279,28.7803788 C163.238839,29.407998 163.578798,30.4141739 163.578798,31.7993565 L163.578798,39.8918288 L162.251269,39.8918288 L162.251269,39.8921586 L162.251239,39.8921586 Z M158.204032,38.6268439 C159.318683,38.6268439 160.194609,38.3202018 160.831809,37.7073675 C161.467962,37.0944731 161.7871,36.2358453 161.7871,35.1317538 L161.7871,34.0607707 L159.994684,34.1359842 C158.570228,34.1874461 157.543857,34.4084084 156.913508,34.8024697 C156.284206,35.1954514 155.969345,35.8068762 155.969345,36.6363843 C155.969345,37.285236 156.164992,37.779702 156.557753,38.117953 C156.950095,38.4573435 157.498266,38.6268439 158.204032,38.6268439 Z M164.618751,28.0343314 L166.539325,28.0343314 L169.129797,34.7966817 C169.698072,36.3405384 170.050925,37.4547364 170.188057,38.1402651 L170.274244,38.1402651 C170.367909,37.7717548 170.564274,37.143056 170.862233,36.2513198 C171.160909,35.3602734 172.138039,32.621967 173.792275,28.0343314 L175.714286,28.0343314 L170.630328,41.5371398 C170.12703,42.8715502 169.538682,43.818347 168.865194,44.37831 C168.192814,44.9368334 167.366787,45.2157653 166.389269,45.2157653 C165.842174,45.2157653 165.302619,45.1545868 164.769525,45.0322299 L164.769525,43.5934262 C165.165097,43.6797958 165.608086,43.7233405 166.097413,43.7233405 C167.328017,43.7233405 168.205019,43.0309441 168.730934,41.6458215 L169.388955,39.9583453 L164.618751,28.0343314 L164.618751,28.0343314 Z M109.703935,29.1362636 C110.272598,29.6080276 111.460124,30.5991188 111.460124,32.4852451 C111.460124,34.3195196 110.42086,35.1893335 109.381596,36.006606 C109.059944,36.3286626 108.688753,36.67702 108.688753,37.2233078 C108.688753,37.7677962 109.059585,38.0658013 109.332773,38.2892827 L110.223776,38.9823688 C111.312222,39.9004057 112.300869,40.7443088 112.300869,42.4562264 C112.300869,44.787486 110.049309,47.1428571 105.794609,47.1428571 C102.206575,47.1428571 100.475545,45.4320192 100.475545,43.5955854 C100.475545,42.7030995 100.918863,41.4388644 102.380683,40.5697702 C103.913553,39.6272619 105.993158,39.504545 107.105984,39.4282819 C106.758516,38.9823988 106.363631,38.5109647 106.363631,37.7433548 C106.363631,37.322303 106.48784,37.0739903 106.611002,36.7749356 C106.337784,36.8001267 106.066032,36.824958 105.818362,36.824958 C103.196658,36.824958 101.712281,34.8654475 101.712281,32.9318479 C101.712281,31.7906895 102.232452,30.5250149 103.29505,29.6084175 C104.705835,28.4428176 106.388042,28.2437777 107.725295,28.2437777 L112.82074,28.2437777 L111.237223,29.1366235 L109.703965,29.1366235 L109.703965,29.1362636 L109.703935,29.1362636 Z M107.946699,40.1491082 C107.748928,40.1231973 107.624689,40.1231973 107.378425,40.1231973 C107.155883,40.1231973 105.817943,40.1739395 104.780115,40.521937 C104.235922,40.7187878 102.652017,41.3140183 102.652017,43.0759583 C102.652017,44.8360989 104.360101,46.1028831 107.007622,46.1028831 C109.381237,46.1028831 110.644478,44.9595654 110.644478,43.4232361 C110.644478,42.1557621 109.827815,41.4889167 107.946699,40.1491082 Z M108.664671,35.4358468 C109.232946,34.8647278 109.281797,34.0719268 109.281797,33.624964 C109.281797,31.8396323 108.218451,29.0617698 106.165441,29.0617698 C105.521391,29.0617698 104.829296,29.3838565 104.433334,29.8804817 C104.013291,30.4012185 103.888364,31.070223 103.888364,31.7158359 C103.888364,33.3773712 104.853318,36.1307623 106.982104,36.1307623 C107.600667,36.1307623 108.267303,35.833147 108.664671,35.4358468 L108.664671,35.4358468 Z M94.1279272,39.7521679 C90.2009808,39.7521679 88.1013024,36.6813685 88.1013024,33.9074646 C88.1013024,30.6631763 90.7437973,27.8911018 94.4998664,27.8911018 C98.1291836,27.8911018 100.401953,30.7377001 100.401953,33.7346954 C100.402282,36.6554576 98.1553896,39.7521679 94.1279272,39.7521679 Z M97.2152355,37.7465937 C97.8089982,36.9534328 97.9572294,35.9634211 97.9572294,34.9968313 C97.9572294,32.8170483 96.9197602,28.657662 93.8565339,28.657662 C93.0416659,28.657662 92.226768,28.9801086 91.6340823,29.5012052 C90.6705343,30.3666706 90.4968151,31.456757 90.4968151,32.5227019 C90.4968151,34.9723599 91.7072855,39.0075899 94.6969198,39.0075899 C95.6600788,39.0075899 96.648337,38.5379552 97.2152355,37.7465937 L97.2152355,37.7465937 Z M80.7395493,39.7521679 C76.8118551,39.7521679 74.7118177,36.6813685 74.7118177,33.9074646 C74.7118177,30.6631763 77.3553597,27.8911018 81.1103817,27.8911018 C84.7408058,27.8911018 87.0131564,30.7377001 87.0131564,33.7346954 C87.0135453,36.6554576 84.7662938,39.7521679 80.7395493,39.7521679 Z M83.8275458,37.7465937 C84.4202314,36.9534328 84.5688516,35.9634211 84.5688516,34.9968313 C84.5688516,32.8170483 83.5306345,28.657662 80.4674081,28.657662 C79.6528692,28.657662 78.8372832,28.9801086 78.2449267,29.5012052 C77.2814086,30.3666706 77.1087364,31.456757 77.1087364,32.5227019 C77.1087364,34.9723599 78.3185188,39.0075899 81.3085419,39.0075899 C82.27206,39.0075899 83.25966,38.5379552 83.8275458,37.7465937 L83.8275458,37.7465937 Z M72.824988,39.3638645 L69.2731519,40.1854554 C67.8321827,40.4100164 66.5412994,40.6075869 65.1760762,40.6075869 C58.3208821,40.6075869 55.7142857,35.5535254 55.7142857,31.5949184 C55.7142857,26.7658078 59.413994,22.2857143 65.7475817,22.2857143 C67.0891118,22.2857143 68.3793369,22.4843644 69.5463701,22.8082504 C71.4087887,23.3311764 72.2779234,23.9778388 72.824629,24.3517772 L70.7626142,26.3184552 L69.8938684,26.5167454 L70.514555,25.5206159 C69.6705792,24.6997448 68.1294529,23.1814391 65.2001282,23.1814391 C61.2760537,23.1814391 58.320194,26.1701874 58.320194,30.5264544 C58.320194,35.2055278 61.698251,39.6121772 67.11101,39.6121772 C68.7020353,39.6121772 69.519835,39.2890409 70.2654188,38.9895962 L70.2654188,34.9824064 L66.5161704,35.1814163 L68.5020802,34.1097435 L73.7673259,34.1097435 L73.1222283,34.7319645 C72.9470731,34.8820317 72.923021,34.932414 72.873481,35.1296246 C72.847634,35.3541855 72.8242999,36.0768112 72.8242999,36.3254837 L72.8242999,39.3638945 L72.824988,39.3638945 L72.824988,39.3638645 Z" id="Shape" fill="#F9F9F9" fill-rule="nonzero"></path>
                        <path d="M116.587619,39.1454477 C115.785704,39.0708407 115.617849,38.9227029 115.617849,37.9538888 L115.617849,23.9098499 C115.622764,23.8564056 115.625924,23.8015264 115.63081,23.7498456 C115.728797,22.8818225 115.971407,22.7329673 116.725192,22.2857143 L113.250756,22.2857143 L111.428571,23.1792041 L113.285544,23.1792041 L113.285544,23.1903234 L113.28414,23.1813562 L113.28414,38.5005281 C113.28414,38.9958751 113.188289,39.0711994 112.628956,39.814758 L116.928571,39.814758 L117.827356,39.2702708 C117.414812,39.2189785 117.001215,39.1949465 116.587619,39.1454477 L116.587619,39.1454477 Z M126.471079,39.3735727 C126.20673,39.5217105 125.941297,39.6949565 125.676889,39.8172688 C124.879539,40.1867166 124.059748,40.2857143 123.334695,40.2857143 C122.564731,40.2857143 121.357646,40.2347807 120.126335,39.3240739 C118.415099,38.0909073 117.667254,35.9718132 117.667254,34.1241855 C117.667254,30.3052428 120.706354,28.4325369 123.190744,28.4325369 C124.059367,28.4325369 124.952948,28.6538469 125.676538,29.1230397 C126.881546,29.9347189 127.19502,30.9943108 127.362876,31.5613654 L121.695785,33.9032641 L119.838111,34.0510133 C120.440249,37.1805592 122.514582,39.0026902 124.80689,39.0026902 C126.036797,39.0026902 126.929646,38.5600701 127.749467,38.1418409 L126.471079,39.3735727 L126.471079,39.3735727 Z M124.204401,32.0290935 C124.661886,31.8572823 124.903063,31.7087858 124.903063,31.3640874 C124.903063,30.3791324 123.818161,29.2449634 122.514524,29.2449634 C121.548616,29.2449634 119.740826,30.0093259 119.740826,32.6700974 C119.740826,33.0890441 119.789278,33.5323815 119.814207,33.9774824 L124.204401,32.0290935 L124.204401,32.0290935 Z M128.799229,28.6011199 L128.799229,30.227049 L128.605802,30.227049 L128.605802,28.6011199 L128.079151,28.6011199 L128.079151,28.432507 L129.325559,28.432507 L129.325559,28.6011199 L128.799229,28.6011199 L128.799229,28.6011199 Z M130.969062,30.227049 L130.969062,28.586055 L130.960285,28.586055 L130.470148,30.227049 L130.318823,30.227049 L129.824473,28.586055 L129.818124,28.586055 L129.818124,30.227049 L129.642574,30.227049 L129.642574,28.4325369 L129.943467,28.4325369 L130.39077,29.883068 L130.39709,29.883068 L130.837721,28.4325369 L131.142857,28.4325369 L131.142857,30.227049 L130.969062,30.227049 L130.969062,30.227049 Z" id="Shape" fill="#F9F9F9" fill-rule="nonzero"></path>
                        <path d="M61.4105458,17.0074467 L60.1892211,17.0074467 C60.1892211,16.8419093 60.073412,16.3732951 59.8417937,15.6012541 L58.0786941,15.6012541 C57.8396453,16.3606961 57.7199285,16.8292811 57.7199285,17.0074467 L56.5714286,17.0074467 C56.5714286,16.9097749 56.8684115,16.1076362 57.4623775,14.6013805 C58.0563138,13.0950955 58.3533264,12.2652797 58.3533264,12.1127206 L59.7959674,12.1127206 C59.7959674,12.2555096 60.0648861,13.0730472 60.603079,14.5656832 C61.1412718,16.0583192 61.4105458,16.872007 61.4105458,17.0074467 L61.4105458,17.0074467 Z M59.6474463,14.8831089 C59.2123035,13.5899285 58.9948949,12.8907111 58.9948949,12.78534 L58.9337931,12.78534 C58.9337931,12.8830117 58.7085692,13.5822291 58.2584766,14.8831089 L59.6474463,14.8831089 L59.6474463,14.8831089 Z M66.3313689,17.0074467 L65.3889098,17.0074467 C65.3889098,16.9045545 65.0390253,16.362096 64.3395226,15.379721 C63.607012,14.3445001 63.1896017,13.6368541 63.0880319,13.2557624 L63.0269301,13.2557624 C63.0905186,13.8044913 63.12252,14.3007534 63.12252,14.7445487 C63.12252,15.3636514 63.1402822,16.1181937 63.1758065,17.0078258 L62.2368998,17.0078258 C62.2748811,16.2308851 62.2940939,15.3776503 62.2940939,14.4477714 C62.2940939,13.5329704 62.2749107,12.7546007 62.2368998,12.1130997 L63.3700947,12.1130997 C63.3700947,12.2460895 63.6841293,12.776299 64.3125538,13.7033782 C64.9815055,14.688203 65.3658486,15.3563019 65.464991,15.7073251 L65.5221851,15.7073251 C65.4611129,15.1484178 65.4305324,14.6472269 65.4305324,14.20349 C65.4305324,13.524571 65.4127407,12.8273951 65.377246,12.1130997 L66.3314281,12.1130997 C66.295519,12.7346522 66.2781121,13.5129928 66.2781121,14.4477714 C66.2777273,15.3895202 66.2954894,16.2427551 66.3313689,17.0074467 L66.3313689,17.0074467 Z M71.8621439,14.3907257 C71.8621439,15.1025422 71.6305552,15.7241239 71.1676442,16.2553833 C70.7044077,16.7869927 70.0557047,17.0522724 69.221269,17.0522724 C68.8447117,17.0522724 68.3257019,17.0371944 67.6642399,17.0070967 C67.6972478,16.2501337 67.7139739,15.3965197 67.7139739,14.4470714 C67.7139739,13.5350411 67.6972775,12.7567005 67.6642399,12.1123706 L68.3321259,12.1123706 C68.4415111,12.1123706 68.6042123,12.1085209 68.8205848,12.1011714 C69.0365428,12.093822 69.1779294,12.0899723 69.2440046,12.0899723 C70.1623368,12.0899723 70.8280617,12.3157051 71.24189,12.7668206 C71.6553926,13.2179361 71.8621439,13.7589948 71.8621439,14.3907257 L71.8621439,14.3907257 Z M70.8205424,14.552355 C70.8205424,14.0711418 70.6780901,13.6658727 70.3931854,13.335848 C70.1082807,13.0065231 69.6731082,12.8417149 69.0880234,12.8417149 C68.9786382,12.8417149 68.8286961,12.852914 68.6375755,12.8756623 C68.6627977,13.3771448 68.6755865,13.9007048 68.6755865,14.4470422 C68.6755865,15.0461965 68.6883752,15.6401011 68.7135679,16.2291061 C68.8768295,16.2615103 69.0429448,16.2779223 69.2094868,16.2781024 C69.7565607,16.2781024 70.1615375,16.1104943 70.424802,15.7758907 C70.6880665,15.4413163 70.8205424,15.0335683 70.8205424,14.552355 L70.8205424,14.552355 Z M76.9623646,17.0074467 L75.8326925,17.0074467 C75.5374858,16.1202644 75.3112257,15.5725563 75.1534979,15.3646721 C74.9957701,15.156438 74.7414163,15.052496 74.3904364,15.052496 C74.2426554,15.052496 74.1015944,15.0538959 73.966987,15.0563457 C73.966987,15.7006756 73.9783252,16.3508968 74.0014456,17.0074467 L72.9406906,17.0074467 C72.9736986,16.2504545 72.9904246,15.3968697 72.9904246,14.4473922 C72.9904246,13.535391 72.9737282,12.7570213 72.9406906,12.1127206 L73.6007021,12.1127206 C73.6770793,12.1127206 73.8366129,12.1088709 74.079599,12.1015214 C74.3225851,12.094172 74.5470985,12.0902931 74.7531393,12.0902931 C75.9208224,12.0902931 76.5048415,12.4836631 76.5048415,13.2707821 C76.5048415,13.8947844 76.1716238,14.3294512 75.5051883,14.5754824 L75.5051883,14.6318281 C75.7620288,14.7018228 75.9872528,14.8995577 76.1805048,15.2236329 C76.3733721,15.5480581 76.6341203,16.1426627 76.9623646,17.0074467 L76.9623646,17.0074467 Z M75.5314467,13.5486317 C75.5314467,13.0499198 75.205689,12.800418 74.554529,12.800418 C74.3154506,12.800418 74.1040515,12.8179167 73.9211311,12.852914 C73.9491953,13.2413843 73.9630497,13.7477957 73.9630497,14.371798 C74.103045,14.3770476 74.2213409,14.3791478 74.3179373,14.3791478 C75.1268251,14.3794974 75.5314467,14.1026685 75.5314467,13.5486317 L75.5314467,13.5486317 Z M82.4323635,14.4697613 C82.4323635,15.2390317 82.1932851,15.8770038 81.7148026,16.3834152 C81.2362906,16.8895057 80.6448113,17.1428571 79.9403649,17.1428571 C79.2686304,17.1428571 78.7062515,16.9104749 78.2536721,16.4453604 C77.8007376,15.9805959 77.5744479,15.3895202 77.5744479,14.6730958 C77.5744479,13.9038546 77.8135263,13.2658533 78.2920384,12.759442 C78.7701952,12.2533806 79.3616744,12 80.0664465,12 C80.7382106,12 81.3002343,12.2316823 81.7531688,12.6953969 C82.2061034,13.1591406 82.4323635,13.7502455 82.4323635,14.4697613 L82.4323635,14.4697613 Z M81.3794534,14.5786322 C81.3794534,14.0547222 81.2433658,13.6298547 80.9712795,13.3040296 C80.6988083,12.9782044 80.3631038,12.8154669 79.9638109,12.8154669 C79.592227,12.8154669 79.2767714,12.9796043 79.0174441,13.3078793 C78.7581169,13.6361542 78.6277428,14.0509017 78.6277428,14.5523842 C78.6277428,15.0734944 78.7645113,15.497662 79.0380186,15.8249162 C79.3115556,16.1521412 79.6465791,16.3155787 80.0437406,16.3155787 C80.4149693,16.3155787 80.7307801,16.1507413 80.9901073,15.8210373 C81.2494346,15.4917124 81.3794534,15.0773149 81.3794534,14.5786322 L81.3794534,14.5786322 Z M84.5901378,17.0074467 L83.5101997,17.0074467 C83.5432373,16.230506 83.5599337,15.3772712 83.5599337,14.4473922 C83.5599337,13.5325621 83.5432669,12.7542216 83.5101997,12.1127206 L84.5901378,12.1127206 C84.5571002,12.7444223 84.5404038,13.5224129 84.5404038,14.4473922 C84.5404038,15.3919701 84.5571002,16.2455549 84.5901378,17.0074467 Z M90.121268,14.3907257 C90.121268,15.1025422 89.8896497,15.7241239 89.4267683,16.2553833 C88.9635613,16.7869927 88.3148584,17.0522724 87.4803931,17.0522724 C87.1038357,17.0522724 86.584826,17.0371944 85.9233343,17.0070967 C85.9564015,16.2501337 85.9730979,15.3965197 85.9730979,14.4470714 C85.9730979,13.5350411 85.9564311,12.7567005 85.9233343,12.1123706 L86.5912204,12.1123706 C86.7006352,12.1123706 86.8633364,12.1085209 87.0796792,12.1011714 C87.2956964,12.093822 87.4370535,12.0899723 87.5031582,12.0899723 C88.4214608,12.0899723 89.0871858,12.3157051 89.5010141,12.7668206 C89.9145167,13.2179361 90.121268,13.7589948 90.121268,14.3907257 L90.121268,14.3907257 Z M89.0796961,14.552355 C89.0796961,14.0711418 88.9372438,13.6658727 88.6523094,13.335848 C88.3674047,13.0065231 87.9322619,12.8417149 87.3471474,12.8417149 C87.2377327,12.8417149 87.0878202,12.852914 86.8966996,12.8756623 C86.9219218,13.3771448 86.9346809,13.9007048 86.9346809,14.4470422 C86.9346809,15.0461965 86.9474993,15.6401011 86.9726919,16.2291061 C87.1359538,16.261509 87.302069,16.277921 87.4686109,16.2781024 C88.0156551,16.2781024 88.4206615,16.1104943 88.6838964,15.7758907 C88.9471906,15.4413163 89.0796961,15.0335683 89.0796961,14.552355 Z M97.459163,17.0074467 L96.2378383,17.0074467 C96.2378383,16.8419093 96.1220291,16.3732951 95.8900556,15.6012541 L94.1269856,15.6012541 C93.8879072,16.3606961 93.7681608,16.8292811 93.7681608,17.0074467 L92.6200457,17.0074467 C92.6200457,16.9097749 92.9169991,16.1076362 93.5109946,14.6013805 C94.1049606,13.0950955 94.4019436,12.2652797 94.4019436,12.1127206 L95.8445845,12.1127206 C95.8445845,12.2555096 96.1138586,13.0730472 96.6516961,14.5656832 C97.1895337,16.0583192 97.459163,16.872007 97.459163,17.0074467 Z M95.696093,14.8831089 C95.2609206,13.5899285 95.0431272,12.8907111 95.0431272,12.78534 L94.9820254,12.78534 C94.9820254,12.8830117 94.7571567,13.5822291 94.3070937,14.8831089 L95.696093,14.8831089 L95.696093,14.8831089 Z M101.910355,13.3943227 C101.910355,13.9934769 101.684391,14.4358431 101.232878,14.7214213 C100.781364,15.0069995 100.22754,15.1501094 99.5710222,15.1501094 C99.4513349,15.1501094 99.3664319,15.1476596 99.315277,15.1427599 C99.315277,15.6141739 99.3291018,16.2354056 99.3571956,17.0074467 L98.284688,17.0074467 C98.317696,16.283352 98.334422,15.429738 98.334422,14.4473922 C98.334422,13.5451611 98.3177552,12.7668206 98.284688,12.1127206 L98.9486368,12.1127206 C99.0427761,12.1127206 99.2232099,12.1088709 99.4903821,12.1015214 C99.7575542,12.094172 99.9888173,12.0902931 100.184882,12.0902931 C100.668012,12.0902931 101.076541,12.1980849 101.409759,12.4136684 C101.743006,12.6292811 101.910355,12.9558062 101.910355,13.3943227 L101.910355,13.3943227 Z M100.925977,13.6011569 C100.925977,13.0649686 100.564666,12.7965683 99.8421316,12.7965683 C99.661313,12.7965683 99.4705477,12.8154377 99.2698355,12.852914 C99.2978997,13.3267778 99.3117541,13.8629369 99.3117541,14.4620911 C99.375313,14.4673407 99.4492331,14.4694408 99.5330704,14.4694408 C100.461675,14.4697613 100.925977,14.1803626 100.925977,13.6011569 L100.925977,13.6011569 Z M106.487303,13.3943227 C106.487303,13.9934769 106.261369,14.4358431 105.81021,14.7214213 C105.358697,15.0069995 104.804518,15.1501094 104.148059,15.1501094 C104.028313,15.1501094 103.943439,15.1476596 103.892255,15.1427599 C103.892255,15.6141739 103.906139,16.2354056 103.934173,17.0074467 L102.861695,17.0074467 C102.894733,16.283352 102.911459,15.429738 102.911459,14.4473922 C102.911459,13.5451611 102.894763,12.7668206 102.861695,12.1127206 L103.525644,12.1127206 C103.619813,12.1127206 103.800247,12.1088709 104.067389,12.1015214 C104.334532,12.094172 104.565795,12.0902931 104.761889,12.0902931 C105.24499,12.0902931 105.653548,12.1980849 105.986766,12.4136684 C106.319954,12.6292811 106.487303,12.9558062 106.487303,13.3943227 L106.487303,13.3943227 Z M105.502925,13.6011569 C105.502925,13.0649686 105.141644,12.7965683 104.419109,12.7965683 C104.238291,12.7965683 104.047496,12.8154377 103.846813,12.852914 C103.874848,13.3267778 103.888732,13.8629369 103.888732,14.4620911 C103.952291,14.4673407 104.026211,14.4694408 104.110048,14.4694408 C105.038623,14.4697613 105.502925,14.1803626 105.502925,13.6011569 L105.502925,13.6011569 Z M113.970493,14.4697613 C113.970493,15.2390317 113.731414,15.8770038 113.252902,16.3834152 C112.77442,16.8898265 112.182911,17.1428571 111.478464,17.1428571 C110.80673,17.1428571 110.244351,16.9104749 109.791801,16.4453604 C109.339192,15.9805959 109.112577,15.3895202 109.112577,14.6730958 C109.112577,13.9038546 109.351655,13.2658533 109.830138,12.759442 C110.30865,12.2530307 110.900159,12 111.604576,12 C112.27634,12 112.838689,12.2316823 113.291268,12.6953969 C113.743848,13.1591406 113.970493,13.7502455 113.970493,14.4697613 L113.970493,14.4697613 Z M112.917198,14.5786322 C112.917198,14.0547222 112.78111,13.6298547 112.509024,13.3040296 C112.236937,12.9782044 111.900848,12.8154669 111.501585,12.8154669 C111.129971,12.8154669 110.814516,12.9796043 110.555188,13.3078793 C110.295861,13.6361542 110.165842,14.0509017 110.165842,14.5523842 C110.165842,15.0734944 110.30264,15.497662 110.576148,15.8249162 C110.849655,16.1521412 111.184679,16.3155787 111.581485,16.3155787 C111.953069,16.3155787 112.268524,16.1507413 112.527852,15.8210664 C112.787534,15.4917124 112.917198,15.0773149 112.917198,14.5786322 L112.917198,14.5786322 Z M119.142857,17.0074467 L118.200368,17.0074467 C118.200368,16.9045545 117.85078,16.362096 117.150981,15.379721 C116.418471,14.3445001 116.001031,13.6368541 115.899461,13.2557624 L115.838359,13.2557624 C115.901948,13.8044913 115.933949,14.3007534 115.933949,14.7445487 C115.933949,15.3636514 115.951711,16.1181937 115.987265,17.0078258 L115.048329,17.0078258 C115.08634,16.2308851 115.105523,15.3776503 115.105523,14.4477714 C115.105523,13.5329704 115.086399,12.7546007 115.048329,12.1130997 L116.181553,12.1130997 C116.181553,12.2460895 116.495943,12.776299 117.124012,13.7033782 C117.79329,14.688203 118.177307,15.3563019 118.27645,15.7073251 L118.333644,15.7073251 C118.272542,15.1484178 118.241991,14.6472269 118.241991,14.20349 C118.241991,13.524571 118.224229,12.8273951 118.188675,12.1130997 L119.142857,12.1130997 C119.106978,12.7346522 119.089571,13.5129928 119.089571,14.4477714 C119.089541,15.3895202 119.107303,16.2427551 119.142857,17.0074467 L119.142857,17.0074467 Z" id="Shape" fill="#F9F9FA" fill-rule="nonzero"></path>
                    </g>
                </g>
            </g>
        </g>
    </g>
</svg>