<?xml version="1.0" encoding="UTF-8"?>
<svg width="24px" height="24px" viewBox="0 0 24 24" version="1.1" xmlns="http://www.w3.org/2000/svg" xmlns:xlink="http://www.w3.org/1999/xlink">
    <!-- Generator: Sketch 60.1 (88133) - https://sketch.com -->
    <title>Shape</title>
    <desc>Created with Sketch.</desc>
    <g id="Symbols" stroke="none" stroke-width="1" fill="none" fill-rule="evenodd">
        <g id="Components/Calculator/CarPick" transform="translate(-188.000000, -547.000000)" fill="#E31E24" fill-rule="nonzero">
            <g id="Автокредит">
                <g id="расчет" transform="translate(168.000000, 539.000000)">
                    <path d="M31.9994921,8 C25.3729524,8 20,13.3729524 20,19.9994921 C20,26.6260317 25.3729524,32 31.9994921,32 C38.6260317,32 44,26.6260317 44,19.9994921 C44,13.3729524 38.6260317,8 31.9994921,8 Z M34.4975238,26.5975873 C33.879873,26.8413968 33.3881905,27.0262857 33.0194286,27.1542857 C32.6516825,27.2822857 32.224,27.3462857 31.7373968,27.3462857 C30.9897143,27.3462857 30.407619,27.1634286 29.9931429,26.7987302 C29.5786667,26.4340317 29.3724444,25.9718095 29.3724444,25.4100317 C29.3724444,25.191619 29.3876825,24.968127 29.4181587,24.7405714 C29.4496508,24.5130159 29.4994286,24.2570159 29.5674921,23.9695238 L30.3405714,21.2388571 C30.4086349,20.9767619 30.4675556,20.727873 30.5142857,20.496254 C30.5610159,20.2626032 30.5833651,20.048254 30.5833651,19.8532063 C30.5833651,19.5057778 30.5112381,19.2619683 30.368,19.1248254 C30.2227302,18.9876825 29.9494603,18.9206349 29.5420952,18.9206349 C29.3429841,18.9206349 29.1377778,18.9500952 28.9274921,19.0120635 C28.7192381,19.0760635 28.5384127,19.1339683 28.3900952,19.1908571 L28.5942857,18.3497143 C29.1001905,18.1434921 29.5847619,17.9667302 30.0469841,17.8204444 C30.5092063,17.672127 30.9460317,17.5989841 31.3574603,17.5989841 C32.1000635,17.5989841 32.6730159,17.7798095 33.0763175,18.1373968 C33.4775873,18.496 33.679746,18.9622857 33.679746,19.5352381 C33.679746,19.6540952 33.6655238,19.8633651 33.6380952,20.1620317 C33.6106667,20.4617143 33.5588571,20.7349841 33.4836825,20.9859048 L32.7146667,23.7084444 C32.6516825,23.9268571 32.5958095,24.1767619 32.5450159,24.456127 C32.4952381,24.7354921 32.4708571,24.9488254 32.4708571,25.0920635 C32.4708571,25.4537143 32.5511111,25.7005714 32.7136508,25.831619 C32.8741587,25.9626667 33.1555556,26.0286984 33.5537778,26.0286984 C33.7417143,26.0286984 33.952,25.9951746 34.1897143,25.9301587 C34.4253968,25.8651429 34.5960635,25.8072381 34.703746,25.7574603 L34.4975238,26.5975873 Z M34.3613968,15.5469206 C34.0027937,15.880127 33.5710476,16.0467302 33.0661587,16.0467302 C32.5622857,16.0467302 32.1274921,15.880127 31.7658413,15.5469206 C31.4062222,15.2137143 31.224381,14.808381 31.224381,14.3349841 C31.224381,13.8626032 31.4072381,13.456254 31.7658413,13.12 C32.1274921,12.7827302 32.5622857,12.6151111 33.0661587,12.6151111 C33.5710476,12.6151111 34.0038095,12.7827302 34.3613968,13.12 C34.72,13.456254 34.8998095,13.8626032 34.8998095,14.3349841 C34.8998095,14.8093968 34.72,15.2137143 34.3613968,15.5469206 Z" id="Shape"></path>
                </g>
            </g>
        </g>
    </g>
</svg>