<?xml version="1.0" encoding="UTF-8"?>
<svg width="15px" height="20px" viewBox="0 0 15 20" version="1.1" xmlns="http://www.w3.org/2000/svg" xmlns:xlink="http://www.w3.org/1999/xlink">
    <!-- Generator: Sketch 60.1 (88133) - https://sketch.com -->
    <title>Clip 388</title>
    <desc>Created with Sketch.</desc>
    <g id="Symbols" stroke="none" stroke-width="1" fill="none" fill-rule="evenodd">
        <g id="Component/Login" transform="translate(-40.000000, -246.000000)" fill="#9E9E9E">
            <g id="Пароль" transform="translate(25.000000, 190.000000)">
                <path d="M22.5,56 C25.1883421,56 27.3817964,58.1227084 27.4953796,60.7831421 L27.5,61 L27.5,62.91 C29.034,64.284 30,66.279 30,68.5 C30,72.642 26.642,76 22.5,76 C18.358,76 15,72.642 15,68.5 C15,66.3799545 15.8801777,64.4658306 17.2943762,63.1011757 L17.5,62.91 L17.5,61 C17.5,58.239 19.739,56 22.5,56 Z M22.5,62.25 C19.048,62.25 16.25,65.048 16.25,68.5 C16.25,71.952 19.048,74.75 22.5,74.75 C25.952,74.75 28.75,71.952 28.75,68.5 C28.75,65.048 25.952,62.25 22.5,62.25 Z M22.5,63 C25.538,63 28,65.462 28,68.5 C28,71.538 25.538,74 22.5,74 C19.462,74 17,71.538 17,68.5 C17,65.462 19.462,63 22.5,63 Z M22.806,63.611 L22.806,64.337 L22.194,64.337 L22.194,63.611 C21.858,63.627 21.5764,63.67244 21.289808,63.745784 L21.073,63.806 L21.249,64.273 L21.018,64.349 L20.867,63.881 C20.591,63.9785 20.32625,64.1001875 20.0757031,64.2439531 L19.83,64.395 L20.402,65.188 L20.009,65.476 L19.437,64.682 C19.2075,64.868 18.9954375,65.0748125 18.8033438,65.2994844 L18.618,65.53 L19.011,65.818 L18.868,66.016 L18.473,65.728 C18.31175,65.96575 18.1690625,66.2186875 18.05,66.4847031 L17.939,66.755 L18.854,67.057 L18.688,67.523 L17.736,67.221 C17.6568,67.5202 17.63008,67.83156 17.617952,68.151496 L17.611,68.393 L17.84,68.393 L17.84,68.653 L17.635,68.653 C17.6446,68.989 17.68236,69.27764 17.74572,69.563976 L17.798,69.779 L18.719,69.477 L18.869,69.943 L17.946,70.245 C18.05025,70.5225 18.178125,70.787625 18.3279375,71.0382656 L18.485,71.284 L18.85,71.016 L19.002,71.227 L18.637,71.494 C18.81175,71.7235 19.00675,71.936125 19.2190469,72.1301875 L19.437,72.318 L20.009,71.524 L20.401,71.812 L19.828,72.605 C20.06725,72.76175 20.3194375,72.8976875 20.5845625,73.0107031 L20.854,73.116 L20.99,72.687 L21.228,72.767 L21.078,73.195 C21.3692,73.2814 21.63992,73.34156 21.9516,73.371896 L22.194,73.389 L22.194,72.663 L22.806,72.663 L22.806,73.389 C23.06325,73.37475 23.34975,73.3340625 23.6300625,73.2694687 L23.907,73.197 L23.719,72.728 L23.95,72.653 L24.102,73.122 C24.381,73.0245 24.647625,72.90225 24.9001875,72.7573594 L25.148,72.605 L24.576,71.812 L24.969,71.524 L25.541,72.318 C25.766,72.13575 25.9735625,71.9338125 26.162,71.7147187 L26.344,71.49 L25.941,71.195 L26.084,70.997 L26.487,71.292 C26.65275,71.0505 26.7976875,70.7926875 26.9188594,70.5210938 L27.032,70.245 L26.109,69.943 L26.259,69.477 L27.18,69.779 C27.256,69.491 27.30704,69.21196 27.33056,68.896824 L27.343,68.653 L27.083,68.653 L27.083,68.393 L27.389,68.393 C27.3826,68.069 27.31604,67.75268 27.238984,67.447624 L27.18,67.221 L26.259,67.523 L26.109,67.057 L27.032,66.755 C26.92925,66.482 26.804,66.2208125 26.6575156,65.9739687 L26.504,65.732 L26.073,66.048 L25.922,65.837 L26.353,65.521 C26.176,65.28775 25.9781875,65.0708125 25.7625156,64.8731406 L25.541,64.682 L24.969,65.476 L24.577,65.188 L25.15,64.395 C24.9085,64.236 24.6529375,64.0989375 24.3841563,63.9850781 L24.111,63.879 L23.952,64.388 L23.716,64.307 L23.897,63.8 C23.537,63.695 23.149,63.63 22.806,63.611 Z M22.25,65 C24.045,65 25.5,66.455 25.5,68.25 C25.5,70.045 24.045,71.5 22.25,71.5 C20.455,71.5 19,70.045 19,68.25 C19,66.455 20.455,65 22.25,65 Z M22.5,57.25 C20.4987097,57.25 18.8589178,58.8252341 18.7552073,60.8011195 L18.75,61 L18.75,62.004 C19.853,61.365 21.134,61 22.5,61 C23.7521667,61 24.9329097,61.3067014 25.9705955,61.850011 L26.25,62.004 L26.25,61 C26.25,58.932 24.568,57.25 22.5,57.25 Z" id="Clip-388"></path>
            </g>
        </g>
    </g>
</svg>