
<svg width="35px" height="35px" viewBox="0 0 35 35" version="1.1" xmlns="http://www.w3.org/2000/svg" xmlns:xlink="http://www.w3.org/1999/xlink">

    <g id="Symbols" stroke="none" stroke-width="1" fill="none" fill-rule="evenodd">
        <g id="Menu/Navigation" transform="translate(-1088.000000, -77.000000)" fill="#212640">
            <g id="Group" transform="translate(1088.000000, 70.000000)">
                <path d="M28.1302053,42 C26.673972,42 24.9151907,41.6350606 22.9810021,40.9051817 C18.7406203,39.3065114 14.1270566,36.1468421 9.99027102,32.0100769 C5.85230821,27.8721345 2.69262338,23.2574163 1.09276805,19.0170553 C-0.361110771,15.1616466 -0.364642461,11.9972685 1.08452745,10.5492829 C1.29289712,10.3409142 1.50479849,10.1172417 1.72376324,9.88650577 C3.04579232,8.4962042 4.53969696,6.93167346 6.51979752,7.00230691 C7.88420688,7.05881366 9.20623596,7.90641496 10.5600503,9.59102254 C14.5602772,14.5659713 12.7567611,16.3388707 10.6695326,18.3943038 L10.3010597,18.7592433 C9.95966305,19.1006382 9.31454111,20.6816501 15.3160587,26.6831382 C17.2749691,28.642039 18.9454582,30.0758978 20.2804369,30.9435119 C21.120979,31.4897439 22.6243014,32.3161552 23.2411699,31.6992898 L23.6119972,31.3249325 C25.6650861,29.2424232 27.4379942,27.4448021 32.4094357,31.4414777 C34.0940516,32.7952853 34.9404798,34.1161307 34.9969868,35.4828878 C35.0782157,37.4618014 33.501905,38.9592303 32.1104193,40.2800757 C31.8808595,40.4990394 31.6571858,40.7109397 31.4488161,40.9181311 C30.7295287,41.6385922 29.5793752,42 28.1302053,42 Z M6.37852994,8.17717648 C4.97174031,8.17717648 3.70150933,9.51450298 2.57725486,10.6976131 C2.35122673,10.9354124 2.13226198,11.1661483 1.91682893,11.3815803 C0.837309184,12.4599175 0.946791557,15.2934957 2.19465516,18.6026725 C3.73682623,22.6899943 6.80115544,27.1563822 10.8237497,31.1789567 C14.8451668,35.1991768 19.3092223,38.2634909 23.3977414,39.8044772 C26.7069344,41.0546891 29.5405266,41.1606393 30.6176919,40.0834793 C30.833125,39.8680473 31.063862,39.6490836 31.3016624,39.4242338 C32.5106774,38.2752632 33.8821502,36.9732534 33.8221115,35.5287995 C33.7809084,34.5363997 33.0580893,33.4686575 31.673667,32.3561808 C27.5309953,29.0246368 26.3726012,30.2006836 24.4513621,32.1489893 L24.0746486,32.5292327 C23.1564093,33.4486447 21.6648591,33.2449849 19.6400238,31.9288485 C18.2355887,31.0153226 16.5003519,29.5296659 14.4849345,27.5130811 C9.50407511,22.5334235 7.91128316,19.4855905 9.46993544,17.9234142 L9.84547175,17.5525886 C11.798496,15.631359 12.9769031,14.4717934 9.64416545,10.3267876 C8.52932882,8.94354933 7.4627586,8.22073377 6.47035386,8.17835371 C6.43974589,8.17717648 6.40913791,8.17717648 6.37852994,8.17717648 Z" id="Shape"></path>
            </g>
        </g>
    </g>
</svg>