<svg id="Phone" xmlns="http://www.w3.org/2000/svg" viewBox="0 0 35.28 34.11"><defs><style>.cls-1{fill:#fff;stroke:#e31e24;stroke-miterlimit:10;stroke-width:2px;fill-rule:evenodd;}</style></defs><title>phone-mobile</title><path id="Phone-2" data-name="Phone" class="cls-1" d="M27.49,33.11a14.71,14.71,0,0,1-4.89-1A36.93,36.93,0,0,1,10.25,24,35.38,35.38,0,0,1,1.79,12C.41,8.49.4,5.59,1.78,4.26c.2-.19.4-.4.61-.61C3.65,2.37,5.07.94,7,1c1.3.05,2.55.83,3.84,2.38,3.8,4.56,2.09,6.19.1,8.07l-.35.34c-.32.31-.93,1.76,4.77,7.27A31.31,31.31,0,0,0,20,23c.8.5,2.23,1.26,2.82.69l.35-.34c1.95-1.91,3.64-3.56,8.36.11,1.6,1.24,2.41,2.45,2.46,3.7.08,1.82-1.42,3.19-2.74,4.41l-.63.58A4.47,4.47,0,0,1,27.49,33.11Z" transform="translate(0.25)"/></svg>