<?xml version="1.0" encoding="UTF-8"?>
<svg width="35px" height="35px" viewBox="0 0 35 35" version="1.1" xmlns="http://www.w3.org/2000/svg" xmlns:xlink="http://www.w3.org/1999/xlink">
    <!-- Generator: Sketch 60.1 (88133) - https://sketch.com -->
    <title>Combined Shape</title>
    <desc>Created with Sketch.</desc>
    <g id="Symbols" stroke="none" stroke-width="1" fill="none" fill-rule="evenodd">
        <g id="Footer/Blue-Copy" transform="translate(-907.000000, -28.000000)" fill="rgba(33, 38, 64, 1)">
            <g id="Приемная-Copy" transform="translate(907.000000, 20.000000)">
                <path d="M17.5,8 C27.1640625,8 35,15.8359375 35,25.5 C35,35.1640625 27.1640625,43 17.5,43 C7.8359375,43 0,35.1640625 0,25.5 C0,15.8359375 7.8359375,8 17.5,8 Z M17.5,9.25 C15.3046875,9.25 13.1796875,9.6796875 11.171875,10.5234375 C9.2421875,11.34375 7.5,12.515625 6.0078125,14.0078125 C4.515625,15.5 3.34375,17.234375 2.5234375,19.171875 C1.6796875,21.1796875 1.25,23.3046875 1.25,25.5 C1.25,27.6953125 1.6796875,29.8203125 2.5234375,31.828125 C3.34375,33.7578125 4.515625,35.5 6.0078125,36.9921875 C7.5,38.484375 9.234375,39.65625 11.171875,40.4765625 C13.1796875,41.3203125 15.3046875,41.75 17.5,41.75 C19.6953125,41.75 21.828125,41.3203125 23.828125,40.4765625 C25.7578125,39.65625 27.5,38.484375 28.9921875,36.9921875 C30.484375,35.5 31.65625,33.7578125 32.4765625,31.828125 C33.3203125,29.8203125 33.75,27.6953125 33.75,25.5 C33.75,23.3046875 33.3203125,21.171875 32.4765625,19.171875 C31.65625,17.2421875 30.484375,15.5 28.9921875,14.0078125 C27.5,12.515625 25.765625,11.34375 23.828125,10.5234375 C21.8203125,9.6796875 19.6953125,9.25 17.5,9.25 Z M17.5,38.625 C17.845178,38.625 18.125,38.904822 18.125,39.25 C18.125,39.595178 17.845178,39.875 17.5,39.875 C17.154822,39.875 16.875,39.595178 16.875,39.25 C16.875,38.904822 17.154822,38.625 17.5,38.625 Z M24.375,36.78125 C24.720178,36.78125 25,37.061072 25,37.40625 C25,37.751428 24.720178,38.03125 24.375,38.03125 C24.029822,38.03125 23.75,37.751428 23.75,37.40625 C23.75,37.061072 24.029822,36.78125 24.375,36.78125 Z M10.625,36.78125 C10.970178,36.78125 11.25,37.061072 11.25,37.40625 C11.25,37.751428 10.970178,38.03125 10.625,38.03125 C10.279822,38.03125 10,37.751428 10,37.40625 C10,37.061072 10.279822,36.78125 10.625,36.78125 Z M13.7109375,19.0859375 C14.0078125,18.90625 14.390625,19 14.5703125,19.296875 L14.5703125,19.296875 L17.5390625,24.25 C17.953125,24.265625 18.359375,24.484375 18.5859375,24.875 C18.9296875,25.4765625 18.7265625,26.234375 18.1328125,26.5859375 L18.1328125,26.5859375 L18.1328125,36.125 C18.1328125,36.46875 17.8515625,36.75 17.5078125,36.75 C17.1640625,36.75 16.8828125,36.46875 16.8828125,36.125 L16.8828125,36.125 L16.8828125,26.5859375 C16.6953125,26.484375 16.5390625,26.328125 16.421875,26.1328125 C16.1875,25.7265625 16.2109375,25.234375 16.4375,24.859375 L16.4375,24.859375 L13.5,19.9453125 C13.3203125,19.6484375 13.4140625,19.265625 13.7109375,19.0859375 Z M5.59375,31.75 C5.93892797,31.75 6.21875,32.029822 6.21875,32.375 C6.21875,32.720178 5.93892797,33 5.59375,33 C5.24857203,33 4.96875,32.720178 4.96875,32.375 C4.96875,32.029822 5.24857203,31.75 5.59375,31.75 Z M29.40625,31.75 C29.751428,31.75 30.03125,32.029822 30.03125,32.375 C30.03125,32.720178 29.751428,33 29.40625,33 C29.061072,33 28.78125,32.720178 28.78125,32.375 C28.78125,32.029822 29.061072,31.75 29.40625,31.75 Z M31.25,24.875 C31.595178,24.875 31.875,25.154822 31.875,25.5 C31.875,25.845178 31.595178,26.125 31.25,26.125 C30.904822,26.125 30.625,25.845178 30.625,25.5 C30.625,25.154822 30.904822,24.875 31.25,24.875 Z M3.75,24.875 C4.09517797,24.875 4.375,25.154822 4.375,25.5 C4.375,25.845178 4.09517797,26.125 3.75,26.125 C3.40482203,26.125 3.125,25.845178 3.125,25.5 C3.125,25.154822 3.40482203,24.875 3.75,24.875 Z M29.40625,18 C29.751428,18 30.03125,18.279822 30.03125,18.625 C30.03125,18.970178 29.751428,19.25 29.40625,19.25 C29.061072,19.25 28.78125,18.970178 28.78125,18.625 C28.78125,18.279822 29.061072,18 29.40625,18 Z M5.59375,18 C5.93892797,18 6.21875,18.279822 6.21875,18.625 C6.21875,18.970178 5.93892797,19.25 5.59375,19.25 C5.24857203,19.25 4.96875,18.970178 4.96875,18.625 C4.96875,18.279822 5.24857203,18 5.59375,18 Z M10.625,12.96875 C10.970178,12.96875 11.25,13.248572 11.25,13.59375 C11.25,13.938928 10.970178,14.21875 10.625,14.21875 C10.279822,14.21875 10,13.938928 10,13.59375 C10,13.248572 10.279822,12.96875 10.625,12.96875 Z M24.375,12.96875 C24.720178,12.96875 25,13.248572 25,13.59375 C25,13.938928 24.720178,14.21875 24.375,14.21875 C24.029822,14.21875 23.75,13.938928 23.75,13.59375 C23.75,13.248572 24.029822,12.96875 24.375,12.96875 Z M17.5,11.125 C17.845178,11.125 18.125,11.404822 18.125,11.75 C18.125,12.095178 17.845178,12.375 17.5,12.375 C17.154822,12.375 16.875,12.095178 16.875,11.75 C16.875,11.404822 17.154822,11.125 17.5,11.125 Z" id="Combined-Shape"></path>
            </g>
        </g>
    </g>
</svg>