<?xml version="1.0" encoding="UTF-8"?>
<svg width="25px" height="20px" viewBox="0 0 25 20" version="1.1" xmlns="http://www.w3.org/2000/svg" xmlns:xlink="http://www.w3.org/1999/xlink">
    <!-- Generator: Sketch 60.1 (88133) - https://sketch.com -->
    <title>Clip 382</title>
    <desc>Created with Sketch.</desc>
    <g id="Symbols" stroke="none" stroke-width="1" fill="none" fill-rule="evenodd">
        <g id="Component/Login" transform="translate(-285.000000, -245.000000)" fill="#E31E24">
            <g id="Пароль" transform="translate(25.000000, 190.000000)">
                <path d="M260.94671,55.0037102 C261.11171,54.9857102 261.27671,55.0337102 261.40671,55.1367102 L261.40671,55.1367102 L284.76471,73.3977102 C284.89471,73.5017102 284.97771,73.6527102 284.99571,73.8177102 C285.01371,73.9827102 284.96571,74.1477102 284.86271,74.2777102 L284.86271,74.2777102 L284.47171,74.7657102 C284.36771,74.8947102 284.21771,74.9777102 284.05271,74.9957102 C283.88771,75.0137102 283.72271,74.9657102 283.59271,74.8627102 L283.59271,74.8627102 L260.23471,56.6017102 C260.10471,56.4977102 260.02171,56.3467102 260.00371,56.1817102 C259.98571,56.0167102 260.03371,55.8517102 260.13671,55.7217102 L260.13671,55.7217102 L260.52771,55.2337102 C260.63171,55.1047102 260.78171,55.0217102 260.94671,55.0037102 Z M263.15371,60.9997102 L264.59471,62.1517102 C263.93571,62.8567102 263.37071,63.6467102 262.91271,64.5017102 C264.77871,67.9777102 268.23371,70.1257102 272.00271,70.1257102 C272.76271,70.1257102 273.50271,70.0157102 274.22671,69.8487102 L274.22671,69.8487102 L275.99971,71.2647102 C274.74171,71.7247102 273.40471,71.9997102 272.00271,71.9997102 C267.30571,71.9997102 263.20471,69.2037102 261.13271,65.0727102 C260.95571,64.7137102 260.95571,64.2907102 261.13271,63.9327102 C261.67071,62.8647102 262.35071,61.8777102 263.15371,60.9997102 L263.15371,60.9997102 Z M267.99971,64.9997102 L272.99971,68.9087102 C272.71671,68.9687102 272.42771,68.9987102 272.13871,68.9997102 C269.89571,68.9997102 268.08271,67.2227102 267.99971,64.9997102 L267.99971,64.9997102 Z M272.99671,57.9997102 C277.69271,57.9997102 281.79371,60.7947102 283.86671,64.9267102 C284.04371,65.2857102 284.04371,65.7087102 283.86671,66.0667102 C283.32871,67.1347102 282.64871,68.1217102 281.84571,68.9997102 L281.84571,68.9997102 L280.40471,67.8477102 C281.06271,67.1427102 281.62771,66.3527102 282.08471,65.4967102 C280.21971,62.0217102 276.76471,59.8737102 272.99671,59.8737102 C272.23671,59.8737102 271.49571,59.9837102 270.77271,60.1517102 L270.77271,60.1517102 L268.99971,58.7347102 C270.25771,58.2727102 271.59471,57.9997102 272.99671,57.9997102 Z M272.86071,60.9997102 C275.10371,60.9997102 276.91771,62.7767102 276.99971,64.9997102 L276.99971,64.9997102 L271.99971,61.0917102 C272.28271,61.0307102 272.57171,61.0007102 272.86071,60.9997102 Z" id="Clip-382"></path>
            </g>
        </g>
    </g>
</svg>