<?xml version="1.0" encoding="UTF-8"?>
<svg width="21px" height="20px" viewBox="0 0 21 20" version="1.1" xmlns="http://www.w3.org/2000/svg" xmlns:xlink="http://www.w3.org/1999/xlink">
    <!-- Generator: Sketch 60.1 (88133) - https://sketch.com -->
    <title>Clip 447</title>
    <desc>Created with Sketch.</desc>
    <g id="Symbols" stroke="none" stroke-width="1" fill="none" fill-rule="evenodd">
        <g id="Menu/Navigation" transform="translate(-1213.000000, -26.000000)" fill="#FEFEFE">
            <g id="Функции" transform="translate(951.000000, 26.000000)">
                <g id="Язык" transform="translate(262.980000, 0.000000)">
                    <path d="M9.949,1.77635684e-15 C13.017,1.77635684e-15 15.765,1.398 17.591,3.589 C17.759,3.79 17.917,3.998 18.069,4.212 C19.218,5.835 19.897,7.813 19.897,9.948 C19.897,12.084 19.218,14.062 18.069,15.685 C17.917,15.899 17.758,16.108 17.591,16.309 C15.764,18.5 13.017,19.897 9.948,19.897 L9.948,19.897 L9.907375,19.8965 L9.907375,19.8965 L9.89,19.896 C6.845,19.878 4.121,18.485 2.306,16.308 C2.138,16.107 1.98,15.899 1.828,15.685 C0.678,14.063 1.77635684e-15,12.084 1.77635684e-15,9.949 C1.77635684e-15,7.813 0.679,5.835 1.828,4.212 C1.98,3.998 2.138,3.79 2.306,3.589 C4.121,1.412 6.845,0.019 9.89,0.001 C9.902,0.001 9.913,1.77635684e-15 9.924,1.77635684e-15 L9.924,1.77635684e-15 L9.949,1.77635684e-15 Z M9.54,14.026 C8.119,14.061 6.782,14.276 5.6,14.63 C6.42,17.104 7.865,18.822 9.54,19.051 L9.54,19.051 L9.54,14.026 Z M10.357,14.027 L10.357,19.045 C12.013,18.789 13.442,17.074 14.253,14.617 C13.082,14.271 11.76,14.061 10.357,14.027 L10.357,14.027 Z M15.013,14.87 C14.484,16.439 13.712,17.743 12.783,18.628 C14.418,18.093 15.845,17.104 16.929,15.818 C16.375,15.455 15.73,15.135 15.013,14.87 Z M4.842,14.884 C4.142,15.147 3.512,15.461 2.967,15.817 C4.035,17.084 5.436,18.063 7.04,18.603 C6.126,17.721 5.365,16.432 4.842,14.884 Z M4.082,10.681 L0.849,10.681 C0.981,12.353 1.571,13.897 2.486,15.196 C3.104,14.782 3.818,14.421 4.609,14.123 C4.32,13.062 4.134,11.903 4.082,10.681 L4.082,10.681 Z M19.048,10.681 L15.766,10.681 C15.714,11.897 15.53,13.051 15.243,14.107 C16.052,14.407 16.782,14.775 17.411,15.196 C18.327,13.898 18.915,12.353 19.048,10.681 L19.048,10.681 Z M9.54,10.681 L4.899,10.681 C4.949,11.813 5.113,12.886 5.371,13.864 C6.629,13.478 8.042,13.247 9.54,13.211 L9.54,13.211 L9.54,10.681 Z M14.95,10.681 L10.357,10.681 L10.358,13.211 C11.837,13.246 13.235,13.473 14.482,13.851 C14.737,12.876 14.901,11.807 14.95,10.681 L14.95,10.681 Z M14.478,6.048 C13.232,6.425 11.836,6.652 10.357,6.687 L10.357,6.687 L10.357,9.865 L14.967,9.865 C14.96,8.499 14.783,7.209 14.478,6.048 Z M2.486,4.702 C1.454,6.167 0.836,7.944 0.818,9.864 L0.818,9.864 L4.066,9.864 C4.073,8.404 4.269,7.021 4.61,5.774 C3.82,5.477 3.104,5.116 2.486,4.702 Z M5.375,6.034 C5.068,7.198 4.889,8.493 4.882,9.864 L4.882,9.864 L9.54,9.864 L9.54,6.687 C8.043,6.651 6.631,6.419 5.375,6.034 Z M17.411,4.703 C16.782,5.123 16.052,5.49 15.244,5.791 C15.582,7.033 15.776,8.411 15.783,9.864 L15.783,9.864 L19.078,9.864 C19.06,7.944 18.442,6.167 17.411,4.703 Z M9.54,0.846 C7.866,1.076 6.422,2.795 5.602,5.268 C6.783,5.622 8.12,5.836 9.54,5.871 L9.54,5.871 L9.54,0.846 Z M10.357,0.852 L10.357,5.871 C11.76,5.837 13.082,5.627 14.251,5.28 C13.44,2.824 12.013,1.108 10.357,0.852 L10.357,0.852 Z M12.783,1.269 C13.712,2.155 14.483,3.46 15.011,5.028 C15.73,4.763 16.376,4.443 16.931,4.079 C15.847,2.792 14.418,1.804 12.783,1.269 Z M7.04,1.294 C5.436,1.834 4.032,2.811 2.965,4.078 C3.509,4.435 4.141,4.751 4.842,5.013 C5.366,3.465 6.126,2.176 7.04,1.294 Z" id="Clip-447"></path>
                </g>
            </g>
        </g>
    </g>
</svg>