<?xml version="1.0" encoding="UTF-8"?>
<svg width="14px" height="20px" viewBox="0 0 14 20" version="1.1" xmlns="http://www.w3.org/2000/svg" xmlns:xlink="http://www.w3.org/1999/xlink">
    <!-- Generator: Sketch 60.1 (88133) - https://sketch.com -->
    <title>Clip 452</title>
    <desc>Created with Sketch.</desc>
    <defs>
        <path d="M6.667,0 C10.343,0 13.333,2.991 13.333,6.667 C13.333,7.6597 13.10944,8.64511 12.68419,9.537937 L12.535,9.832 L7.031,19.785 C6.958,19.918 6.818,20 6.667,20 C6.5454,20 6.43148,19.94752 6.3534,19.858432 L6.302,19.785 L0.8,9.835 C0.276,8.864 2.84217094e-13,7.77 2.84217094e-13,6.667 C2.84217094e-13,2.991 2.991,0 6.667,0 Z M6.667,0.833 C3.45,0.833 0.833,3.45 0.833,6.667 C0.833,7.52477778 1.02420988,8.37702469 1.38766667,9.14929355 L1.532,9.435 L6.667,18.722 L11.804,9.432 C12.259,8.59 12.5,7.632 12.5,6.667 C12.5,3.45 9.883,0.833 6.667,0.833 Z M6.667,3.333 C8.505,3.333 10,4.829 10,6.667 C10,8.505 8.505,10 6.667,10 C4.829,10 3.333,8.505 3.333,6.667 C3.333,4.829 4.829,3.333 6.667,3.333 Z M6.667,4.167 C5.288,4.167 4.167,5.288 4.167,6.667 C4.167,8.045 5.288,9.167 6.667,9.167 C8.045,9.167 9.167,8.045 9.167,6.667 C9.167,5.288 8.045,4.167 6.667,4.167 Z" id="path-1"></path>
    </defs>
    <g id="Symbols" stroke="none" stroke-width="1" fill="none" fill-rule="evenodd">
        <g id="Menu/Navigation" transform="translate(-991.000000, -26.000000)">
            <g id="Функции" transform="translate(951.000000, 26.000000)">
                <g id="Офисы-и-банкоматы" transform="translate(40.000000, 0.000000)">
                    <mask id="mask-2" fill="white">
                        <use xlink:href="#path-1"></use>
                    </mask>
                    <use id="Clip-452" fill="#FEFEFE" xlink:href="#path-1"></use>
                </g>
            </g>
        </g>
    </g>
</svg>