<?xml version="1.0" encoding="UTF-8"?>
<svg width="21px" height="20px" viewBox="0 0 21 20" version="1.1" xmlns="http://www.w3.org/2000/svg" xmlns:xlink="http://www.w3.org/1999/xlink">
    <!-- Generator: Sketch 60.1 (88133) - https://sketch.com -->
    <title>Clip 439</title>
    <desc>Created with Sketch.</desc>
    <g id="Symbols" stroke="none" stroke-width="1" fill="none" fill-rule="evenodd">
        <g id="Menu/Navigation" transform="translate(-1281.000000, -26.000000)" fill="#FEFEFE">
            <g id="Функции" transform="translate(951.000000, 26.000000)">
                <g id="Вход" transform="translate(330.980000, 0.000000)">
                    <path d="M10.062,0 C15.551,0 20,4.478 20,10 C20,15.523 15.551,20 10.063,20 C5.92355814,20 2.37656842,17.452742 0.882227993,13.831469 L0.779,13.571 L2.316,13.571 C2.733,14.486 3.312,15.328 4.04,16.061 C5.649,17.68 7.788,18.571 10.062,18.571 C12.338,18.571 14.477,17.68 16.086,16.061 C17.694,14.442 18.58,12.29 18.58,10 C18.58,7.711 17.694,5.558 16.085,3.939 C14.477,2.32 12.338,1.429 10.062,1.429 C7.788,1.429 5.649,2.32 4.04,3.939 C3.403,4.580375 2.88007812,5.30520313 2.47994336,6.08936719 L2.316,6.429 L0.779,6.429 C2.208,2.67 5.825,0 10.062,0 Z M8.906,5.974 L12.987,10 L8.906,14.026 L7.885,13.02 L10.225,10.712 L0,10.712 L0,9.288 L10.225,9.288 L7.885,6.981 L8.906,5.974 Z" id="Clip-439"></path>
                </g>
            </g>
        </g>
    </g>
</svg>