<?xml version="1.0" encoding="UTF-8"?>
<svg width="30px" height="40px" viewBox="0 0 30 40" version="1.1" xmlns="http://www.w3.org/2000/svg" xmlns:xlink="http://www.w3.org/1999/xlink">
    <!-- Generator: Sketch 60.1 (88133) - https://sketch.com -->
    <title>Clip 388</title>
    <desc>Created with Sketch.</desc>
    <g id="Symbols" stroke="none" stroke-width="1" fill="none" fill-rule="evenodd">
        <g id="Menu/Secured" transform="translate(-1130.000000, -75.000000)" fill="#E31E24">
            <path d="M1145,75 C1150.37668,75 1154.76359,79.2454169 1154.99076,84.5662842 L1155,85 L1155,88.82 C1158.068,91.568 1160,95.558 1160,100 C1160,108.284 1153.284,115 1145,115 C1136.716,115 1130,108.284 1130,100 C1130,95.7599091 1131.76036,91.9316612 1134.58875,89.2023514 L1135,88.82 L1135,85 C1135,79.478 1139.478,75 1145,75 Z M1145,87.5 C1138.096,87.5 1132.5,93.096 1132.5,100 C1132.5,106.904 1138.096,112.5 1145,112.5 C1151.904,112.5 1157.5,106.904 1157.5,100 C1157.5,93.096 1151.904,87.5 1145,87.5 Z M1145,89 C1151.076,89 1156,93.924 1156,100 C1156,106.076 1151.076,111 1145,111 C1138.924,111 1134,106.076 1134,100 C1134,93.924 1138.924,89 1145,89 Z M1145.612,90.222 L1145.612,91.674 L1144.388,91.674 L1144.388,90.222 C1143.716,90.254 1143.1528,90.34488 1142.57962,90.491568 L1142.146,90.612 L1142.498,91.546 L1142.036,91.698 L1141.734,90.762 C1141.182,90.957 1140.6525,91.200375 1140.15141,91.4879063 L1139.66,91.79 L1140.804,93.376 L1140.018,93.952 L1138.874,92.364 C1138.415,92.736 1137.99088,93.149625 1137.60669,93.5989688 L1137.236,94.06 L1138.022,94.636 L1137.736,95.032 L1136.946,94.456 C1136.6235,94.9315 1136.33812,95.437375 1136.1,95.9694063 L1135.878,96.51 L1137.708,97.114 L1137.376,98.046 L1135.472,97.442 C1135.3136,98.0404 1135.26016,98.66312 1135.2359,99.302992 L1135.222,99.786 L1135.68,99.786 L1135.68,100.306 L1135.27,100.306 C1135.2892,100.978 1135.36472,101.55528 1135.49144,102.127952 L1135.596,102.558 L1137.438,101.954 L1137.738,102.886 L1135.892,103.49 C1136.1005,104.045 1136.35625,104.57525 1136.65588,105.076531 L1136.97,105.568 L1137.7,105.032 L1138.004,105.454 L1137.274,105.988 C1137.6235,106.447 1138.0135,106.87225 1138.43809,107.260375 L1138.874,107.636 L1140.018,106.048 L1140.802,106.624 L1139.656,108.21 C1140.1345,108.5235 1140.63887,108.795375 1141.16912,109.021406 L1141.708,109.232 L1141.98,108.374 L1142.456,108.534 L1142.156,109.39 C1142.7384,109.5628 1143.27984,109.68312 1143.9032,109.743792 L1144.388,109.778 L1144.388,108.326 L1145.612,108.326 L1145.612,109.778 C1146.1265,109.7495 1146.6995,109.668125 1147.26013,109.538937 L1147.814,109.394 L1147.438,108.456 L1147.9,108.306 L1148.204,109.244 C1148.762,109.049 1149.29525,108.8045 1149.80037,108.514719 L1150.296,108.21 L1149.152,106.624 L1149.938,106.048 L1151.082,107.636 C1151.532,107.2715 1151.94713,106.867625 1152.324,106.429437 L1152.688,105.98 L1151.882,105.39 L1152.168,104.994 L1152.974,105.584 C1153.3055,105.101 1153.59537,104.585375 1153.83772,104.042188 L1154.064,103.49 L1152.218,102.886 L1152.518,101.954 L1154.36,102.558 C1154.512,101.982 1154.61408,101.42392 1154.66112,100.793648 L1154.686,100.306 L1154.166,100.306 L1154.166,99.786 L1154.778,99.786 C1154.7652,99.138 1154.63208,98.50536 1154.47797,97.895248 L1154.36,97.442 L1152.518,98.046 L1152.218,97.114 L1154.064,96.51 C1153.8585,95.964 1153.608,95.441625 1153.31503,94.9479375 L1153.008,94.464 L1152.146,95.096 L1151.844,94.674 L1152.706,94.042 C1152.352,93.5755 1151.95637,93.141625 1151.52503,92.7462812 L1151.082,92.364 L1149.938,93.952 L1149.154,93.376 L1150.3,91.79 C1149.817,91.472 1149.30588,91.197875 1148.76831,90.9701562 L1148.222,90.758 L1147.904,91.776 L1147.432,91.614 L1147.794,90.6 C1147.074,90.39 1146.298,90.26 1145.612,90.222 Z M1144.5,93 C1148.09,93 1151,95.91 1151,99.5 C1151,103.09 1148.09,106 1144.5,106 C1140.91,106 1138,103.09 1138,99.5 C1138,95.91 1140.91,93 1144.5,93 Z M1145,77.5 C1140.99742,77.5 1137.71784,80.6504683 1137.51041,84.6022389 L1137.5,85 L1137.5,87.008 C1139.706,85.73 1142.268,85 1145,85 C1147.50433,85 1149.86582,85.6134028 1151.94119,86.700022 L1152.5,87.008 L1152.5,85 C1152.5,80.864 1149.136,77.5 1145,77.5 Z" id="Clip-388"></path>
        </g>
    </g>
</svg>