<?xml version="1.0" encoding="UTF-8"?>
<svg width="17px" height="20px" viewBox="0 0 17 20" version="1.1" xmlns="http://www.w3.org/2000/svg" xmlns:xlink="http://www.w3.org/1999/xlink">
    <!-- Generator: Sketch 60.1 (88133) - https://sketch.com -->
    <title>Clip 376</title>
    <desc>Created with Sketch.</desc>
    <defs>
        <path d="M26.9,66.875 C29.716,66.875 32,69.227 32,72.125 L32,72.125 L32,73.125 C32,74.16 31.184,75 30.179,75 L30.179,75 L16.821,75 C15.816,75 15,74.16 15,73.125 L15,73.125 L15,72.125 C15,69.227 17.284,66.875 20.1,66.875 C21.193,66.875 21.713,67.5 23.5,67.5 C25.287,67.5 25.811,66.875 26.9,66.875 Z M26.9,68.75 C26.342,68.75 25.462,69.375 23.5,69.375 C21.553,69.375 20.654,68.75 20.1,68.75 C18.294,68.75 16.821,70.266 16.821,72.125 L16.821,72.125 L16.821,73.125 L30.179,73.125 L30.179,72.125 C30.179,70.266 28.706,68.75 26.9,68.75 Z M23.5,55 C26.517,55 28.964,57.52 28.964,60.625 C28.964,63.73 26.517,66.25 23.5,66.25 C20.483,66.25 18.036,63.73 18.036,60.625 C18.036,57.52 20.483,55 23.5,55 Z M23.5,56.875 C21.493,56.875 19.857,58.559 19.857,60.625 C19.857,62.691 21.493,64.375 23.5,64.375 C25.507,64.375 27.143,62.691 27.143,60.625 C27.143,58.559 25.507,56.875 23.5,56.875 Z" id="path-1"></path>
    </defs>
    <g id="Symbols" stroke="none" stroke-width="1" fill="none" fill-rule="evenodd">
        <g id="Component/Login" transform="translate(-40.000000, -145.000000)">
            <g id="Имя-пользователя" transform="translate(25.000000, 90.000000)">
                <mask id="mask-2" fill="white">
                    <use xlink:href="#path-1"></use>
                </mask>
                <use id="Clip-376" fill="#9E9E9E" xlink:href="#path-1"></use>
            </g>
        </g>
    </g>
</svg>